<svg id="Capa_1" enable-background="new 0 0 512 512" height="512" viewBox="0 0 512 512" width="512" xmlns="http://www.w3.org/2000/svg"><g><path d="m437.02 74.98c-48.353-48.351-112.64-74.98-181.02-74.98s-132.667 26.629-181.02 74.98c-48.351 48.353-74.98 112.64-74.98 181.02s26.629 132.667 74.98 181.02c48.353 48.351 112.64 74.98 181.02 74.98s132.667-26.629 181.02-74.98c48.351-48.353 74.98-112.64 74.98-181.02s-26.629-132.667-74.98-181.02zm-351.433 10.607c20.049-20.049 43.011-36.125 67.928-47.845-23.893 50.864-64.908 91.879-115.773 115.772 11.72-24.916 27.796-47.878 47.845-67.927zm340.826 340.826c-45.519 45.519-106.039 70.587-170.413 70.587s-124.894-25.068-170.413-70.587-70.587-106.039-70.587-170.413c0-28.619 4.967-56.472 14.47-82.588 30.369-12.015 57.849-29.606 81.191-51.55 12.566 16.454 8.209 34.78 3.23 55.701-5.627 23.642-12.005 50.438 13.702 71.133 15.757 12.685 34.067 16.948 53.453 21.461 24.207 5.636 49.208 11.463 70.483 35.315-1.901 3.394-2.99 7.301-2.99 11.459 0 12.976 10.557 23.532 23.532 23.532h56.113c4.142 0 7.5-3.358 7.5-7.5s-3.358-7.5-7.5-7.5h-56.113c-4.705 0-8.532-3.828-8.532-8.532s3.828-8.532 8.532-8.532h72.146c4.142 0 7.5-3.358 7.5-7.5s-3.358-7.5-7.5-7.5h-72.146c-3.357 0-6.551.712-9.443 1.984-24.398-27.305-52.913-33.953-78.181-39.836-17.669-4.114-34.359-8-47.448-18.536-17.442-14.042-14.6-30.419-8.516-55.976 5.31-22.309 11.271-47.393-7.125-69.831 22.181-23.458 39.946-51.132 52.054-81.735 26.117-9.503 53.969-14.469 82.588-14.469 64.374 0 124.894 25.068 170.413 70.587s70.587 106.039 70.587 170.413-25.068 124.894-70.587 170.413z"/><path d="m344.217 165.141c-43.917 0-79.646 35.729-79.646 79.646 0 9.105 1.526 18.038 4.535 26.55 1.38 3.905 5.666 5.952 9.571 4.571 3.905-1.38 5.952-5.666 4.572-9.571-2.44-6.902-3.677-14.153-3.677-21.55 0-35.646 29-64.646 64.646-64.646 35.402 0 64.248 28.605 64.641 63.916-.023.24-.035.483-.035.729 0 60.025-41.931 116.613-112.165 151.372-6.494 3.215-14.274 4.648-25.229 4.648-.004 0-.005 0-.009 0-21.642 0-41.095-12.018-50.768-31.363l-14.123-28.249c-1.669-3.339-5.542-4.94-9.081-3.761l-58.949 19.656c-4.467 1.484-9.312-.934-10.798-5.396-1.487-4.462.936-9.304 5.398-10.793l58.959-19.654c11.512-3.847 24.296 1.448 29.731 12.315l14.122 28.252c1.852 3.705 6.357 5.207 10.062 3.355s5.207-6.357 3.355-10.062l-14.123-28.253c-8.755-17.505-29.349-26.034-47.896-19.835l-58.956 19.653c-12.307 4.106-18.984 17.458-14.884 29.764 4.098 12.303 17.446 18.98 29.768 14.887l52.782-17.6 11.214 22.43c12.23 24.462 36.822 39.656 64.183 39.655h.012c8.306 0 20.647-.644 31.882-6.205 75.156-37.195 120.148-98.467 120.509-164.024.027-.26.041-.523.041-.791.001-43.917-35.728-79.646-79.644-79.646z"/><path d="m340.399 254.604c-3.431-2.319-8.094-1.417-10.413 2.015-1.965 2.909-5.727 4.715-9.818 4.715-4.09 0-7.853-1.807-9.818-4.715-2.32-3.433-6.982-4.334-10.414-2.015s-4.334 6.981-2.015 10.413c4.789 7.086 13.105 11.317 22.247 11.317s17.458-4.231 22.247-11.317c2.318-3.432 1.416-8.094-2.016-10.413z"/><path d="m241.113 96.193c-6.167 0-12.147 1.92-17.177 5.411-5.03-3.491-11.01-5.411-17.177-5.411-16.765 0-30.403 13.639-30.403 30.403 0 32.828 42.348 54.984 44.15 55.912 1.077.553 2.253.831 3.43.831s2.354-.277 3.43-.831c1.803-.927 44.15-23.083 44.15-55.912 0-16.764-13.639-30.403-30.403-30.403zm-17.186 71.067c-11.512-6.797-32.572-22.904-32.572-40.664 0-8.493 6.91-15.403 15.403-15.403 4.428 0 8.523 1.895 11.531 5.335 1.424 1.629 3.482 2.564 5.646 2.564s4.223-.935 5.646-2.564c3.007-3.44 7.103-5.335 11.531-5.335 8.494 0 15.403 6.91 15.403 15.403.001 17.689-21.075 33.84-32.588 40.664z"/></g></svg>