<svg id="Capa_1" enable-background="new 0 0 512 512" height="512" viewBox="0 0 512 512" width="512" xmlns="http://www.w3.org/2000/svg"><g><path d="m267.064 356.923c7.413-3.966 12.469-11.783 12.469-20.762 0-11.706-8.593-21.439-19.801-23.233l-38.967-233.799h19.203c4.142 0 7.5-3.357 7.5-7.5 0-4.142-3.358-7.5-7.5-7.5h-21.703l-2.878-17.27c-.356-25.903-19.752-46.859-43.556-46.859-24.026 0-43.572 21.345-43.572 47.581s19.546 47.581 43.572 47.581c13.469 0 25.529-6.71 33.528-17.229l39.578 237.467c-7.413 3.966-12.469 11.784-12.469 20.762 0 8.979 5.056 16.796 12.469 20.762l-18.419 110.516c-1.371 8.223-2.065 16.619-2.065 24.954v12.106c0 4.142 3.358 7.5 7.5 7.5s7.5-3.358 7.5-7.5v-12.106c0-7.512.626-15.078 1.861-22.488l14.686-88.123 14.687 88.122c1.235 7.41 1.861 14.976 1.861 22.488v12.107c0 4.142 3.358 7.5 7.5 7.5s7.5-3.358 7.5-7.5v-12.106c0-8.336-.695-16.732-2.065-24.954zm-2.532-20.762c0 4.705-3.828 8.532-8.532 8.532s-8.532-3.827-8.532-8.532c0-4.704 3.828-8.532 8.532-8.532s8.532 3.828 8.532 8.532zm-92.701-256c-15.755 0-28.572-14.615-28.572-32.581s12.817-32.58 28.572-32.58 28.573 14.615 28.573 32.581-12.819 32.58-28.573 32.58z"/><path d="m340.169 0c-23.804 0-43.2 20.956-43.556 46.859l-2.878 17.27h-21.703c-4.142 0-7.5 3.358-7.5 7.5 0 4.143 3.358 7.5 7.5 7.5h19.203l-27.937 167.622c-.681 4.086 2.079 7.95 6.165 8.631.417.069.832.104 1.242.104 3.6 0 6.778-2.6 7.389-6.269l28.547-171.284c7.999 10.518 20.059 17.229 33.528 17.229 24.026 0 43.572-21.345 43.572-47.581s-19.546-47.581-43.572-47.581zm0 80.161c-15.755 0-28.573-14.615-28.573-32.581s12.819-32.58 28.573-32.58 28.572 14.615 28.572 32.581-12.817 32.58-28.572 32.58z"/></g></svg>