<svg id="Capa_1" enable-background="new 0 0 512 512" height="512" viewBox="0 0 512 512" width="512" xmlns="http://www.w3.org/2000/svg"><g><path d="m150.561 273.802c-29.024 19.296-46.352 51.599-46.352 86.408 0 57.177 46.517 103.694 103.694 103.694s103.693-46.517 103.693-103.694c0-33.281-16.149-64.768-43.2-84.228-3.363-2.418-8.049-1.654-10.468 1.708s-1.654 8.049 1.708 10.468c23.143 16.649 36.959 43.584 36.959 72.052 0 48.906-39.788 88.694-88.693 88.694s-88.694-39.788-88.694-88.694c0-29.775 14.825-57.408 39.656-73.917 3.449-2.293 4.387-6.949 2.093-10.398-2.291-3.45-6.947-4.386-10.396-2.093z"/><path d="m341.884 324.308c-1.027-3.841-.464-9.024.132-14.51.897-8.261 1.915-17.624-2.644-25.503-4.624-7.993-13.315-11.802-20.983-15.164-4.991-2.188-9.705-4.254-12.427-6.976s-4.788-7.436-6.976-12.427c-3.361-7.668-7.171-16.36-15.164-20.985-6.482-3.75-13.969-3.7-20.436-3.154-4.128.348-7.192 3.976-6.844 8.103s3.97 7.194 8.104 6.844c4.146-.349 8.775-.481 11.664 1.19 3.74 2.164 6.265 7.924 8.938 14.023 2.649 6.044 5.388 12.293 10.107 17.012s10.968 7.458 17.012 10.108c6.098 2.673 11.858 5.198 14.021 8.937 2.1 3.629 1.427 9.819.715 16.371-.719 6.615-1.462 13.455.289 20.004 1.685 6.304 5.669 11.714 9.521 16.946 4 5.433 7.779 10.564 7.779 15.082s-3.779 9.65-7.779 15.083c-3.853 5.232-7.837 10.643-9.522 16.947-1.75 6.549-1.008 13.389-.289 20.004.711 6.553 1.384 12.743-.716 16.373-2.164 3.74-7.924 6.265-14.023 8.938-6.043 2.649-12.293 5.388-17.012 10.107s-7.458 10.969-10.107 17.012c-2.673 6.098-5.198 11.858-8.938 14.022-3.629 2.1-9.819 1.427-16.372.715-6.615-.719-13.455-1.462-20.003.288-6.305 1.685-11.715 5.669-16.947 9.522-5.433 4-10.564 7.779-15.081 7.779-4.518 0-9.65-3.779-15.083-7.78-5.232-3.853-10.643-7.837-16.947-9.522-6.549-1.751-13.39-1.007-20.004-.289-6.553.711-12.743 1.384-16.373-.716-3.74-2.164-6.265-7.924-8.938-14.023-2.649-6.044-5.388-12.293-10.107-17.013-4.719-4.719-10.968-7.458-17.012-10.108-6.099-2.673-11.858-5.198-14.022-8.937-2.1-3.629-1.427-9.819-.715-16.372.719-6.615 1.462-13.455-.288-20.004-1.685-6.304-5.669-11.715-9.522-16.947-4-5.433-7.779-10.564-7.779-15.081 0-4.518 3.779-9.65 7.78-15.083 3.853-5.232 7.837-10.643 9.522-16.947 1.75-6.549 1.007-13.389.289-20.004-.712-6.553-1.384-12.743.716-16.373 2.164-3.74 7.924-6.265 14.023-8.938 6.044-2.649 12.293-5.388 17.013-10.107 4.719-4.719 7.458-10.969 10.108-17.012 2.673-6.098 5.197-11.858 8.937-14.021 2.889-1.671 7.516-1.54 11.661-1.19 4.123.351 7.755-2.716 8.104-6.844.348-4.127-2.716-7.755-6.844-8.103-6.467-.545-13.951-.596-20.433 3.154-7.993 4.624-11.802 13.315-15.163 20.983-2.188 4.991-4.254 9.705-6.976 12.427s-7.437 4.788-12.428 6.976c-7.668 3.361-16.36 7.171-20.985 15.164-4.559 7.88-3.542 17.243-2.645 25.505.596 5.487 1.159 10.669.132 14.511-.953 3.566-3.943 7.627-7.109 11.926-5.016 6.812-10.701 14.532-10.701 23.977 0 9.444 5.685 17.165 10.701 23.976 3.166 4.299 6.156 8.36 7.109 11.926 1.026 3.841.463 9.023-.133 14.51-.897 8.261-1.915 17.625 2.644 25.504 4.625 7.993 13.315 11.802 20.983 15.163 4.991 2.188 9.706 4.254 12.427 6.976 2.722 2.722 4.788 7.437 6.976 12.428 3.361 7.668 7.171 16.36 15.164 20.985 7.879 4.559 17.242 3.542 25.504 2.645 5.487-.596 10.67-1.16 14.511-.132 3.566.953 7.627 3.943 11.927 7.109 6.812 5.016 14.532 10.701 23.977 10.701 9.444 0 17.165-5.685 23.976-10.701 4.299-3.166 8.36-6.156 11.926-7.109 3.842-1.026 9.024-.463 14.51.133 8.261.897 17.625 1.916 25.504-2.644 7.993-4.625 11.803-13.315 15.164-20.984 2.188-4.991 4.254-9.705 6.976-12.427s7.436-4.788 12.427-6.976c7.668-3.361 16.36-7.171 20.985-15.164 4.559-7.879 3.542-17.243 2.645-25.505-.596-5.487-1.159-10.669-.132-14.511.953-3.566 3.943-7.627 7.109-11.926 5.016-6.812 10.701-14.532 10.701-23.977 0-9.444-5.685-17.165-10.701-23.976-3.167-4.297-6.157-8.358-7.11-11.924z"/><path d="m448.387 0c-4.142 0-7.5 3.358-7.5 7.5v148.416c0 20-12.946 32.488-25.061 37.507s-30.1 5.342-44.242-8.8l-90.643-90.644c-8.911-8.911-20.758-13.818-33.36-13.818-26.014 0-47.178 21.164-47.178 47.178v10.168c-9.308 3.139-16.032 11.946-16.032 22.3v59.178c-4.981 5.58-8.016 12.932-8.016 20.983v24.048c0 17.396 14.152 31.548 31.548 31.548s31.548-14.153 31.548-31.548v-24.048c0-8.051-3.035-15.403-8.016-20.983v-59.178c0-10.354-6.724-19.16-16.032-22.3v-10.168c0-17.743 14.435-32.178 32.178-32.178 8.595 0 16.676 3.347 22.753 9.425l90.643 90.643c10.774 10.774 24.647 16.426 38.96 16.425 7.211 0 14.537-1.436 21.629-4.374 21.17-8.769 34.321-28.451 34.321-51.365v-148.415c0-4.142-3.358-7.5-7.5-7.5zm-223.935 264.016c0 9.125-7.423 16.548-16.548 16.548s-16.548-7.424-16.548-16.548v-24.048c0-9.125 7.423-16.548 16.548-16.548s16.548 7.424 16.548 16.548zm-8.016-54.415c-2.716-.764-5.575-1.182-8.532-1.182s-5.816.418-8.532 1.182v-49.795c0-4.705 3.828-8.532 8.532-8.532s8.532 3.828 8.532 8.532z"/><path d="m247.468 384.258c0-21.816-17.749-39.564-39.564-39.564s-39.564 17.749-39.564 39.564c0 21.816 17.749 39.565 39.564 39.565s39.564-17.749 39.564-39.565zm-64.129 0c0-13.545 11.02-24.564 24.564-24.564s24.564 11.02 24.564 24.564-11.02 24.565-24.564 24.565-24.564-11.02-24.564-24.565z"/></g></svg>