<svg id="Capa_1" enable-background="new 0 0 512 512" height="512" viewBox="0 0 512 512" width="512" xmlns="http://www.w3.org/2000/svg"><g><path d="m332.153 352.71c-17.396 0-31.548 14.153-31.548 31.548v72.145c0 22.385-18.212 40.597-40.597 40.597s-40.597-18.211-40.597-40.597v-136.79h40.597c8.556 0 15.516-6.96 15.516-15.516v-240.484c0-35.076-28.536-63.613-63.613-63.613-35.076 0-63.613 28.537-63.613 63.613v240.484c0 8.556 6.96 15.516 15.516 15.516h40.597v136.791c0 30.656 24.941 55.597 55.597 55.597s55.597-24.94 55.597-55.597v-72.145c0-9.125 7.423-16.548 16.548-16.548s16.548 7.424 16.548 16.548v120.241c0 4.142 3.358 7.5 7.5 7.5s7.5-3.358 7.5-7.5v-120.242c.001-17.396-14.152-31.548-31.548-31.548zm-71.629-48.613c0 .285-.231.516-.516.516h-27.185l27.701-75.188zm-97.226-240.484c0-23.756 17.133-43.574 39.689-47.778l-39.689 107.728zm.516 241c-.285 0-.516-.231-.516-.516v-28.363l70.339-190.911c1.432-3.887-.558-8.198-4.445-9.63-3.888-1.432-8.199.558-9.63 4.445l-56.264 152.716v-65.401l55.786-151.42c7.732 1.149 14.87 4.131 20.971 8.48l-8.729 23.695c-1.432 3.887.558 8.198 4.445 9.63.855.315 1.731.464 2.592.464 3.053 0 5.922-1.878 7.039-4.909l6.314-17.138c5.543 7.896 8.81 17.5 8.81 27.858v13.633l-83.767 227.367zm28.929 0 67.782-183.978v65.401l-43.687 118.577z"/></g></svg>