<svg id="Capa_1" enable-background="new 0 0 512 512" height="512" viewBox="0 0 512 512" width="512" xmlns="http://www.w3.org/2000/svg"><g><path d="m416.323 0h-320.646c-12.975 0-23.532 10.557-23.532 23.532s10.557 23.532 23.532 23.532h.56c.901 83.936 16.901 162.679 45.292 222.448 22.693 47.775 51.407 79.344 82.923 91.973v46.821c0 4.142 3.358 7.5 7.5 7.5s7.5-3.358 7.5-7.5v-42.288c5.456 1.118 10.977 1.691 16.548 1.691s11.092-.573 16.548-1.691v82.885h-33.097v-8.532c0-4.142-3.358-7.5-7.5-7.5s-7.5 3.358-7.5 7.5v56.113c0 8.556 6.96 15.516 15.516 15.516h32.064c8.556 0 15.516-6.96 15.516-15.516v-134.999c31.516-12.628 60.23-44.198 82.923-91.973 28.391-59.769 44.391-138.512 45.292-222.448h.56c12.976 0 23.532-10.557 23.532-23.532s-10.556-23.532-23.531-23.532zm-144.291 497h-32.064c-.285 0-.516-.231-.516-.516v-32.581h33.097v32.581c-.001.285-.232.516-.517.516zm84.89-233.923c-13.555 28.537-29.242 50.854-46.625 66.334-17.362 15.46-35.63 23.299-54.297 23.299s-36.935-7.839-54.297-23.299c-17.384-15.479-33.071-37.797-46.625-66.334-21.992-46.3-36.301-104.561-41.589-167.916h285.022c-5.287 63.355-19.596 121.616-41.589 167.916zm59.401-231.013h-32.064c-4.142 0-7.5 3.358-7.5 7.5s3.358 7.5 7.5 7.5h16.505c-.122 11.143-.519 22.185-1.177 33.097h-287.174c-.658-10.912-1.055-21.954-1.177-33.097h240.957c4.142 0 7.5-3.358 7.5-7.5s-3.358-7.5-7.5-7.5h-256.516c-4.705 0-8.532-3.828-8.532-8.532s3.828-8.532 8.532-8.532h320.646c4.705 0 8.532 3.828 8.532 8.532s-3.828 8.532-8.532 8.532z"/></g></svg>