<svg id="Capa_1" enable-background="new 0 0 512.001 512.001" height="512" viewBox="0 0 512.001 512.001" width="512" xmlns="http://www.w3.org/2000/svg"><g><path d="m399.775 288.066c0-76.894 6.206-132.75 7.652-144.712 19.872-17.544 32.429-43.193 32.429-71.723 0-33.451-16.137-66.109-16.824-67.483-1.851-3.703-6.35-5.202-10.056-3.354-3.704 1.849-5.208 6.352-3.362 10.058.152.306 15.243 30.939 15.243 60.78 0 44.486-36.192 80.677-80.678 80.677-15.699 0-30.915-4.51-44.002-13.043-3.469-2.262-8.115-1.284-10.379 2.186-2.262 3.47-1.283 8.116 2.187 10.379 15.53 10.126 33.579 15.479 52.194 15.479 17.024 0 33.021-4.475 46.885-12.302-1.601 15.904-3.891 42.877-5.22 77.463h-25.634c-4.142 0-7.5 3.358-7.5 7.5s3.358 7.5 7.5 7.5h25.135c-.357 12.724-.57 26.301-.57 40.597 0 35.137 7.3 66.071 15.028 98.82 1.708 7.239 3.425 14.535 5.081 21.939h-297.767c1.656-7.404 3.373-14.699 5.081-21.939 7.729-32.749 15.028-63.682 15.028-98.82 0-14.296-.214-27.873-.57-40.597h201.49c4.142 0 7.5-3.358 7.5-7.5s-3.358-7.5-7.5-7.5h-201.988c-1.329-34.586-3.619-61.56-5.22-77.463 13.864 7.827 29.861 12.302 46.886 12.302 18.616 0 36.665-5.352 52.194-15.479 3.47-2.262 4.449-6.909 2.187-10.379-2.263-3.47-6.911-4.449-10.379-2.186-13.087 8.533-28.303 13.043-44.002 13.043-44.486 0-80.678-36.192-80.678-80.677 0-29.841 15.09-60.474 15.243-60.78 1.849-3.704.347-8.206-3.356-10.058s-8.209-.351-10.062 3.354c-.688 1.373-16.825 34.032-16.825 67.482 0 28.53 12.557 54.179 32.429 71.723 1.446 11.962 7.652 67.818 7.652 144.712 0 33.392-7.105 63.499-14.627 95.375-8.573 36.326-17.437 73.89-17.437 121.061 0 4.142 3.358 7.5 7.5 7.5s7.5-3.358 7.5-7.5c0-29.976 3.779-56.141 8.751-80.677h304.175c4.972 24.536 8.751 50.701 8.751 80.677 0 4.142 3.358 7.5 7.5 7.5s7.5-3.358 7.5-7.5c0-47.171-8.864-84.735-17.437-121.061-7.523-31.875-14.628-61.983-14.628-95.374z"/><path d="m263.501 312.114v-8.016c0-4.142-3.358-7.5-7.5-7.5s-7.5 3.358-7.5 7.5v8.016c0 4.142 3.358 7.5 7.5 7.5s7.5-3.358 7.5-7.5z"/><path d="m319.438 362.059c-4.538 2.229-9.24 4.239-13.978 5.972-3.89 1.423-5.89 5.73-4.466 9.62 1.112 3.04 3.985 4.925 7.044 4.925.856 0 1.727-.147 2.577-.459 5.233-1.915 10.427-4.134 15.438-6.595 3.718-1.826 5.251-6.321 3.424-10.039-1.827-3.717-6.32-5.251-10.039-3.424z"/><path d="m245.61 384.091c-.078 4.141 3.216 7.562 7.358 7.64 1.008.019 2.02.028 3.033.028 4.579 0 9.201-.198 13.738-.587 4.127-.354 7.186-3.987 6.832-8.114-.354-4.126-3.977-7.181-8.114-6.831-5.023.431-10.161.601-15.208.506-4.118-.067-7.562 3.217-7.639 7.358z"/><path d="m156.929 337.355c-3.018-2.837-7.765-2.691-10.602.326-2.837 3.018-2.691 7.764.326 10.602 4.062 3.819 8.365 7.466 12.792 10.839 1.358 1.035 2.956 1.535 4.541 1.535 2.26 0 4.495-1.018 5.971-2.955 2.511-3.295 1.875-8.001-1.419-10.511-4.017-3.061-7.923-6.37-11.609-9.836z"/><path d="m201.435 366.051c-3.833-1.571-8.213.263-9.784 4.095-1.571 3.833.263 8.213 4.096 9.784 5.163 2.116 10.494 3.978 15.845 5.533.699.203 1.403.3 2.097.3 3.25 0 6.246-2.13 7.199-5.409 1.156-3.978-1.131-8.139-5.109-9.295-4.845-1.407-9.671-3.092-14.344-5.008z"/><path d="m355.946 354.184c1.75 0 3.506-.609 4.928-1.849 1.508-1.316 3.013-2.679 4.473-4.052 3.018-2.837 3.164-7.584.326-10.602-2.837-3.018-7.584-3.164-10.602-.326-1.325 1.246-2.691 2.484-4.06 3.678-3.121 2.723-3.443 7.461-.72 10.582 1.485 1.7 3.564 2.569 5.655 2.569z"/></g></svg>