<svg id="Capa_1" enable-background="new 0 0 512.001 512.001" height="512" viewBox="0 0 512.001 512.001" width="512" xmlns="http://www.w3.org/2000/svg"><g><path d="m167.823 167.308c18.616 0 36.665-5.352 52.194-15.479 3.47-2.262 4.449-6.909 2.187-10.379-2.264-3.47-6.911-4.449-10.379-2.186-13.087 8.533-28.303 13.043-44.002 13.043-44.486 0-80.678-36.192-80.678-80.677 0-29.841 15.09-60.474 15.243-60.78 1.849-3.704.347-8.206-3.356-10.058s-8.209-.35-10.062 3.355c-.687 1.374-16.824 34.033-16.824 67.483 0 28.53 12.557 54.179 32.429 71.723 1.446 11.962 7.652 67.818 7.652 144.712 0 33.392-7.105 63.499-14.627 95.375-8.573 36.326-17.437 73.89-17.437 121.061 0 4.142 3.358 7.5 7.5 7.5s7.5-3.358 7.5-7.5c0-45.426 8.661-82.125 17.036-117.616 7.729-32.749 15.028-63.682 15.028-98.82 0-61.259-3.907-109.404-6.288-133.06 13.863 7.828 29.86 12.303 46.884 12.303z"/><path d="m139.767 111.195c8.614 0 16.849-4.115 22.028-11.009 2.488-3.312 1.821-8.013-1.491-10.501-3.311-2.488-8.013-1.82-10.501 1.491-2.396 3.19-6.054 5.019-10.036 5.019-6.915 0-12.541-5.625-12.541-12.54s5.625-12.541 12.541-12.541c4.142 0 7.5-3.358 7.5-7.5s-3.358-7.5-7.5-7.5c-15.186 0-27.541 12.355-27.541 27.541s12.355 27.54 27.541 27.54z"/><path d="m372.235 111.195c13.047 0 24.397-9.269 26.989-22.041.824-4.059-1.799-8.018-5.858-8.842-4.057-.825-8.018 1.799-8.842 5.858-1.179 5.808-6.347 10.024-12.289 10.024-6.915 0-12.541-5.625-12.541-12.54s5.625-12.541 12.541-12.541c4.142 0 7.5-3.358 7.5-7.5s-3.358-7.5-7.5-7.5c-15.186 0-27.541 12.355-27.541 27.541s12.355 27.541 27.541 27.541z"/><path d="m399.775 288.066c0-76.894 6.206-132.75 7.652-144.712 19.872-17.544 32.429-43.193 32.429-71.723 0-33.451-16.137-66.109-16.824-67.483-1.851-3.703-6.35-5.202-10.056-3.354-3.704 1.849-5.208 6.352-3.362 10.058.152.306 15.243 30.939 15.243 60.78 0 44.486-36.192 80.677-80.678 80.677-15.699 0-30.915-4.51-44.002-13.043-3.468-2.262-8.116-1.284-10.379 2.186-2.262 3.47-1.283 8.116 2.187 10.379 15.53 10.126 33.579 15.479 52.194 15.479 17.024 0 33.021-4.475 46.885-12.302-2.381 23.656-6.288 71.802-6.288 133.06 0 35.137 7.3 66.071 15.028 98.82 8.375 35.491 17.036 72.19 17.036 117.616 0 4.142 3.358 7.5 7.5 7.5s7.5-3.358 7.5-7.5c0-47.171-8.864-84.735-17.437-121.061-7.523-31.878-14.628-61.986-14.628-95.377z"/><path d="m284.711 441.681-21.31 10.655c-4.635 2.316-10.167 2.316-14.802 0l-21.31-10.655c-3.704-1.853-8.209-.351-10.062 3.354s-.351 8.21 3.354 10.062l11.886 5.943v43.462c0 4.142 3.358 7.5 7.5 7.5s7.5-3.358 7.5-7.5v-36.613c2.785.777 5.658 1.176 8.532 1.176s5.747-.398 8.532-1.176v36.613c0 4.142 3.358 7.5 7.5 7.5s7.5-3.358 7.5-7.5v-43.462l11.886-5.943c3.705-1.852 5.207-6.357 3.354-10.062-1.85-3.706-6.354-5.208-10.06-3.354z"/><path d="m336.162 304.614h-41.829c-3.139-9.308-11.946-16.032-22.3-16.032h-32.064c-10.353 0-19.16 6.724-22.3 16.032h-41.829c-12.976 0-23.532 10.557-23.532 23.532s10.557 23.532 23.532 23.532 23.532-10.556 23.532-23.532c0-3.009-.574-5.885-1.608-8.532h18.672v16.549c0 12.457 6.047 24.217 16.032 31.64v56.537c0 4.142 3.358 7.5 7.5 7.5s7.5-3.358 7.5-7.5v-60.56c0-2.67-1.419-5.139-3.728-6.482-7.705-4.484-12.305-12.385-12.305-21.135v-24.049c0-4.705 3.828-8.532 8.532-8.532h32.064c4.705 0 8.532 3.828 8.532 8.532v24.049c0 8.75-4.6 16.651-12.305 21.135-2.308 1.343-3.728 3.812-3.728 6.482v60.561c0 4.142 3.358 7.5 7.5 7.5s7.5-3.358 7.5-7.5v-56.537c9.985-7.423 16.032-19.183 16.032-31.64v-16.549h18.672c-1.034 2.647-1.608 5.523-1.608 8.532 0 12.976 10.557 23.532 23.532 23.532s23.532-10.556 23.532-23.532-10.553-23.533-23.528-23.533zm-151.79 23.533c0 4.705-3.828 8.532-8.532 8.532s-8.532-3.828-8.532-8.532c0-4.705 3.828-8.532 8.532-8.532s8.532 3.827 8.532 8.532zm151.79 8.532c-4.705 0-8.532-3.828-8.532-8.532 0-4.705 3.828-8.532 8.532-8.532s8.532 3.828 8.532 8.532-3.828 8.532-8.532 8.532z"/></g></svg>