<svg id="Capa_1" enable-background="new 0 0 512 512" height="512" viewBox="0 0 512 512" width="512" xmlns="http://www.w3.org/2000/svg"><g><path d="m388.533 298.2c-4.142 0-7.5 3.358-7.5 7.5v74.55c0 8.703 7.081 15.783 15.784 15.783h49.7c8.703 0 15.783-7.081 15.783-15.783v-124.25c0-32.075-17.848-57.2-40.633-57.2s-40.633 25.125-40.633 57.2v16.567c0 4.142 3.358 7.5 7.5 7.5s7.5-3.358 7.5-7.5v-16.567c0-22.875 11.739-42.2 25.633-42.2s25.633 19.325 25.633 42.2v124.25c0 .432-.352.783-.783.783h-49.7c-.432 0-.784-.352-.784-.783v-74.55c0-4.142-3.358-7.5-7.5-7.5z"/><path d="m454.8 130.967c4.142 0 7.5-3.358 7.5-7.5s-3.358-7.5-7.5-7.5h-66.267c-4.142 0-7.5 3.358-7.5 7.5s3.358 7.5 7.5 7.5z"/><path d="m215.367 380.25c0 8.703 7.08 15.783 15.783 15.783h49.7c8.703 0 15.783-7.081 15.783-15.783v-124.25c0-32.075-17.848-57.2-40.633-57.2s-40.633 25.125-40.633 57.2zm15-124.25c0-22.875 11.739-42.2 25.633-42.2s25.633 19.325 25.633 42.2v124.25c0 .432-.352.783-.783.783h-49.7c-.432 0-.783-.352-.783-.783z"/><path d="m289.133 130.967c4.142 0 7.5-3.358 7.5-7.5s-3.358-7.5-7.5-7.5h-66.267c-4.142 0-7.5 3.358-7.5 7.5s3.358 7.5 7.5 7.5z"/><path d="m509.803 118.164-33.133-33.134c-1.406-1.407-3.314-2.197-5.303-2.197h-99.4c-1.989 0-3.897.79-5.303 2.197l-27.83 27.83-27.83-27.83c-1.406-1.407-3.314-2.197-5.303-2.197h-99.4c-1.989 0-3.897.79-5.303 2.197l-27.83 27.83-27.83-27.83c-1.406-1.407-3.314-2.197-5.303-2.197h-99.4c-1.989 0-3.897.79-5.303 2.197l-33.135 33.134c-1.407 1.406-2.197 3.314-2.197 5.303v24.85c0 4.142 3.358 7.5 7.5 7.5s7.5-3.358 7.5-7.5v-21.744l28.74-28.74h93.187l28.74 28.74v13.46c0 4.142 3.358 7.5 7.5 7.5s7.5-3.358 7.5-7.5v-13.46l28.74-28.74h93.188l28.74 28.74v13.46c0 4.142 3.358 7.5 7.5 7.5s7.5-3.358 7.5-7.5v-13.46l28.74-28.74h93.187l28.74 28.74v287.593h-482.002v-232.716c0-4.142-3.358-7.5-7.5-7.5s-7.5 3.358-7.5 7.5v240.216c0 4.142 3.358 7.5 7.5 7.5h497c4.142 0 7.5-3.358 7.5-7.5v-298.2c0-1.988-.79-3.896-2.197-5.302z"/><path d="m49.7 380.25c0 8.703 7.08 15.783 15.783 15.783h49.7c8.703 0 15.784-7.081 15.784-15.783v-124.25c0-32.075-17.848-57.2-40.633-57.2s-40.634 25.125-40.634 57.2zm15-124.25c0-22.875 11.739-42.2 25.633-42.2s25.633 19.325 25.633 42.2v124.25c0 .432-.352.783-.784.783h-49.7c-.432 0-.783-.352-.783-.783v-124.25z"/><path d="m123.467 130.967c4.142 0 7.5-3.358 7.5-7.5s-3.358-7.5-7.5-7.5h-66.267c-4.142 0-7.5 3.358-7.5 7.5s3.358 7.5 7.5 7.5z"/><path d="m173.167 197.233c4.142 0 7.5-3.358 7.5-7.5v-16.567c0-4.142-3.358-7.5-7.5-7.5s-7.5 3.358-7.5 7.5v16.567c0 4.142 3.357 7.5 7.5 7.5z"/><path d="m165.667 239.433c0 4.142 3.358 7.5 7.5 7.5s7.5-3.358 7.5-7.5v-16.566c0-4.142-3.358-7.5-7.5-7.5s-7.5 3.358-7.5 7.5z"/><path d="m165.667 289.133c0 4.142 3.358 7.5 7.5 7.5s7.5-3.358 7.5-7.5v-16.566c0-4.142-3.358-7.5-7.5-7.5s-7.5 3.358-7.5 7.5z"/><path d="m165.667 388.533c0 4.142 3.358 7.5 7.5 7.5s7.5-3.358 7.5-7.5v-16.566c0-4.142-3.358-7.5-7.5-7.5s-7.5 3.358-7.5 7.5z"/><path d="m165.667 338.833c0 4.142 3.358 7.5 7.5 7.5s7.5-3.358 7.5-7.5v-16.567c0-4.142-3.358-7.5-7.5-7.5s-7.5 3.358-7.5 7.5z"/><path d="m338.833 197.233c4.142 0 7.5-3.358 7.5-7.5v-16.567c0-4.142-3.358-7.5-7.5-7.5s-7.5 3.358-7.5 7.5v16.567c0 4.142 3.358 7.5 7.5 7.5z"/><path d="m331.333 239.433c0 4.142 3.358 7.5 7.5 7.5s7.5-3.358 7.5-7.5v-16.566c0-4.142-3.358-7.5-7.5-7.5s-7.5 3.358-7.5 7.5z"/><path d="m331.333 289.133c0 4.142 3.358 7.5 7.5 7.5s7.5-3.358 7.5-7.5v-16.566c0-4.142-3.358-7.5-7.5-7.5s-7.5 3.358-7.5 7.5z"/><path d="m331.333 388.533c0 4.142 3.358 7.5 7.5 7.5s7.5-3.358 7.5-7.5v-16.566c0-4.142-3.358-7.5-7.5-7.5s-7.5 3.358-7.5 7.5z"/><path d="m331.333 338.833c0 4.142 3.358 7.5 7.5 7.5s7.5-3.358 7.5-7.5v-16.567c0-4.142-3.358-7.5-7.5-7.5s-7.5 3.358-7.5 7.5z"/></g></svg>