<svg id="Capa_1" enable-background="new 0 0 512 512" height="512" viewBox="0 0 512 512" width="512" xmlns="http://www.w3.org/2000/svg"><g><path d="m330.389 142.746-29.385-42.445c-14.047-20.29-21.472-44.059-21.472-68.736v-8.032c0-12.976-10.556-23.533-23.532-23.533s-23.532 10.557-23.532 23.532v8.032c0 24.678-7.425 48.447-21.472 68.736l-2.535 3.662c-2.358 3.406-1.508 8.078 1.897 10.436 3.406 2.358 8.078 1.508 10.436-1.897l2.535-3.662c3.402-4.914 6.437-10.02 9.139-15.268v6.046c0 23.533-2.134 47.205-6.344 70.357l-3.103 17.062c-4.37 24.036-6.586 48.61-6.586 73.04v180.295c0 21.816 17.749 39.564 39.564 39.564s39.564-17.749 39.564-39.564v-80.162c0-4.142-3.358-7.5-7.5-7.5s-7.5 3.358-7.5 7.5v80.162c0 13.545-11.02 24.564-24.564 24.564s-24.564-11.02-24.564-24.564v-120.242c0-13.545 11.02-24.564 24.564-24.564s24.564 11.02 24.564 24.564v8.016c0 4.142 3.358 7.5 7.5 7.5s7.5-3.358 7.5-7.5v-68.069c0-24.43-2.216-49.004-6.586-73.04l-3.102-17.062c-4.209-23.151-6.344-46.823-6.344-70.357v-6.046c2.702 5.248 5.737 10.354 9.139 15.268l29.385 42.445c12.182 17.596 18.621 38.209 18.621 59.611v34.768c0 23.667-2.698 47.357-8.02 70.414l-7.303 31.648c-5.783 25.059-8.877 50.804-9.196 76.465l-.339 17.114c-.247 14.948-6.252 28.955-16.91 39.438-10.656 10.484-23.958 16.258-38.908 16.258s-28.252-5.774-38.91-16.257c-10.658-10.484-16.664-24.49-16.911-39.463l-.337-17.034c-.32-25.716-3.414-51.461-9.197-76.52l-7.303-31.648c-5.321-23.057-8.02-46.747-8.02-70.414v-34.768c0-21.402 6.439-42.015 18.621-59.611l7.793-11.257c2.357-3.405 1.508-8.078-1.897-10.436s-8.078-1.509-10.436 1.897l-7.793 11.257c-13.927 20.116-21.288 43.682-21.288 68.149v34.768c0 24.8 2.827 49.625 8.403 73.787l7.303 31.648c5.542 24.015 8.508 48.688 8.815 73.389l.338 17.064c.312 18.908 7.908 36.624 21.389 49.885 13.483 13.261 30.52 20.564 49.43 20.564s35.948-7.303 49.429-20.564 21.077-30.977 21.389-49.86l.339-17.144c.306-24.645 3.271-49.318 8.814-73.333l7.303-31.648c5.576-24.161 8.403-48.987 8.403-73.787v-34.768c0-24.468-7.361-48.034-21.288-68.15zm-74.389-127.746c4.705 0 8.532 3.828 8.532 8.532v10.142c-2.648-1.034-5.523-1.61-8.532-1.61s-5.885.576-8.532 1.61v-10.142c0-4.704 3.827-8.532 8.532-8.532zm24.564 245.076v29.072c-6.754-5.366-15.288-8.584-24.564-8.584s-17.811 3.218-24.564 8.584v-29.072c0-23.533 2.134-47.204 6.344-70.356l3.103-17.062c4.37-24.036 6.586-48.61 6.586-73.041v-44.02c0-4.705 3.828-8.532 8.532-8.532s8.532 3.828 8.532 8.532v44.021c0 24.432 2.216 49.006 6.586 73.041l3.102 17.062c4.209 23.151 6.343 46.822 6.343 70.355z"/><path d="m256 208.419c-4.142 0-7.5 3.358-7.5 7.5v8.016c0 4.142 3.358 7.5 7.5 7.5s7.5-3.358 7.5-7.5v-8.016c0-4.142-3.358-7.5-7.5-7.5z"/></g></svg>