<svg id="Capa_1" enable-background="new 0 0 512.006 512.006" height="512" viewBox="0 0 512.006 512.006" width="512" xmlns="http://www.w3.org/2000/svg"><g><path d="m351.569 243.992c0-4.142-3.358-7.5-7.5-7.5h-247.18c-2.17 0-4.234.94-5.658 2.577s-2.07 3.811-1.77 5.96c3.748 26.831 16.21 52.147 36.04 73.212 19.817 21.053 46.069 36.831 75.919 45.629 20.535 6.053 37.575 19.468 47.98 37.777 1.333 2.345 3.823 3.794 6.521 3.794s5.188-1.449 6.521-3.794c10.405-18.309 27.447-31.725 47.985-37.777 29.848-8.798 56.099-24.576 75.916-45.629 19.829-21.065 32.291-46.382 36.039-73.212.3-2.149-.345-4.323-1.77-5.96s-3.488-2.577-5.658-2.577h-38.83c-4.142 0-7.5 3.358-7.5 7.5s3.358 7.5 7.5 7.5h29.863c-4.553 20.573-15.014 39.946-30.566 56.469-17.995 19.118-41.936 33.476-69.234 41.522-20.391 6.009-37.878 18.178-50.265 34.775-12.385-16.597-29.871-28.766-50.26-34.775-27.3-8.047-51.242-22.405-69.238-41.522-15.553-16.522-26.014-35.896-30.567-56.469h238.213c4.141 0 7.499-3.358 7.499-7.5z"/><path d="m507.306 29.552c-3.768-5.03-9.268-8.292-15.438-9.176-6.17-.928-12.348.622-17.392 4.364-5.075 3.766-8.37 9.276-9.275 15.481-.076.498-7.755 48.028-43.004 90.131-7.33-9.62-15.796-18.672-25.344-27.026-37.693-32.98-87.743-51.144-140.932-51.144s-103.239 18.164-140.932 51.145c-9.514 8.324-17.956 17.342-25.267 26.923-35.175-42.078-42.84-89.529-42.911-89.994-.91-6.24-4.206-11.75-9.28-15.516-5.043-3.742-11.22-5.291-17.341-4.372-6.222.893-11.722 4.154-15.49 9.184-3.768 5.031-5.35 11.228-4.456 17.444.426 2.971 10.826 71.708 65.404 127.003-6.278 17.208-9.549 35.361-9.549 53.967 0 50.117 24.415 97.973 66.983 131.297 3.263 2.553 7.976 1.979 10.529-1.283s1.979-7.976-1.283-10.529c-38.912-30.461-61.229-74.012-61.229-119.485 0-88.656 82.911-160.783 184.823-160.783s184.823 72.127 184.823 160.783c0 68.948-50.434 130.138-125.499 152.264-25.299 7.457-43.314 28.966-45.897 54.798l-4.141 41.406c-.026.264-.246.462-.511.462h-17.55c-.265 0-.484-.199-.511-.462l-4.141-41.407c-2.583-25.832-20.599-47.341-45.897-54.798-12.604-3.715-25.549-9.089-36.969-15.1-3.666-1.93-8.201-.522-10.13 3.144s-.522 8.201 3.144 10.13c12.294 6.471 26.162 12.22 39.714 16.214 19.418 5.724 33.24 22.171 35.213 41.902l4.141 41.407c.797 7.964 7.433 13.969 15.437 13.969h17.55c8.004 0 14.64-6.005 15.437-13.97l4.141-41.407c1.973-19.731 15.794-36.179 35.213-41.902 81.5-24.022 136.258-90.995 136.258-166.651 0-18.562-3.256-36.674-9.505-53.845 54.679-55.315 65.094-124.151 65.52-127.12.894-6.22-.688-12.417-4.456-17.448zm-435.291 129.419c-47.383-50.92-56.538-111.413-56.923-114.106-.324-2.253.249-4.498 1.614-6.321s3.358-3.004 5.662-3.335c2.197-.328 4.408.23 6.223 1.577 1.847 1.371 3.046 3.372 3.377 5.642.08.548 8.334 54.032 48.918 100.567-3.269 5.196-6.229 10.526-8.871 15.976zm424.899-114.101c-.385 2.69-9.553 63.273-57.03 114.217-2.638-5.452-5.594-10.784-8.859-15.982 40.666-46.561 48.933-100.128 49.014-100.683.33-2.263 1.529-4.264 3.376-5.635 1.815-1.346 4.025-1.908 6.273-1.569 2.254.323 4.247 1.504 5.612 3.327s1.938 4.067 1.614 6.325z"/></g></svg>