<svg id="Capa_1" enable-background="new 0 0 512 512" height="512" viewBox="0 0 512 512" width="512" xmlns="http://www.w3.org/2000/svg"><g><path d="m192.497 228.485c0 4.142 3.358 7.5 7.5 7.5s7.5-3.358 7.5-7.5v-37.656c2.8.334 5.644.526 8.533.526s5.732-.192 8.532-.526v11.976c0 4.142 3.358 7.5 7.5 7.5s7.5-3.358 7.5-7.5v-15.44c27.968-9.759 48.097-36.385 48.097-67.638v-16.549h26.667c4.109 9.408 15.804 16.032 29.962 16.032s25.853-6.624 29.962-16.032h2.102c21.816 0 39.564-17.749 39.564-39.564s-17.749-39.564-39.564-39.564h-16.926c-11.062 0-22.139 2.615-32.033 7.562l-21.016 10.507c-5.849 2.924-12.22 4.816-18.719 5.585v-8.139c0-21.816-17.748-39.565-39.564-39.565h-64.129c-21.817 0-39.565 17.749-39.565 39.564v8.139c-6.499-.769-12.87-2.661-18.719-5.585l-21.015-10.508c-9.895-4.947-20.971-7.562-32.034-7.562h-16.926c-4.142 0-7.5 3.358-7.5 7.5s3.358 7.5 7.5 7.5h16.926c8.746 0 17.503 2.067 25.325 5.979l21.016 10.508c7.922 3.961 16.603 6.422 25.427 7.248v25.395h-26.667c-4.109-9.408-15.804-16.032-29.962-16.032s-25.853 6.624-29.962 16.032h-2.102c-13.545 0-24.564-11.02-24.564-24.564 0-4.32 1.135-8.566 3.282-12.277 2.074-3.585.849-8.174-2.737-10.248-3.584-2.074-8.173-.849-10.248 2.737-3.465 5.992-5.297 12.834-5.297 19.788 0 21.816 17.749 39.564 39.564 39.564h2.102c4.109 9.408 15.804 16.032 29.962 16.032s25.853-6.624 29.962-16.032h26.667v16.549c0 31.253 20.128 57.879 48.097 67.638zm151.79-124.276c-10.102 0-16.548-5.053-16.548-8.532s6.447-8.532 16.548-8.532 16.548 5.053 16.548 8.532-6.446 8.532-16.548 8.532zm-56.629-41.426c8.824-.826 17.504-3.287 25.427-7.248l21.016-10.508c7.822-3.911 16.579-5.979 25.325-5.979h16.926c13.545 0 24.564 11.02 24.564 24.564s-11.02 24.564-24.564 24.564h-2.102c-4.109-9.408-15.804-16.032-29.962-16.032s-25.853 6.624-29.962 16.032h-26.667v-25.393zm-199.887 41.426c-10.102 0-16.548-5.053-16.548-8.532s6.447-8.532 16.548-8.532 16.548 5.053 16.548 8.532-6.447 8.532-16.548 8.532zm184.887 15.517c0 28.681-21.438 52.434-49.129 56.117v-17.275c18.241-3.516 32.064-19.591 32.064-38.842v-16.033c0-4.142-3.358-7.5-7.5-7.5s-7.5 3.358-7.5 7.5v16.033c0 13.545-11.02 24.564-24.565 24.564s-24.564-11.02-24.564-24.564v-56.629h49.129v8.532c0 4.142 3.358 7.5 7.5 7.5s7.5-3.358 7.5-7.5v-8.532h17.064v56.629zm-113.258-80.162c0-13.544 11.019-24.564 24.564-24.564h64.129c13.545 0 24.564 11.02 24.564 24.564v8.532h-113.257zm0 80.162v-56.629h17.064v56.629c0 19.251 13.824 35.327 32.065 38.842v17.275c-27.691-3.682-49.129-27.436-49.129-56.117z"/><path d="m488.463 471.108-65.756-65.756c-6.05-6.05-15.894-6.05-21.943 0l-.364.364-25.809-25.809c15.751-18.191 25.293-41.899 25.293-67.794 0-57.177-46.517-103.693-103.693-103.693s-103.694 46.517-103.694 103.693 46.517 103.694 103.694 103.694c25.895 0 49.603-9.542 67.794-25.293l25.809 25.809-.364.364c-6.05 6.05-6.05 15.893 0 21.943l66.474 66.474c4.442 4.448 10.352 6.897 16.642 6.897 6.888 0 13.412-3.01 17.9-8.259 7.922-9.265 7.051-23.599-1.983-32.634zm-192.273-70.301c-48.906 0-88.694-39.788-88.694-88.694s39.788-88.693 88.694-88.693 88.693 39.788 88.693 88.693-39.787 88.694-88.693 88.694zm103.846 27.216c-.201-.201-.201-.529 0-.73l11.334-11.334c.101-.101.233-.151.365-.151s.265.05.365.151l13.077 13.077-12.064 12.064zm79.009 65.97c-1.658 1.939-3.967 3.007-6.5 3.007-2.28 0-4.421-.887-6.032-2.5l-42.794-42.794 12.064-12.064 42.073 42.073c3.475 3.474 4.008 8.982 1.189 12.278z"/><path d="m324.903 263.376c3.568 2.104 8.166.919 10.271-2.648 2.105-3.568.919-8.166-2.648-10.271-28.135-16.598-63.903-12.073-86.984 11.006-23.08 23.08-27.605 58.849-11.006 86.984 1.399 2.371 3.899 3.69 6.467 3.69 1.295 0 2.607-.335 3.804-1.042 3.567-2.104 4.753-6.703 2.648-10.271-13.122-22.241-9.546-50.514 8.694-68.755 18.239-18.239 46.514-21.813 68.754-8.693z"/><path d="m357.846 275.779c-2.104-3.566-6.702-4.754-10.271-2.648-3.567 2.104-4.753 6.703-2.648 10.271 13.122 22.241 9.546 50.514-8.694 68.755-18.241 18.24-46.514 21.816-68.755 8.694-3.567-2.105-8.165-.92-10.271 2.648-2.105 3.567-.919 8.166 2.648 10.271 11.332 6.686 23.9 9.944 36.381 9.944 18.506 0 36.819-7.167 50.603-20.95 23.08-23.081 27.606-58.85 11.007-86.985z"/><path d="m296.045 295.746c1.919 0 3.839-.732 5.303-2.197 2.929-2.929 2.929-7.678 0-10.606l-8.016-8.016c-2.929-2.929-7.678-2.929-10.606 0-2.929 2.929-2.929 7.678 0 10.606l8.016 8.016c1.464 1.465 3.384 2.197 5.303 2.197z"/><path d="m270.67 340.739c1.919 0 3.839-.732 5.303-2.197l8.016-8.016c2.929-2.929 2.929-7.678 0-10.606-2.929-2.929-7.678-2.929-10.606 0l-8.016 8.016c-2.929 2.929-2.929 7.678 0 10.606 1.464 1.464 3.384 2.197 5.303 2.197z"/><path d="m308.924 323.864 7.412 6.151c1.4 1.162 3.098 1.729 4.786 1.729 2.154 0 4.292-.923 5.775-2.71 2.645-3.188 2.206-7.916-.982-10.561l-7.412-6.151c-3.188-2.645-7.916-2.206-10.561.982-2.645 3.186-2.206 7.914.982 10.56z"/><circle cx="325.371" cy="292.91" r="7.5"/><circle cx="264.981" cy="300.74" r="7.5"/><circle cx="298.921" cy="345.79" r="7.5"/></g></svg>