<svg id="Capa_1" enable-background="new 0 0 512 512" height="512" viewBox="0 0 512 512" width="512" xmlns="http://www.w3.org/2000/svg"><g><path d="m464.419 72.146h-25.389c-16.014 0-32.05 3.785-46.373 10.947l-26.893 13.446c-4.696 2.348-9.656 4.171-14.753 5.454-1.255-9.186-4.274-18.068-8.922-26.103-2.074-3.586-6.664-4.811-10.248-2.736-3.585 2.074-4.811 6.662-2.737 10.248 3.69 6.379 6.082 13.439 7.063 20.743-.966.039-1.933.066-2.899.066h-154.538c-.963 0-1.925-.027-2.887-.066 3.711-27.659 27.45-49.063 56.109-49.063h48.097c9.603 0 19.086 2.445 27.425 7.071 3.623 2.01 8.187.702 10.197-2.92 2.009-3.622.702-8.187-2.92-10.197-10.56-5.857-22.559-8.954-34.702-8.954h-48.097c-36.2 0-66.195 26.999-70.952 61.915-5.101-1.283-10.065-3.107-14.764-5.457l-26.893-13.446c-14.323-7.162-30.359-10.947-46.373-10.947h-25.389c-26.236-.001-47.581 21.343-47.581 47.579s21.345 47.581 47.581 47.581h9.671c4.233 13.786 19.851 24.048 38.426 24.048s34.192-10.262 38.426-24.048h26.22v16.548c0 32.904 16.635 63.094 44.499 80.758 7.272 4.61 11.614 12.389 11.614 20.806v162.969c0 12.976 10.557 23.532 23.532 23.532h32.064c12.976 0 23.532-10.556 23.532-23.532v-162.97c0-8.417 4.342-16.195 11.614-20.806 27.864-17.664 44.499-47.854 44.499-80.758v-16.548h26.22c4.233 13.786 19.851 24.048 38.426 24.048s34.193-10.262 38.426-24.048h9.671c26.236 0 47.581-21.345 47.581-47.581-.002-26.235-21.347-47.579-47.583-47.579zm-368.742 104.208c-13.315 0-24.564-7.578-24.564-16.548 0-8.971 11.249-16.549 24.564-16.549s24.564 7.578 24.564 16.549c.001 8.97-11.248 16.548-24.564 16.548zm38.426-24.047c-4.233-13.786-19.851-24.049-38.426-24.049s-34.192 10.263-38.426 24.049h-9.671c-17.964 0-32.58-14.616-32.58-32.581s14.616-32.58 32.581-32.58h25.389c13.698 0 27.414 3.237 39.665 9.363l26.893 13.446c6.582 3.291 13.594 5.731 20.796 7.28v35.071h-26.221zm78.75 99.636c-23.5-14.897-37.53-40.351-37.53-68.089v-64.721c1.135.045 2.271.076 3.407.076h5.12.005c13.545 0 24.564 11.02 24.564 24.564v8.016c0 4.143 3.358 7.5 7.5 7.5s7.5-3.357 7.5-7.5v-8.016c0-9.279-3.223-17.812-8.594-24.564h82.36c-5.374 6.753-8.605 15.282-8.605 24.564v40.08c0 13.57-7.871 25.565-19.585 29.85-4.65 1.701-9.001 3.979-12.995 6.8-3.994-2.821-8.345-5.099-12.995-6.8-11.715-4.285-19.585-16.28-19.585-29.85 0-4.142-3.358-7.5-7.5-7.5s-7.5 3.358-7.5 7.5c0 19.842 11.828 37.499 29.433 43.938 3.855 1.41 7.42 3.368 10.647 5.823v111.078h-17.064v-59.275c0-13.583-6.947-26.096-18.583-33.474zm59.179 204.976h-32.064c-4.705 0-8.532-3.828-8.532-8.532v-88.694h49.129v88.694c-.001 4.705-3.828 8.532-8.533 8.532zm64.645-273.065c0 27.738-14.03 53.191-37.53 68.089-11.636 7.377-18.583 19.891-18.583 33.474v59.275h-17.064v-111.077c3.227-2.455 6.793-4.414 10.647-5.823 17.605-6.439 29.433-24.096 29.433-43.938v-40.08c0-13.545 11.02-24.564 24.564-24.564h.005 5.12c1.136 0 2.272-.031 3.407-.076v64.72zm79.646-7.5c-13.315 0-24.564-7.578-24.564-16.548 0-8.971 11.249-16.549 24.564-16.549s24.564 7.578 24.564 16.549c0 8.97-11.249 16.548-24.564 16.548zm48.096-24.047h-9.671c-4.233-13.786-19.851-24.049-38.426-24.049s-34.193 10.263-38.426 24.049h-26.22v-35.071c7.202-1.549 14.214-3.989 20.796-7.28l26.893-13.446c12.251-6.126 25.967-9.363 39.665-9.363h25.389c17.965 0 32.581 14.615 32.581 32.58 0 17.964-14.616 32.58-32.581 32.58z"/></g></svg>