<svg id="Capa_1" enable-background="new 0 0 512 512" height="512" viewBox="0 0 512 512" width="512" xmlns="http://www.w3.org/2000/svg"><g><path d="m320.122 240.484c-74.857 0-135.758 60.901-135.758 135.758s60.901 135.758 135.758 135.758 135.758-60.901 135.758-135.758-60.901-135.758-135.758-135.758zm0 256.516c-66.586 0-120.758-54.172-120.758-120.758s54.172-120.758 120.758-120.758 120.758 54.172 120.758 120.758-54.172 120.758-120.758 120.758z"/><path d="m145.99 219.154c5.133 2.057 11.101 4.265 22.006 4.265 11.419 0 17.43-2.417 22.733-4.55 4.625-1.86 8.621-3.466 17.136-3.466 8.523 0 12.522 1.607 17.152 3.467 5.306 2.132 11.32 4.549 22.745 4.549 10.94 0 16.916-2.215 22.063-4.276l2.313 4.048c2.055 3.596 6.637 4.846 10.233 2.791s4.846-6.636 2.791-10.233l-30.226-52.894c-4.881-8.542-7.461-18.257-7.461-28.096v-88.927c9.308-3.139 16.032-11.946 16.032-22.3-.001-12.975-10.557-23.532-23.533-23.532h-64.129c-12.976 0-23.532 10.557-23.532 23.532 0 10.354 6.724 19.161 16.033 22.3v88.928c0 9.838-2.58 19.554-7.461 28.096l-100.8 176.4c-5.319 9.309-5.283 20.403.099 29.676 5.381 9.273 14.995 14.809 25.716 14.809h73.901c4.142 0 7.5-3.358 7.5-7.5s-3.358-7.5-7.5-7.5h-73.902c-5.312 0-10.076-2.743-12.742-7.338-2.667-4.595-2.685-10.092-.049-14.705zm29.855-204.154h64.129c4.705 0 8.532 3.828 8.532 8.532s-3.828 8.532-8.532 8.532h-64.129c-4.705 0-8.532-3.828-8.532-8.532s3.827-8.532 8.532-8.532zm-1.938 155.298c6.174-10.805 9.438-23.094 9.438-35.539v-87.695h49.129v87.695c0 12.445 3.263 24.734 9.438 35.539l20.389 35.68c-3.705 1.388-7.639 2.441-14.539 2.441-8.523 0-12.522-1.607-17.152-3.467-5.306-2.132-11.32-4.549-22.745-4.549-11.419 0-17.43 2.417-22.733 4.55-4.625 1.86-8.621 3.466-17.136 3.466-6.869 0-10.793-1.048-14.483-2.431z"/><path d="m376.235 312.629c-4.142 0-7.5 3.358-7.5 7.5v70.943c0 5.952-4.536 8.293-5.926 8.869-1.391.576-6.254 2.127-10.462-2.081l-47.719-47.719c-5.395-5.395-13.435-6.994-20.483-4.074-7.049 2.919-11.603 9.735-11.603 17.365v30.592c-9.308 3.139-16.032 11.946-16.032 22.3v16.032c0 12.976 10.557 23.532 23.532 23.532s23.532-10.557 23.532-23.532v-16.032c0-10.354-6.724-19.16-16.032-22.3v-30.592c0-2.289 1.639-3.215 2.343-3.507.705-.292 2.518-.795 4.137.823l47.719 47.719c7.206 7.232 17.594 9.177 26.809 5.333 9.367-3.88 15.186-12.588 15.186-22.727v-70.943c-.001-4.143-3.359-7.501-7.501-7.501zm-87.662 119.726c0 4.705-3.828 8.532-8.532 8.532s-8.532-3.828-8.532-8.532v-16.032c0-4.705 3.828-8.532 8.532-8.532s8.532 3.828 8.532 8.532z"/></g></svg>