<svg id="Capa_1" enable-background="new 0 0 512 512" height="512" viewBox="0 0 512 512" width="512" xmlns="http://www.w3.org/2000/svg"><g><path d="m320.122 240.484c-74.857 0-135.758 60.901-135.758 135.758s60.901 135.758 135.758 135.758 135.758-60.901 135.758-135.758-60.901-135.758-135.758-135.758zm0 256.516c-66.586 0-120.758-54.172-120.758-120.758s54.172-120.758 120.758-120.758 120.758 54.172 120.758 120.758-54.172 120.758-120.758 120.758z"/><path d="m145.99 219.154c5.133 2.057 11.101 4.265 22.006 4.265 11.419 0 17.43-2.417 22.733-4.55 4.625-1.86 8.621-3.466 17.136-3.466 8.523 0 12.522 1.607 17.152 3.467 5.306 2.132 11.32 4.549 22.745 4.549 10.94 0 16.916-2.215 22.063-4.276l2.313 4.048c2.055 3.596 6.636 4.846 10.233 2.791 3.596-2.055 4.846-6.636 2.791-10.233l-30.226-52.894c-4.881-8.542-7.461-18.257-7.461-28.096v-88.927c9.308-3.139 16.032-11.946 16.032-22.3-.001-12.975-10.557-23.532-23.533-23.532h-64.129c-12.976 0-23.532 10.557-23.532 23.532 0 10.354 6.724 19.161 16.033 22.3v88.928c0 9.838-2.58 19.554-7.461 28.096l-100.8 176.4c-5.319 9.309-5.283 20.403.099 29.676 5.381 9.273 14.995 14.809 25.716 14.809h73.901c4.142 0 7.5-3.358 7.5-7.5s-3.358-7.5-7.5-7.5h-73.902c-5.312 0-10.076-2.743-12.742-7.338-2.667-4.595-2.685-10.092-.049-14.705zm29.855-204.154h64.129c4.705 0 8.532 3.828 8.532 8.532s-3.828 8.532-8.532 8.532h-64.129c-4.705 0-8.532-3.828-8.532-8.532s3.827-8.532 8.532-8.532zm-1.938 155.298c6.174-10.805 9.438-23.094 9.438-35.539v-87.695h49.129v87.695c0 12.445 3.263 24.734 9.438 35.539l20.389 35.68c-3.705 1.388-7.639 2.441-14.539 2.441-8.523 0-12.522-1.607-17.152-3.467-5.306-2.132-11.32-4.549-22.745-4.549-11.419 0-17.43 2.417-22.733 4.55-4.625 1.86-8.621 3.466-17.136 3.466-6.869 0-10.793-1.048-14.483-2.431z"/><path d="m401.19 360.946c-1.428-1.939-3.047-4.137-3.414-5.51-.41-1.532-.117-4.231.167-6.84.526-4.846 1.182-10.876-1.897-16.198-3.116-5.386-8.71-7.837-13.205-9.808-2.368-1.038-4.817-2.111-5.885-3.18-1.068-1.068-2.141-3.517-3.179-5.885-1.97-4.495-4.422-10.089-9.808-13.206-5.321-3.079-11.351-2.423-16.198-1.898-2.609.284-5.309.576-6.841.167-1.373-.367-3.57-1.985-5.51-3.414-3.99-2.938-8.955-6.594-15.297-6.594-6.341 0-11.307 3.656-15.296 6.594-1.939 1.428-4.137 3.047-5.51 3.414-1.531.41-4.23.117-6.84-.167-4.846-.527-10.876-1.183-16.198 1.897-5.386 3.116-7.837 8.71-9.808 13.205-1.038 2.368-2.111 4.817-3.18 5.885-1.068 1.068-3.517 2.141-5.885 3.179-4.495 1.97-10.089 4.422-13.206 9.808-3.079 5.322-2.424 11.353-1.898 16.198.284 2.61.577 5.309.167 6.841-.367 1.373-1.985 3.57-3.414 5.51-2.938 3.99-6.594 8.955-6.594 15.297s3.656 11.307 6.594 15.296c1.428 1.939 3.047 4.137 3.414 5.51.41 1.532.117 4.23-.167 6.84-.526 4.846-1.182 10.876 1.897 16.198 3.116 5.386 8.709 7.837 13.204 9.808 2.368 1.038 4.817 2.111 5.885 3.18 1.068 1.068 2.142 3.517 3.18 5.885 1.97 4.495 4.422 10.089 9.808 13.206 5.322 3.079 11.352 2.424 16.198 1.898 2.61-.284 5.309-.577 6.841-.167 1.373.367 3.571 1.985 5.51 3.414 3.99 2.938 8.955 6.594 15.297 6.594s11.307-3.656 15.296-6.594c1.939-1.428 4.137-3.047 5.51-3.414 1.532-.409 4.23-.116 6.84.167 4.845.527 10.875 1.182 16.198-1.897 5.386-3.116 7.837-8.71 9.808-13.205 1.038-2.368 2.111-4.817 3.18-5.885 1.068-1.068 3.517-2.141 5.885-3.179 4.495-1.97 10.089-4.422 13.206-9.808 3.079-5.322 2.424-11.353 1.898-16.198-.284-2.61-.577-5.309-.167-6.841.367-1.373 1.985-3.57 3.414-5.51 2.938-3.99 6.594-8.955 6.594-15.297-.001-6.342-3.657-11.307-6.594-15.296zm-12.08 21.699c-2.216 3.009-4.728 6.42-5.826 10.531-1.133 4.24-.667 8.541-.254 12.334.275 2.53.651 5.995.031 7.066-.655 1.132-3.885 2.548-6.244 3.582-3.471 1.521-7.404 3.245-10.47 6.311s-4.79 7-6.311 10.47c-1.034 2.358-2.45 5.587-3.582 6.243-1.072.62-4.537.244-7.066-.031-3.794-.412-8.094-.879-12.334.254-4.111 1.099-7.521 3.61-10.531 5.826-2.222 1.636-4.987 3.672-6.402 3.672s-4.18-2.037-6.402-3.673c-3.009-2.216-6.42-4.728-10.531-5.826-1.979-.529-3.971-.709-5.919-.709-2.225 0-4.393.235-6.416.455-2.53.275-5.994.651-7.067.031-1.132-.655-2.548-3.885-3.582-6.244-1.521-3.471-3.245-7.405-6.311-10.47-3.066-3.066-7-4.79-10.47-6.312-2.358-1.034-5.588-2.449-6.243-3.581-.62-1.072-.244-4.536.031-7.066.412-3.794.879-8.095-.254-12.334-1.099-4.111-3.61-7.521-5.826-10.531-1.636-2.222-3.672-4.987-3.672-6.402s2.037-4.18 3.673-6.402c2.216-3.009 4.728-6.42 5.826-10.531 1.133-4.24.667-8.541.254-12.334-.275-2.53-.651-5.995-.031-7.067.655-1.132 3.885-2.548 6.244-3.582 3.471-1.521 7.404-3.245 10.47-6.311s4.79-7 6.312-10.47c1.033-2.358 2.449-5.587 3.581-6.243 1.072-.62 4.537-.243 7.066.031 3.794.412 8.095.879 12.334-.254 4.111-1.099 7.522-3.61 10.531-5.826 2.222-1.636 4.987-3.672 6.401-3.672 1.415 0 4.181 2.037 6.403 3.673 3.009 2.216 6.42 4.728 10.531 5.826 4.241 1.133 8.541.667 12.334.254 2.53-.275 5.994-.651 7.067-.031 1.132.655 2.548 3.885 3.582 6.244 1.521 3.471 3.245 7.404 6.311 10.47s7 4.79 10.47 6.311c2.358 1.034 5.587 2.45 6.243 3.582.62 1.072.244 4.536-.031 7.066-.412 3.794-.879 8.094.254 12.334 1.099 4.111 3.61 7.522 5.826 10.531 1.636 2.222 3.672 4.987 3.672 6.401.001 1.416-2.035 4.181-3.672 6.404z"/><path d="m304.089 368.742c-12.976 0-23.532 10.557-23.532 23.533s10.557 23.532 23.532 23.532 23.532-10.557 23.532-23.532c.001-12.977-10.556-23.533-23.532-23.533zm0 32.065c-4.705 0-8.532-3.828-8.532-8.532 0-4.705 3.828-8.533 8.532-8.533s8.532 3.828 8.532 8.533c.001 4.704-3.827 8.532-8.532 8.532z"/><path d="m320.122 328.661c-12.579 0-24.439 4.862-33.398 13.691-2.95 2.908-2.985 7.656-.077 10.606 2.907 2.95 7.656 2.984 10.606.077 6.134-6.045 14.256-9.375 22.869-9.375 17.965 0 32.581 14.616 32.581 32.581 0 7.117-2.252 13.876-6.512 19.547-2.488 3.312-1.82 8.013 1.492 10.501 1.35 1.014 2.931 1.504 4.499 1.504 2.278 0 4.529-1.034 6.002-2.996 6.228-8.29 9.519-18.164 9.519-28.557 0-26.234-21.345-47.579-47.581-47.579z"/></g></svg>