<svg id="Capa_1" enable-background="new 0 0 512 512" height="512" viewBox="0 0 512 512" width="512" xmlns="http://www.w3.org/2000/svg"><g><path d="m271.065 329.637c24.455-24.455 24.455-64.247 0-88.703-24.456-24.455-64.248-24.456-88.703 0s-24.455 64.248 0 88.703c12.229 12.229 28.287 18.341 44.351 18.341 16.061.001 32.126-6.115 44.352-18.341zm-78.096-78.096c9.305-9.304 21.522-13.955 33.745-13.955 12.219 0 24.442 4.653 33.745 13.955 18.606 18.607 18.606 48.883 0 67.49-18.606 18.606-48.882 18.607-67.49 0-18.606-18.607-18.606-48.883 0-67.49z"/><path d="m504.5 248.5h-56.789c-.295-7.638-1.032-15.163-2.199-22.549l24.228-4.82c4.062-.808 6.701-4.757 5.893-8.819-.809-4.062-4.756-6.702-8.819-5.893l-24.227 4.819c-1.776-7.401-3.974-14.639-6.582-21.681l52.45-21.725c3.827-1.585 5.644-5.973 4.059-9.799s-5.973-5.644-9.799-4.059l-52.474 21.735c-3.184-6.882-6.76-13.545-10.707-19.959l20.593-13.76c3.444-2.301 4.37-6.958 2.069-10.403s-6.958-4.371-10.403-2.069l-20.615 13.774c-4.451-6.111-9.252-11.95-14.376-17.488l40.218-40.218c2.929-2.929 2.929-7.678 0-10.606-2.929-2.929-7.678-2.929-10.606 0l-40.218 40.218c-5.538-5.124-11.377-9.925-17.488-14.376l13.774-20.615c2.301-3.444 1.375-8.102-2.069-10.403-3.445-2.302-8.102-1.375-10.403 2.069l-13.76 20.593c-6.414-3.946-13.077-7.523-19.959-10.707l21.735-52.474c1.585-3.827-.232-8.214-4.059-9.799-3.826-1.585-8.214.232-9.799 4.059l-21.725 52.45c-7.042-2.608-14.28-4.807-21.681-6.582l4.819-24.227c.808-4.062-1.83-8.011-5.893-8.819-4.068-.81-8.011 1.831-8.819 5.893l-4.82 24.228c-7.386-1.167-14.911-1.904-22.549-2.199v-56.789c0-4.142-3.358-7.5-7.5-7.5s-7.5 3.358-7.5 7.5v56.789c-7.638.295-15.163 1.032-22.549 2.199l-4.82-24.228c-.808-4.062-4.758-6.703-8.819-5.893-4.062.808-6.701 4.757-5.893 8.819l4.819 24.227c-7.401 1.775-14.639 3.974-21.681 6.582l-21.725-52.45c-1.585-3.827-5.973-5.643-9.799-4.059-3.827 1.585-5.644 5.973-4.059 9.799l21.735 52.474c-6.882 3.184-13.545 6.76-19.959 10.707l-13.76-20.593c-2.301-3.444-6.958-4.371-10.403-2.069-3.444 2.301-4.37 6.958-2.069 10.403l13.774 20.615c-6.111 4.451-11.95 9.252-17.488 14.376l-40.217-40.217c-2.929-2.929-7.678-2.929-10.606 0-2.929 2.929-2.929 7.678 0 10.606l40.218 40.218c-5.124 5.538-9.925 11.377-14.376 17.488l-20.615-13.774c-3.444-2.302-8.102-1.375-10.403 2.069s-1.375 8.102 2.069 10.403l20.593 13.76c-3.946 6.414-7.523 13.077-10.707 19.959l-52.474-21.735c-3.828-1.585-8.214.232-9.799 4.059s.232 8.214 4.059 9.799l52.45 21.725c-2.608 7.042-4.807 14.28-6.582 21.681l-24.227-4.819c-4.065-.809-8.011 1.831-8.819 5.893s1.83 8.011 5.893 8.819l24.228 4.82c-1.167 7.386-1.904 14.911-2.199 22.549h-56.79c-4.142 0-7.5 3.358-7.5 7.5s3.358 7.5 7.5 7.5h56.789c.295 7.638 1.032 15.163 2.199 22.549l-24.228 4.82c-4.062.808-6.701 4.757-5.893 8.819.71 3.569 3.843 6.038 7.348 6.038.485 0 .978-.047 1.471-.146l24.227-4.819c1.775 7.401 3.974 14.639 6.582 21.681l-52.45 21.725c-3.827 1.585-5.644 5.973-4.059 9.799 1.196 2.888 3.989 4.632 6.932 4.632.957 0 1.929-.184 2.867-.573l52.474-21.735c3.184 6.882 6.76 13.545 10.707 19.959l-20.593 13.76c-3.444 2.301-4.37 6.958-2.069 10.403 1.446 2.164 3.822 3.334 6.243 3.334 1.432 0 2.88-.41 4.16-1.265l20.615-13.774c4.451 6.111 9.252 11.95 14.376 17.488l-40.218 40.218c-2.929 2.929-2.929 7.678 0 10.606 1.464 1.464 3.384 2.197 5.303 2.197s3.839-.732 5.303-2.197l40.218-40.218c5.538 5.124 11.377 9.925 17.488 14.376l-13.774 20.615c-2.301 3.444-1.375 8.102 2.069 10.403 1.28.855 2.728 1.265 4.16 1.265 2.421 0 4.797-1.17 6.243-3.334l13.76-20.593c6.414 3.946 13.077 7.523 19.959 10.707l-21.735 52.474c-1.585 3.827.232 8.214 4.059 9.799.938.389 1.911.573 2.867.573 2.943 0 5.736-1.744 6.932-4.632l21.725-52.45c7.042 2.608 14.28 4.807 21.681 6.582l-4.819 24.227c-.808 4.062 1.83 8.011 5.893 8.819.494.098.986.146 1.471.146 3.505 0 6.638-2.47 7.348-6.038l4.82-24.228c7.386 1.167 14.911 1.904 22.549 2.199v56.788c0 4.142 3.358 7.5 7.5 7.5s7.5-3.358 7.5-7.5v-56.789c7.638-.295 15.163-1.032 22.549-2.199l4.819 24.228c.71 3.569 3.843 6.038 7.348 6.038.485 0 .978-.047 1.471-.146 4.062-.808 6.701-4.757 5.893-8.819l-4.819-24.227c7.401-1.775 14.639-3.974 21.681-6.582l21.725 52.45c1.196 2.888 3.989 4.632 6.932 4.632.957 0 1.929-.184 2.867-.573 3.827-1.585 5.644-5.973 4.059-9.799l-21.735-52.474c6.882-3.184 13.545-6.76 19.959-10.707l13.76 20.593c1.446 2.164 3.822 3.334 6.243 3.334 1.432 0 2.88-.41 4.16-1.265 3.444-2.301 4.37-6.958 2.069-10.403l-13.774-20.615c6.111-4.451 11.95-9.252 17.488-14.376l40.218 40.218c1.464 1.464 3.384 2.197 5.303 2.197s3.839-.732 5.303-2.197c2.929-2.929 2.929-7.678 0-10.606l-40.218-40.218c5.124-5.538 9.925-11.377 14.376-17.488l20.615 13.774c1.28.855 2.728 1.265 4.16 1.265 2.421 0 4.797-1.17 6.243-3.334 2.301-3.444 1.375-8.102-2.069-10.403l-20.593-13.76c3.946-6.414 7.523-13.077 10.707-19.959l52.474 21.735c.939.389 1.911.573 2.867.573 2.943 0 5.736-1.744 6.932-4.632 1.585-3.827-.232-8.214-4.059-9.799l-52.45-21.725c2.608-7.042 4.807-14.28 6.582-21.681l24.227 4.819c.494.098.986.146 1.471.146 3.505 0 6.638-2.47 7.348-6.038.808-4.062-1.83-8.011-5.893-8.819l-24.228-4.82c1.167-7.386 1.904-14.911 2.199-22.549h56.79c4.142 0 7.5-3.358 7.5-7.5s-3.358-7.5-7.5-7.5zm-248.5 184.371c-97.527 0-176.871-79.344-176.871-176.871s79.344-176.871 176.871-176.871 176.871 79.344 176.871 176.871-79.344 176.871-176.871 176.871z"/><path d="m256 96.193c-36.424 0-72.095 12.637-100.44 35.583-3.22 2.606-3.717 7.329-1.111 10.548s7.33 3.716 10.548 1.111c26.056-21.093 57.524-32.242 91.002-32.242 6.776 0 13.44.479 19.971 1.384 6.307 30.133 21.081 57.592 42.936 79.619 22.155 22.33 49.949 37.428 80.516 43.829.905 6.532 1.384 13.198 1.384 19.975 0 33.478-11.149 64.946-32.242 91.002-2.606 3.219-2.109 7.942 1.111 10.548 1.389 1.124 3.057 1.671 4.714 1.671 2.185 0 4.352-.951 5.834-2.782 22.946-28.345 35.583-64.015 35.583-100.439.001-88.118-71.688-159.807-159.806-159.807zm73.555 85.438c-18.284-18.429-31.105-41.044-37.463-65.884 50.895 13.105 91.049 53.254 104.158 104.148-25.223-6.459-48.139-19.561-66.695-38.264z"/><path d="m347.002 368.564c-26.057 21.093-57.525 32.242-91.002 32.242-79.847 0-144.807-64.96-144.807-144.807 0-33.479 11.149-64.946 32.242-91.002 2.606-3.219 2.109-7.942-1.111-10.548-3.219-2.605-7.941-2.109-10.548 1.111-22.946 28.345-35.583 64.016-35.583 100.44 0 88.118 71.689 159.807 159.807 159.807 36.423 0 72.094-12.637 100.44-35.583 3.22-2.606 3.717-7.329 1.111-10.548-2.607-3.22-7.33-3.718-10.549-1.112z"/></g></svg>