<svg id="Capa_1" enable-background="new 0 0 512 512" height="512" viewBox="0 0 512 512" width="512" xmlns="http://www.w3.org/2000/svg"><g><path d="m256 0c-74.857 0-135.758 60.901-135.758 135.758v240.484c0 74.857 60.901 135.758 135.758 135.758s135.758-60.901 135.758-135.758v-240.484c0-74.857-60.901-135.758-135.758-135.758zm0 223.419c43.637 0 85.08-12.716 120.758-36.898v150.003c-86.408-3.188-159.039-61.196-184.069-140.195 15.969 16.684 38.447 27.09 63.311 27.09zm0 273.581c-63.604 0-115.876-49.429-120.431-111.891 49.276 49.119 112.081 82.656 180.036 96.125-17.597 10.028-37.943 15.766-59.605 15.766zm77.133-27.918c-75.823-11.54-145.889-49.07-197.891-105.994v-139.544c4.865 13.842 10.873 27.279 18.004 40.132 1.37 2.469 3.928 3.862 6.565 3.862 1.231 0 2.479-.304 3.632-.943 3.622-2.01 4.929-6.575 2.919-10.197-20.359-36.691-31.121-78.408-31.121-120.639.001-66.587 54.173-120.759 120.759-120.759s120.758 54.172 120.758 120.758v32.339c-18.474 13.927-38.806 24.375-60.365 31.143 16.789-15.979 27.269-38.529 27.269-63.481 0-17.238-5.032-33.948-14.551-48.325-2.287-3.454-6.94-4.399-10.394-2.113s-4.399 6.94-2.113 10.394c7.889 11.914 12.058 25.76 12.058 40.044 0 40.065-32.596 72.661-72.662 72.661-40.065 0-72.661-32.596-72.661-72.661 0-40.066 32.596-72.662 72.661-72.662 14.285 0 28.131 4.169 40.042 12.058 3.453 2.287 8.107 1.342 10.394-2.112s1.342-8.107-2.112-10.394c-14.375-9.52-31.085-14.552-48.325-14.552-48.336 0-87.661 39.325-87.661 87.662 0 57.674 22.459 111.896 63.241 152.678 39.009 39.009 90.317 61.238 145.178 63.099v24.708c0 2.82-.105 5.615-.296 8.387-38.043-1.158-74.334-10.658-107.912-28.312-33.113-17.408-62.397-42.551-84.686-72.71-2.462-3.331-7.158-4.036-10.489-1.574s-4.036 7.158-1.574 10.489c23.625 31.967 54.667 58.618 89.77 77.072 35.167 18.489 73.133 28.548 112.918 29.979-5.451 27.728-20.419 52.084-41.355 69.507z"/><path d="m256 144.291c-12.976 0-23.532 10.557-23.532 23.532s10.557 23.532 23.532 23.532 23.532-10.557 23.532-23.532-10.557-23.532-23.532-23.532zm0 32.064c-4.705 0-8.532-3.828-8.532-8.532s3.828-8.532 8.532-8.532 8.532 3.828 8.532 8.532-3.828 8.532-8.532 8.532z"/><path d="m233.753 123.925c1.449 2.145 3.813 3.302 6.221 3.302 1.444 0 2.905-.417 4.192-1.287 3.432-2.319 4.334-6.981 2.015-10.414-4.789-7.086-13.105-11.317-22.247-11.317-9.141 0-17.458 4.23-22.246 11.316-2.319 3.432-1.417 8.094 2.014 10.414 3.433 2.32 8.095 1.417 10.414-2.014 1.966-2.909 5.728-4.716 9.818-4.716 4.092 0 7.854 1.807 9.819 4.716z"/><path d="m288.065 104.209c-9.142 0-17.458 4.23-22.247 11.316-2.319 3.432-1.417 8.094 2.014 10.414 3.433 2.32 8.095 1.417 10.414-2.014 1.966-2.909 5.728-4.716 9.819-4.716 4.09 0 7.853 1.807 9.818 4.716 1.449 2.145 3.813 3.301 6.221 3.301 1.445 0 2.905-.417 4.193-1.287 3.432-2.319 4.333-6.981 2.014-10.414-4.789-7.085-13.105-11.316-22.246-11.316z"/></g></svg>