<svg id="Capa_1" enable-background="new 0 0 512 512" height="512" viewBox="0 0 512 512" width="512" xmlns="http://www.w3.org/2000/svg"><g><path d="m319.613 159.807c0-88.118-71.689-159.807-159.806-159.807-88.118 0-159.807 71.689-159.807 159.807 0 88.117 71.689 159.806 159.807 159.806 88.117 0 159.806-71.689 159.806-159.806zm-15 0c0 39.756-16.108 75.819-42.136 102.013-19.032 17.931-42.916 17.649-59.403 11.093-17.291-6.875-35.767-24.322-35.767-52.668v-120.877c0-28.346 18.476-45.792 35.767-52.668 6.319-2.513 13.725-4.106 21.528-4.106 12.538 0 26.1 4.125 37.825 15.148 26.057 26.199 42.186 62.282 42.186 102.065zm-85.503-132.098c-7.208.56-14.466 2.225-21.58 5.053-17.028 6.771-30.109 18.926-37.724 34.186-7.615-15.26-20.695-27.414-37.724-34.185-7.114-2.829-14.372-4.494-21.58-5.053 18.111-8.163 38.186-12.71 59.305-12.71s41.194 4.547 59.303 12.709zm-161.924 30.033c11.727-11.024 25.286-15.148 37.826-15.148 7.802 0 15.21 1.594 21.529 4.106 17.291 6.876 35.766 24.322 35.766 52.668v120.876c0 28.346-18.476 45.792-35.766 52.668-16.49 6.556-40.372 6.838-59.403-11.092-26.029-26.193-42.138-62.256-42.138-102.013 0-39.783 16.128-75.867 42.186-102.065zm43.295 234.153c7.215-.558 14.481-2.212 21.602-5.044 17.028-6.771 30.109-18.926 37.724-34.185 7.615 15.26 20.695 27.414 37.724 34.186 7.122 2.832 14.386 4.485 21.601 5.043-18.115 8.168-38.198 12.718-59.325 12.718s-41.211-4.55-59.326-12.718z"/><path d="m352.193 192.387c-12.976 0-23.532 10.557-23.532 23.532s10.557 23.532 23.532 23.532 23.532-10.557 23.532-23.532c0-2.355-.352-4.629-.999-6.776 15.349 2.409 29.908 7.232 43.269 14.077l-28.479 49.328h-74.646l-2.413-4.18c-2.071-3.588-6.658-4.817-10.245-2.745-3.587 2.071-4.816 6.658-2.745 10.245l2.413 4.18-37.323 64.645h-56.894c.093-1.423.206-2.901.334-4.471.338-4.128-2.734-7.749-6.863-8.087-4.13-.333-7.749 2.734-8.087 6.863-.396 4.838-.66 8.933-.66 13.195 0 88.118 71.689 159.807 159.806 159.807 88.118 0 159.807-71.689 159.807-159.807 0-88.117-71.689-159.806-159.807-159.806zm8.533 23.532c0 4.705-3.828 8.532-8.532 8.532s-8.532-3.828-8.532-8.532 3.828-8.532 8.532-8.532 8.532 3.828 8.532 8.532zm107.006 49.086c-10.729 2.186-18.828 11.694-18.828 23.059 0 12.976 10.557 23.532 23.532 23.532 6.461 0 12.316-2.622 16.571-6.852 4.39 12.621 7.087 26.026 7.801 39.949h-56.978l-37.323-64.645 28.463-49.3c14.15 9.211 26.598 20.823 36.762 34.257zm-152.861 22.543h74.646l37.323 64.645-37.323 64.646h-74.646l-37.323-64.646zm28.79 200.92c0-4.705 3.828-8.532 8.532-8.532s8.532 3.828 8.532 8.532-3.827 8.532-8.532 8.532-8.532-3.828-8.532-8.532zm8.532-23.532c-12.976 0-23.532 10.557-23.532 23.532 0 2.356.354 4.629 1.001 6.776-15.35-2.408-29.91-7.233-43.271-14.078l28.479-49.328h74.646l28.479 49.328c-13.365 6.846-27.928 11.671-43.282 14.079.649-2.149 1.012-4.42 1.012-6.778.001-12.975-10.556-23.531-23.532-23.531zm-115.537-25.554c10.729-2.186 18.828-11.694 18.828-23.059 0-12.976-10.557-23.532-23.532-23.532-6.464 0-12.309 2.636-16.565 6.87-4.393-12.626-7.093-26.038-7.807-39.967h56.978l37.323 64.646-28.463 49.3c-14.151-9.211-26.599-20.824-36.762-34.258zm194.314 34.257-28.463-49.3 37.323-64.646h56.978c-.714 13.922-3.411 27.326-7.8 39.947-4.256-4.229-10.112-6.849-16.572-6.849-12.976 0-23.532 10.557-23.532 23.532 0 11.365 8.099 20.874 18.828 23.059-10.164 13.434-22.612 25.047-36.762 34.257zm-207.551-57.316c0-4.705 3.828-8.532 8.532-8.532s8.532 3.828 8.532 8.532-3.828 8.532-8.532 8.532-8.532-3.828-8.532-8.532zm240.484-128.259c0-4.705 3.828-8.532 8.532-8.532s8.532 3.828 8.532 8.532-3.828 8.532-8.532 8.532-8.532-3.827-8.532-8.532zm0 128.259c0-4.705 3.828-8.532 8.532-8.532s8.532 3.828 8.532 8.532-3.828 8.532-8.532 8.532-8.532-3.828-8.532-8.532z"/><path d="m352.193 375.726c12.976 0 23.532-10.557 23.532-23.532s-10.557-23.532-23.532-23.532-23.532 10.557-23.532 23.532 10.557 23.532 23.532 23.532zm0-32.065c4.705 0 8.532 3.828 8.532 8.532s-3.828 8.532-8.532 8.532-8.532-3.828-8.532-8.532 3.828-8.532 8.532-8.532z"/><path d="m223.936 128.258c-17.396 0-31.548 14.152-31.548 31.548s14.152 31.548 31.548 31.548 31.548-14.152 31.548-31.548-14.152-31.548-31.548-31.548zm0 48.097c-9.125 0-16.548-7.423-16.548-16.548s7.423-16.548 16.548-16.548 16.548 7.423 16.548 16.548-7.423 16.548-16.548 16.548z"/><path d="m95.677 191.355c17.396 0 31.548-14.152 31.548-31.548s-14.152-31.548-31.548-31.548-31.548 14.152-31.548 31.548 14.152 31.548 31.548 31.548zm0-48.097c9.125 0 16.548 7.423 16.548 16.548s-7.423 16.548-16.548 16.548-16.548-7.423-16.548-16.548 7.423-16.548 16.548-16.548z"/></g></svg>