<svg id="Capa_1" enable-background="new 0 0 512 512" height="512" viewBox="0 0 512 512" width="512" xmlns="http://www.w3.org/2000/svg"><g><path d="m472.436 80.161h-.516v-16.548c0-8.556-6.96-15.516-15.516-15.516h-16.032c-8.556 0-15.516 6.96-15.516 15.516v16.548h-49.129v-16.548c0-8.556-6.96-15.516-15.516-15.516h-16.032c-8.556 0-15.516 6.96-15.516 15.516v16.548h-49.129v-16.548c0-8.556-6.96-15.516-15.516-15.516h-16.032c-8.556 0-15.516 6.96-15.516 15.516v16.548h-49.129v-16.548c0-8.556-6.96-15.516-15.516-15.516h-16.032c-8.556 0-15.516 6.96-15.516 15.516v16.548h-49.132v-16.548c0-8.556-6.96-15.516-15.516-15.516h-16.032c-8.556 0-15.516 6.96-15.516 15.516v16.548h-.516c-21.816 0-39.565 17.749-39.565 39.565v304.613c0 21.816 17.749 39.564 39.564 39.564h432.871c21.816 0 39.564-17.749 39.564-39.564v-304.613c.001-21.816-17.748-39.565-39.563-39.565zm-32.581-16.548c0-.285.231-.516.516-.516h16.032c.285 0 .516.231.516.516v16.548h-17.064zm-96.194 0c0-.285.231-.516.516-.516h16.032c.285 0 .516.231.516.516v16.548h-17.064zm-96.193 0c0-.285.231-.516.516-.516h16.032c.285 0 .516.231.516.516v16.548h-17.064zm-96.194 0c0-.285.231-.516.516-.516h16.032c.285 0 .516.231.516.516v16.548h-17.064zm-96.193 0c0-.285.231-.516.516-.516h16.032c.285 0 .516.231.516.516v16.548h-17.064zm417.355 385.29h-432.872c-13.544 0-24.564-11.019-24.564-24.564v-281.081h32.581c4.142 0 7.5-3.358 7.5-7.5s-3.358-7.5-7.5-7.5h-32.581v-8.533c0-13.545 11.02-24.564 24.564-24.564h432.871c13.545 0 24.564 11.02 24.564 24.564v8.533h-417.354c-4.142 0-7.5 3.358-7.5 7.5s3.358 7.5 7.5 7.5h417.355v281.081c0 13.545-11.02 24.564-24.564 24.564z"/><path d="m300.613 247.287c-3.667 1.927-5.078 6.461-3.151 10.128 15.383 29.279 23.183 55.773 23.183 78.747 0 35.646-29 64.646-64.645 64.646s-64.645-29-64.645-64.646c0-35.425 18.928-73.406 34.807-99.029 11.54-18.622 23.198-33.601 29.841-41.689 5.524 6.722 14.514 18.208 24.034 32.624 2.283 3.457 6.937 4.408 10.391 2.125 3.457-2.282 4.408-6.935 2.125-10.391-16.042-24.293-30.376-40.294-30.979-40.963-1.422-1.581-3.449-2.483-5.575-2.483s-4.152.902-5.575 2.483c-.755.838-18.691 20.873-36.87 50.161-24.684 39.769-37.2 75.824-37.2 107.163 0 43.917 35.729 79.646 79.645 79.646s79.645-35.729 79.645-79.646c0-25.428-8.379-54.27-24.904-85.723-1.925-3.669-6.46-5.078-10.127-3.153z"/></g></svg>