<svg id="Capa_1" enable-background="new 0 0 512 512" height="512" viewBox="0 0 512 512" width="512" xmlns="http://www.w3.org/2000/svg"><g><path d="m488.468 56.113h-464.936c-12.975 0-23.532 10.556-23.532 23.532v352.71c0 12.976 10.557 23.532 23.532 23.532h464.936c12.976 0 23.532-10.557 23.532-23.532v-352.71c0-12.976-10.557-23.532-23.532-23.532zm8.532 376.242c0 4.705-3.828 8.532-8.532 8.532h-464.936c-4.705 0-8.532-3.828-8.532-8.532v-352.71c0-4.705 3.828-8.532 8.532-8.532h464.936c4.705 0 8.532 3.828 8.532 8.532z"/><path d="m302.254 119.474c-1.104-1.656-2.821-2.805-4.773-3.195s-3.979.013-5.633 1.119c-10.637 7.105-23.033 10.861-35.848 10.861s-25.211-3.756-35.848-10.861c-1.655-1.106-3.683-1.509-5.633-1.119-1.952.39-3.669 1.539-4.773 3.195l-142.293 213.44c-2.296 3.444-1.368 8.097 2.074 10.396 55.297 36.94 119.779 56.464 186.473 56.464s131.176-19.525 186.473-56.464c3.442-2.299 4.371-6.953 2.074-10.396zm-46.254 265.3c-61.21 0-120.465-17.211-171.862-49.847l9.452-14.177c22.95 14.526 47.683 25.883 73.605 33.786.729.222 1.465.328 2.189.328 3.213 0 6.186-2.082 7.171-5.315 1.208-3.962-1.024-8.153-4.987-9.361-24.522-7.477-47.926-18.209-69.655-31.925l53.964-80.946c11.228 6.88 23.149 12.595 35.515 17.016.834.298 1.687.44 2.524.44 3.08 0 5.966-1.911 7.062-4.977 1.395-3.9-.637-8.192-4.537-9.587-11.215-4.01-22.029-9.181-32.234-15.388l22.833-34.25c9.887 5.841 20.455 10.398 31.482 13.559.691.198 1.386.292 2.071.292 3.261 0 6.262-2.144 7.206-5.435 1.142-3.982-1.161-8.135-5.143-9.276-9.539-2.735-18.692-6.649-27.279-11.645l22.88-34.32c11.564 6.242 24.471 9.511 37.742 9.511s26.177-3.269 37.742-9.511l54.048 81.072c-6.599 4.013-13.462 7.594-20.517 10.705-2.195-11.145-7.357-21.093-15.363-29.098-8.987-8.987-20.935-13.937-33.645-13.937-12.709 0-24.658 4.95-33.645 13.937-10.073 10.073-14.977 23.98-13.743 37.864-1.819.266-3.622.722-5.372 1.422-5.835 2.335-10.413 6.802-12.889 12.58-1.598 3.731-2.183 7.717-1.78 11.644-3.738-1.541-7.811-2.381-12.038-2.382h-16.892c-.002 0-.004 0-.006 0-6.284 0-12.191 2.447-16.635 6.891-4.446 4.445-6.893 10.356-6.891 16.635-.004 6.286 2.443 12.197 6.89 16.645 4.444 4.444 10.349 6.891 16.624 6.891h.015l5.714.001 1.096 3.286c6.6 19.808 24.805 32.613 45.008 32.612 2.617 0 5.27-.215 7.933-.658 39.878-6.625 72.379-44.434 82.714-76.644 2.403-7.491 3.739-14.833 4.047-21.883 9.576-3.907 18.864-8.601 27.704-14.018l22.823 34.235c-13.277 8.262-27.373 15.187-41.992 20.604-3.884 1.439-5.866 5.755-4.427 9.639 1.121 3.025 3.986 4.896 7.034 4.896.865 0 1.746-.151 2.605-.469 15.71-5.822 30.852-13.282 45.101-22.188l22.824 34.237c-46.09 29.093-99.241 44.444-154.087 44.444-17.597 0-35.218-1.592-52.373-4.73-4.072-.746-7.982 1.953-8.728 6.027s1.953 7.982 6.027 8.728c18.044 3.302 36.573 4.976 55.073 4.976 57.816 0 113.848-16.219 162.412-46.958l9.451 14.176c-51.396 32.635-110.651 49.846-171.861 49.846zm-41.5-100.909 4.632 13.896c2.396 7.198 9.819 11.695 17.266 10.463 8.893-1.477 18.152-5.806 26.985-12.575l1.269.544c.964.413 1.965.608 2.951.608 2.91 0 5.678-1.704 6.897-4.547 1.632-3.808-.132-8.216-3.939-9.848l-39.683-17.006c-2.093-.895-3.711-2.552-4.557-4.666-.846-2.116-.817-4.437.082-6.536.898-2.094 2.558-3.714 4.673-4.561 2.116-.848 4.435-.818 6.53.081l39.678 17.005c3.807 1.631 8.216-.132 9.848-3.939 1.632-3.808-.132-8.216-3.939-9.848l-36.723-15.739c-2.425-10.852.832-22.242 8.756-30.166 6.154-6.154 14.336-9.543 23.038-9.543 8.703 0 16.884 3.389 23.038 9.543 12.189 12.189 15.391 30.997 8.782 51.599-8.979 27.985-36.875 60.778-70.889 66.429-15.897 2.639-31.144-6.568-36.252-21.901l-2.806-8.414c-1.021-3.061-3.886-5.126-7.113-5.127l-11.124-.002c-.002 0-.004 0-.005 0-2.274 0-4.413-.887-6.023-2.498-1.612-1.612-2.499-3.753-2.497-6.036-.001-2.278.886-4.419 2.497-6.031 1.611-1.611 3.751-2.498 6.031-2.498h.002 16.892c7.136.003 13.448 4.55 15.703 11.313zm14.883-2.786 17.538 7.516c-4.45 2.489-8.868 4.149-12.978 4.832-.163.032-.489-.132-.58-.405z"/></g></svg>