<svg id="Capa_1" enable-background="new 0 0 512 512" height="512" viewBox="0 0 512 512" width="512" xmlns="http://www.w3.org/2000/svg"><g><path d="m400.291 48.097h-32.065c-4.142 0-7.5 3.358-7.5 7.5s3.358 7.5 7.5 7.5h32.065c13.545 0 24.564 11.02 24.564 24.564v384.774c0 13.545-11.02 24.564-24.564 24.564h-288.582c-13.545 0-24.564-11.02-24.564-24.564v-384.774c0-13.545 11.02-24.564 24.564-24.564h32.065c4.142 0 7.5-3.358 7.5-7.5s-3.358-7.5-7.5-7.5h-32.065c-21.816 0-39.564 17.749-39.564 39.564v384.774c0 21.816 17.749 39.564 39.564 39.564h288.581c21.816 0 39.564-17.749 39.564-39.564v-384.774c.001-21.816-17.748-39.564-39.563-39.564z"/><path d="m111.709 80.161c-4.142 0-7.5 3.358-7.5 7.5v384.774c0 4.142 3.358 7.5 7.5 7.5h288.581c4.142 0 7.5-3.358 7.5-7.5v-384.774c0-4.142-3.358-7.5-7.5-7.5h-58.237c1.034-2.647 1.608-5.523 1.608-8.532v-16.032c0-12.976-10.557-23.532-23.532-23.532h-32.581v-.516c0-17.397-14.152-31.549-31.548-31.549s-31.548 14.152-31.548 31.548v.516h-32.581c-12.976 0-23.532 10.557-23.532 23.532v16.032c0 3.009.574 5.885 1.608 8.532h-58.238zm281.082 384.775h-273.582v-369.775h273.581v369.775zm-153.339-433.388c0-9.125 7.423-16.548 16.548-16.548s16.548 7.423 16.548 16.548v.516h-33.097v-.516zm-56.113 40.081v-16.032c0-4.705 3.828-8.532 8.532-8.532h128.258c4.705 0 8.532 3.828 8.532 8.532v16.032c0 4.705-3.828 8.532-8.532 8.532h-128.258c-4.704 0-8.532-3.828-8.532-8.532z"/><path d="m192.387 222.823v17.661h-16.548c-4.142 0-7.5 3.358-7.5 7.5s3.358 7.5 7.5 7.5h16.548v16.548c0 4.142 3.358 7.5 7.5 7.5s7.5-3.358 7.5-7.5v-16.548h16.548c4.142 0 7.5-3.358 7.5-7.5s-3.358-7.5-7.5-7.5h-16.548v-17.661c22.685-3.608 40.081-23.3 40.081-46.984 0-26.236-21.345-47.581-47.581-47.581s-47.581 21.345-47.581 47.581c.001 23.684 17.397 43.376 40.081 46.984zm7.5-79.565c17.965 0 32.581 14.616 32.581 32.581s-14.616 32.581-32.581 32.581-32.581-14.616-32.581-32.581 14.616-32.581 32.581-32.581z"/><path d="m264.532 151.791c0 4.142 3.358 7.5 7.5 7.5h64.129c4.142 0 7.5-3.358 7.5-7.5s-3.358-7.5-7.5-7.5h-64.129c-4.142 0-7.5 3.357-7.5 7.5z"/><path d="m264.532 183.855c0 4.142 3.358 7.5 7.5 7.5h80.161c4.142 0 7.5-3.358 7.5-7.5s-3.358-7.5-7.5-7.5h-80.161c-4.142 0-7.5 3.358-7.5 7.5z"/><path d="m352.193 240.484h-80.161c-4.142 0-7.5 3.358-7.5 7.5s3.358 7.5 7.5 7.5h80.161c4.142 0 7.5-3.358 7.5-7.5s-3.358-7.5-7.5-7.5z"/><path d="m352.193 296.597h-192.386c-4.142 0-7.5 3.358-7.5 7.5s3.358 7.5 7.5 7.5h192.387c4.142 0 7.5-3.358 7.5-7.5s-3.359-7.5-7.501-7.5z"/><path d="m175.839 344.693h-16.032c-4.142 0-7.5 3.358-7.5 7.5s3.358 7.5 7.5 7.5h16.032c4.142 0 7.5-3.358 7.5-7.5s-3.358-7.5-7.5-7.5z"/><path d="m175.839 408.823h-16.032c-4.142 0-7.5 3.358-7.5 7.5s3.358 7.5 7.5 7.5h16.032c4.142 0 7.5-3.358 7.5-7.5s-3.358-7.5-7.5-7.5z"/><path d="m175.839 376.758h-16.032c-4.142 0-7.5 3.358-7.5 7.5s3.358 7.5 7.5 7.5h16.032c4.142 0 7.5-3.358 7.5-7.5s-3.358-7.5-7.5-7.5z"/><path d="m352.193 344.693h-16.032c-4.142 0-7.5 3.358-7.5 7.5s3.358 7.5 7.5 7.5h16.032c4.142 0 7.5-3.358 7.5-7.5s-3.358-7.5-7.5-7.5z"/><path d="m352.193 408.823h-16.032c-4.142 0-7.5 3.358-7.5 7.5s3.358 7.5 7.5 7.5h16.032c4.142 0 7.5-3.358 7.5-7.5s-3.358-7.5-7.5-7.5z"/><path d="m352.193 376.758h-16.032c-4.142 0-7.5 3.358-7.5 7.5s3.358 7.5 7.5 7.5h16.032c4.142 0 7.5-3.358 7.5-7.5s-3.358-7.5-7.5-7.5z"/><path d="m207.903 359.693h56.113c4.142 0 7.5-3.358 7.5-7.5s-3.358-7.5-7.5-7.5h-56.113c-4.142 0-7.5 3.358-7.5 7.5s3.358 7.5 7.5 7.5z"/><path d="m264.016 408.823h-56.113c-4.142 0-7.5 3.358-7.5 7.5s3.358 7.5 7.5 7.5h56.113c4.142 0 7.5-3.358 7.5-7.5s-3.358-7.5-7.5-7.5z"/><path d="m304.097 376.758h-96.193c-4.142 0-7.5 3.358-7.5 7.5s3.358 7.5 7.5 7.5h96.193c4.142 0 7.5-3.358 7.5-7.5s-3.358-7.5-7.5-7.5z"/><path d="m272.032 223.419h8.016c4.142 0 7.5-3.358 7.5-7.5s-3.358-7.5-7.5-7.5h-8.016c-4.142 0-7.5 3.358-7.5 7.5s3.358 7.5 7.5 7.5z"/><path d="m320.129 223.419c4.142 0 7.5-3.358 7.5-7.5s-3.358-7.5-7.5-7.5h-8.016c-4.142 0-7.5 3.358-7.5 7.5s3.358 7.5 7.5 7.5z"/></g></svg>