<svg id="Capa_1" enable-background="new 0 0 511.997 511.997" height="512" viewBox="0 0 511.997 511.997" width="512" xmlns="http://www.w3.org/2000/svg"><g><path d="m163.914 195.365c.829 0 1.673-.139 2.499-.431 3.906-1.38 5.953-5.665 4.572-9.57-2.439-6.903-3.677-14.154-3.677-21.551 0-35.646 29-64.645 64.645-64.645 14.958 0 28.999 4.959 40.605 14.341 11.28 9.118 19.249 21.879 22.438 35.931.917 4.039 4.932 6.573 8.974 5.654 4.04-.917 6.571-4.934 5.654-8.974-3.931-17.325-13.746-33.049-27.637-44.277-14.101-11.398-31.87-17.675-50.035-17.675-43.917 0-79.645 35.729-79.645 79.645 0 9.104 1.525 18.037 4.534 26.549 1.09 3.08 3.983 5.003 7.073 5.003z"/><path d="m211.82 299.567c-8.624 5.625-17.851 10.88-27.426 15.618-6.494 3.215-14.274 4.648-25.229 4.648-.004 0-.005 0-.009 0-21.642 0-41.095-12.018-50.768-31.362l-14.122-28.249c-1.669-3.339-5.542-4.941-9.081-3.761l-58.948 19.654c-4.471 1.485-9.312-.935-10.798-5.395-1.487-4.462.935-9.305 5.398-10.793l58.959-19.655c11.513-3.847 24.296 1.448 29.731 12.315l14.122 28.252c1.852 3.705 6.357 5.207 10.062 3.355s5.207-6.357 3.355-10.062l-14.123-28.254c-8.755-17.506-29.346-26.032-47.896-19.835l-58.956 19.653c-12.307 4.106-18.983 17.458-14.884 29.763 4.097 12.302 17.445 18.984 29.767 14.887l52.783-17.599 11.213 22.43c12.23 24.461 36.822 39.655 64.183 39.655h.012c8.306 0 20.647-.643 31.882-6.205 10.103-5 19.849-10.55 28.967-16.498 3.469-2.263 4.447-6.91 2.184-10.379s-6.909-4.446-10.378-2.183z"/><path d="m231.953 212.426h-72.145c-12.976 0-23.533 10.557-23.533 23.532s10.557 23.532 23.533 23.532h56.113c4.142 0 7.5-3.358 7.5-7.5s-3.358-7.5-7.5-7.5h-56.113c-4.705 0-8.533-3.828-8.533-8.532s3.828-8.532 8.533-8.532h72.145c4.142 0 7.5-3.358 7.5-7.5s-3.358-7.5-7.5-7.5z"/><path d="m217.723 175.646c-1.965 2.909-5.728 4.715-9.818 4.715-4.091 0-7.853-1.807-9.818-4.715-2.318-3.432-6.98-4.334-10.413-2.016-3.432 2.319-4.334 6.981-2.016 10.413 4.788 7.086 13.104 11.317 22.247 11.317 9.142 0 17.458-4.23 22.247-11.317 2.319-3.432 1.417-8.094-2.015-10.414-3.433-2.317-8.095-1.415-10.414 2.017z"/><path d="m376.239 156.313c-74.857 0-135.758 60.901-135.758 135.758s60.901 135.758 135.758 135.758 135.758-60.901 135.758-135.758-60.901-135.758-135.758-135.758zm0 256.516c-66.586 0-120.758-54.172-120.758-120.758s54.172-120.758 120.758-120.758 120.758 54.172 120.758 120.758-54.172 120.758-120.758 120.758z"/><path d="m460.898 252.758c-2.929-2.929-7.678-2.929-10.606 0l-6.033 6.033-34.74-34.74 6.033-6.033c2.929-2.929 2.929-7.678 0-10.606-2.929-2.929-7.678-2.929-10.606 0l-24.618 24.618c-7.473 7.473-11.588 17.408-11.588 27.977v24.564h-24.564c-10.568 0-20.503 4.115-27.976 11.588l-24.618 24.618c-2.929 2.929-2.929 7.678 0 10.606 2.929 2.929 7.678 2.929 10.606 0l6.033-6.033 17.37 17.37c1.464 1.464 3.384 2.197 5.303 2.197s3.839-.732 5.303-2.197c2.929-2.929 2.929-7.678 0-10.606l-17.37-17.37 7.979-7.979c1.396-1.395 2.931-2.598 4.573-3.604l33.771 33.771c-1.005 1.641-2.208 3.177-3.604 4.573l-24.618 24.618c-2.929 2.929-2.929 7.678 0 10.606 1.464 1.464 3.384 2.197 5.303 2.197s3.839-.732 5.303-2.197l24.618-24.618c7.473-7.473 11.588-17.408 11.588-27.976v-24.564h24.565c10.568 0 20.503-4.115 27.976-11.588l24.618-24.618c2.928-2.929 2.928-7.678-.001-10.607zm-61.986-18.099 34.74 34.74-7.979 7.979c-1.396 1.396-2.931 2.598-4.573 3.604l-33.771-33.771c1.005-1.641 2.208-3.177 3.604-4.573zm-30.173 84.652-19.739-19.74h19.739zm15-54.48 19.74 19.74h-19.74z"/></g></svg>