<svg id="Capa_1" enable-background="new 0 0 512 512" height="512" viewBox="0 0 512 512" width="512" xmlns="http://www.w3.org/2000/svg"><g><path d="m362.5 24.048c-39.909 0-78.274 16.457-106.5 45.419-28.226-28.963-66.591-45.419-106.5-45.419-27.563 0-54.5 7.564-77.898 21.874-3.534 2.162-4.646 6.778-2.485 10.312 2.162 3.534 6.778 4.646 10.312 2.485 21.04-12.869 45.271-19.671 70.071-19.671 38.311 0 75.071 16.916 100.854 46.409 1.424 1.629 3.482 2.564 5.646 2.564s4.223-.935 5.646-2.564c25.783-29.493 62.542-46.409 100.854-46.409 74.164 0 134.5 60.336 134.5 134.5 0 39.009-12.648 78.949-37.593 118.711-20.188 32.177-48.406 64.296-83.873 95.464-52.5 46.136-105.674 76.584-119.534 84.204-13.86-7.62-67.034-38.068-119.534-84.204-35.466-31.168-63.685-63.286-83.873-95.464-24.945-39.762-37.593-79.702-37.593-118.711 0-35.791 13.899-69.476 39.137-94.849 2.921-2.937 2.909-7.686-.028-10.606-2.937-2.921-7.686-2.91-10.606.028-28.054 28.204-43.503 65.645-43.503 105.427 0 41.92 13.45 84.59 39.977 126.826 20.998 33.431 50.209 66.681 86.825 98.825 62.088 54.505 125.105 87.577 125.734 87.905 1.085.565 2.274.848 3.464.848s2.378-.283 3.464-.848c.629-.328 63.646-33.399 125.734-87.905 36.615-32.144 65.827-65.394 86.825-98.825 26.527-42.235 39.977-84.905 39.977-126.826 0-82.434-67.065-149.5-149.5-149.5z"/><path d="m351.677 215.919c0-26.254-10.421-50.74-29.343-68.949-18.913-18.2-43.803-27.668-70.099-26.656-23.108.888-45.23 10.376-62.289 26.716-17.073 16.353-27.483 38.048-29.313 61.09-3.737 47.044 26.81 89.162 71.835 100.489v20.051h-16.548c-8.556 0-15.516 6.96-15.516 15.516v16.032c0 8.556 6.96 15.516 15.516 15.516h16.548v16.549c0 8.556 6.96 15.516 15.516 15.516h16.032c8.556 0 15.516-6.96 15.516-15.516v-16.549h16.548c8.556 0 15.516-6.96 15.516-15.516v-16.032c0-8.556-6.96-15.516-15.516-15.516h-16.548v-20.053c42.163-10.636 72.145-48.659 72.145-92.688zm-79.645 127.742h24.048c.285 0 .516.231.516.516v16.032c0 .285-.231.516-.516.516h-24.048c-4.142 0-7.5 3.358-7.5 7.5v24.049c0 .285-.231.516-.516.516h-16.032c-.285 0-.516-.231-.516-.516v-24.049c0-4.142-3.358-7.5-7.5-7.5h-24.048c-.285 0-.516-.231-.516-.516v-16.032c0-.285.231-.516.516-.516h24.048c4.142 0 7.5-3.358 7.5-7.5v-33.591c0-3.619-2.584-6.722-6.143-7.376-40.771-7.501-69.032-44.424-65.739-85.886 3.174-39.956 37.095-72.463 77.225-74.005 22.17-.861 43.174 7.129 59.122 22.475 15.957 15.355 24.744 36.003 24.744 58.141 0 38.899-27.758 72.239-66.002 79.275-3.559.654-6.143 3.757-6.143 7.376v33.591c0 4.142 3.358 7.5 7.5 7.5z"/><path d="m319.613 215.919c0-10.562-2.646-21.028-7.652-30.267-1.974-3.642-6.524-4.995-10.167-3.021-3.642 1.974-4.994 6.526-3.021 10.167 3.821 7.051 5.841 15.046 5.841 23.12 0 26.805-21.808 48.613-48.613 48.613s-48.613-21.808-48.613-48.613 21.808-48.613 48.613-48.613c8.074 0 16.069 2.02 23.121 5.84 3.641 1.974 8.194.621 10.167-3.021s.621-8.194-3.021-10.167c-9.239-5.006-19.705-7.652-30.266-7.652-35.076 0-63.613 28.537-63.613 63.613s28.537 63.613 63.613 63.613 63.611-28.535 63.611-63.612z"/></g></svg>