<svg id="Capa_1" enable-background="new 0 0 511.997 511.997" height="512" viewBox="0 0 511.997 511.997" width="512" xmlns="http://www.w3.org/2000/svg"><g><path d="m488.465 48.095h-56.113c-12.976 0-23.532 10.557-23.532 23.532 0 12.746 10.186 23.158 22.845 23.522l-25.697 25.697c-22.94-16.152-49.708-24.655-77.826-24.655-37.529 0-71.549 15.31-96.147 40.009-27.144-27.319-64.292-41.764-103.147-39.837-32.549 1.615-63.594 15.213-87.417 38.289-23.838 23.09-38.394 53.689-40.988 86.159-5.63 70.47 43.052 132.781 111.78 144.749v19.212h-16.549c-8.556 0-15.516 6.96-15.516 15.516v16.032c0 8.556 6.96 15.516 15.516 15.516h16.548v16.548c0 8.556 6.96 15.516 15.516 15.516h16.032c8.556 0 15.516-6.96 15.516-15.516v-16.548h16.549c8.556 0 15.516-6.96 15.516-15.516v-16.032c0-8.556-6.96-15.516-15.516-15.516h-16.549v-19.214c28.286-4.945 53.363-18.571 72.599-37.89 25.383 25.497 60.193 40.039 96.256 40.039 74.857 0 135.758-60.901 135.758-135.758 0-28.117-8.503-54.885-24.655-77.826l25.697-25.697c.365 12.66 10.776 22.846 23.522 22.846 12.976 0 23.532-10.557 23.532-23.533v-56.112c.002-12.975-10.555-23.532-23.53-23.532zm-337.608 303.564c-3.753.469-6.57 3.66-6.57 7.442v33.172c0 4.142 3.358 7.5 7.5 7.5h24.049c.285 0 .516.231.516.516v16.032c0 .285-.231.516-.516.516h-24.049c-4.142 0-7.5 3.358-7.5 7.5v24.048c0 .285-.231.516-.516.516h-16.032c-.285 0-.516-.231-.516-.516v-24.048c0-4.142-3.358-7.5-7.5-7.5h-24.049c-.285 0-.516-.231-.516-.516v-16.032c0-.285.231-.516.516-.516h24.048c4.142 0 7.5-3.358 7.5-7.5v-33.173c0-3.782-2.816-6.973-6.57-7.442-64.19-8.023-110.425-64.973-105.258-129.652 2.304-28.832 15.256-56.028 36.472-76.579 21.208-20.543 48.812-32.647 77.725-34.082 34.878-1.727 68.198 11.364 92.398 36.079-3.619 4.535-6.959 9.302-9.983 14.283-19.513-21.111-47.279-33.451-76.253-33.451-57.177 0-103.693 46.517-103.693 103.694s46.517 103.693 103.693 103.693 103.694-46.517 103.694-103.693c0-48.906 39.788-88.694 88.693-88.694s88.694 39.788 88.694 88.694-39.788 88.693-88.694 88.693c-26.957 0-51.834-11.873-68.769-32.685 7.807-17.147 12.14-36.136 12.14-56.009 0-4.142-3.358-7.5-7.5-7.5s-7.5 3.358-7.5 7.5c.002 60.718-45.42 112.181-105.654 119.71zm346.14-223.919c0 4.705-3.828 8.533-8.532 8.533s-8.532-3.828-8.532-8.533v-17.41c0-3.033-1.827-5.768-4.63-6.929-2.801-1.16-6.028-.52-8.173 1.626l-43.06 43.059c-2.674 2.674-2.939 6.92-.619 9.906 16.649 21.421 25.449 46.996 25.449 73.958 0 66.586-54.172 120.758-120.758 120.758-32.379 0-63.628-13.174-86.259-36.252 3.617-4.535 6.948-9.301 9.967-14.273 19.601 21.376 46.886 33.46 76.292 33.46 57.177 0 103.694-46.517 103.694-103.693s-46.517-103.694-103.694-103.694-103.693 46.517-103.693 103.694c0 48.906-39.788 88.693-88.694 88.693s-88.693-39.788-88.693-88.693 39.788-88.694 88.693-88.694c26.992 0 51.815 11.854 68.744 32.655-7.777 17.092-12.114 36.068-12.114 56.039 0 4.142 3.358 7.5 7.5 7.5s7.5-3.358 7.5-7.5c0-66.586 54.172-120.758 120.758-120.758 26.962 0 52.537 8.8 73.958 25.449 2.986 2.321 7.233 2.056 9.906-.619l43.059-43.06c2.145-2.145 2.787-5.371 1.626-8.173-1.161-2.803-3.896-4.63-6.929-4.63h-17.41c-4.705 0-8.532-3.828-8.532-8.532s3.828-8.532 8.532-8.532h56.113c4.705 0 8.532 3.828 8.532 8.532v56.113z"/></g></svg>