<svg id="Capa_1" enable-background="new 0 0 512 512" height="512" viewBox="0 0 512 512" width="512" xmlns="http://www.w3.org/2000/svg"><g><path d="m104.209 344.177v8.016c0 4.142 3.358 7.5 7.5 7.5s7.5-3.358 7.5-7.5v-8.016c0-4.142-3.358-7.5-7.5-7.5s-7.5 3.358-7.5 7.5z"/><path d="m187.357 319.613c4.142 0 7.5-3.358 7.5-7.5s-3.358-7.5-7.5-7.5h-36.083v-16.548c0-.285.231-.516.516-.516h56.113c4.142 0 7.5-3.358 7.5-7.5s-3.358-7.5-7.5-7.5h-56.113c-8.556 0-15.516 6.96-15.516 15.516v16.548h-24.565c-2.93 0-5.782.33-8.532.937v-81.614c0-17.965 14.616-32.581 32.581-32.581h16.548v16.548c0 8.556 6.96 15.516 15.516 15.516h8.532v16.548c0 8.556 6.96 15.516 15.516 15.516h16.032c8.556 0 15.516-6.96 15.516-15.516v-16.548h8.532c8.556 0 15.516-6.96 15.516-15.516v-16.032c0-8.556-6.96-15.516-15.516-15.516h-16.548v-72.662c0-5.836-3.242-10.925-8.016-13.574v-44.997c4.774-2.649 8.016-7.738 8.016-13.574v-16.032c.001-8.556-6.959-15.516-15.515-15.516h-32.064c-8.556 0-15.516 6.96-15.516 15.516v16.032c0 5.836 3.242 10.925 8.016 13.574v44.998c-2.549 1.414-4.659 3.524-6.074 6.074h-18.491c-52.757 0-95.678 42.921-95.678 95.678v128.258c0 19.251 13.824 35.327 32.064 38.842v73.384c0 8.556 6.96 15.516 15.516 15.516h99.043c4.142 0 7.5-3.358 7.5-7.5s-3.358-7.5-7.5-7.5h-99.042c-.285 0-.516-.231-.516-.516v-16.548h88.694c4.142 0 7.5-3.358 7.5-7.5s-3.358-7.5-7.5-7.5h-88.694v-56.629c0-13.545 11.02-24.564 24.564-24.564s24.565 11.02 24.565 24.564v16.032c0 12.976 10.557 23.532 23.532 23.532h16.032c4.142 0 7.5-3.358 7.5-7.5s-3.358-7.5-7.5-7.5h-16.032c-4.705 0-8.532-3.828-8.532-8.532v-16.032c0-9.276-3.218-17.811-8.584-24.564h44.667zm-68.148-159.806c0-9.125 7.424-16.548 16.549-16.548s16.548 7.423 16.548 16.548-7.423 16.548-16.548 16.548-16.549-7.423-16.549-16.548zm89.21 80.161c0 .285-.231.516-.516.516h-16.032c-.285 0-.516-.231-.516-.516v-16.548h17.064zm24.049-48.097v16.032c0 .285-.231.516-.516.516h-64.129c-.285 0-.516-.231-.516-.516v-16.548h64.645c.284 0 .516.231.516.516zm-65.161-15.516v-72.662c0-.285.231-.516.516-.516h32.064c.285 0 .516.231.516.516v72.662zm25.08-129.291v41.113h-17.064v-41.113zm-25.08-31.548c0-.285.231-.516.516-.516h32.064c.285 0 .516.231.516.516v16.032c0 .285-.231.516-.516.516h-32.064c-.285 0-.516-.231-.516-.516zm-95.145 328.008c-9.896-3.173-17.081-12.459-17.081-23.395v-128.258c0-44.486 36.192-80.678 80.678-80.678h16.548v21.768c-4.814-2.979-10.483-4.703-16.548-4.703-17.396 0-31.549 14.152-31.549 31.548 0 8.636 3.491 16.471 9.133 22.174-14.963 8.027-25.165 23.82-25.165 41.955v88.459c-9.557 7.094-15.808 18.39-16.016 31.13z"/><path d="m336.161 240.484c-74.857 0-135.758 60.901-135.758 135.758s60.901 135.758 135.758 135.758 135.758-60.901 135.758-135.758-60.9-135.758-135.758-135.758zm0 256.516c-66.586 0-120.758-54.172-120.758-120.758s54.172-120.758 120.758-120.758 120.758 54.172 120.758 120.758-54.171 120.758-120.758 120.758z"/><path d="m362.026 351.171c-14.404-14.404-31.51-24.7-46.932-28.249-6.421-1.477-13.036-.365-18.623 3.132-5.586 3.497-9.477 8.96-10.955 15.384-3.043 13.241 5.258 26.507 18.513 29.574 4.826 1.111 13.773 5.72 23.104 15.051s13.939 18.278 15.051 23.106c1.042 4.518 3.319 8.632 6.586 11.899h.001c4.706 4.706 10.942 7.247 17.404 7.247 1.854 0 3.727-.209 5.585-.637 6.422-1.478 11.884-5.368 15.381-10.955 3.498-5.587 4.61-12.201 3.132-18.622-3.546-15.419-13.842-32.526-28.247-46.93zm12.403 57.596c-1.371 2.191-3.513 3.716-6.028 4.295-3.271.752-6.643-.219-9.021-2.599 0 0 0 0-.001 0-1.276-1.276-2.167-2.888-2.576-4.66-2.113-9.179-9.239-20.523-19.062-30.345-9.823-9.823-21.167-16.949-30.337-19.061-5.2-1.203-8.46-6.407-7.268-11.597.579-2.518 2.104-4.659 4.295-6.031 2.194-1.376 4.804-1.805 7.3-1.228 12.754 2.935 27.22 11.769 39.689 24.237 12.468 12.468 21.302 26.935 24.237 39.69.579 2.516.143 5.109-1.228 7.299z"/><path d="m283.646 399.421c-.035 0-.071 0-.107 0-4.136.107-9.187-2.706-12.847-7.042-3.661-4.337-5.541-9.772-4.788-13.847.752-4.074-1.94-7.985-6.014-8.737-4.076-.754-7.985 1.94-8.737 6.014-1.582 8.569 1.438 18.381 8.077 26.247 6.554 7.763 15.57 12.367 24.182 12.367.112 0 .225 0 .337-.002 4.142-.058 7.452-3.463 7.395-7.604-.058-4.107-3.404-7.396-7.498-7.396z"/><path d="m404.785 367.417c-.743 4.075 1.958 7.981 6.033 8.724.455.083.908.123 1.354.123 3.553 0 6.709-2.536 7.37-6.156 1.563-8.573-1.478-18.378-8.135-26.229-6.657-7.85-15.801-12.448-24.546-12.311-4.142.067-7.445 3.479-7.377 7.621.067 4.142 3.493 7.406 7.621 7.377 4.162-.108 9.192 2.686 12.863 7.014 3.669 4.33 5.56 9.761 4.817 13.837z"/><path d="m311.512 402.821c-3.442 2.304-4.365 6.962-2.061 10.404 2.305 3.444 2.733 9.179 1.089 14.61-1.644 5.433-5.179 9.969-9.005 11.557-3.826 1.587-5.641 5.976-4.053 9.801 1.197 2.886 3.989 4.628 6.93 4.628.958 0 1.932-.185 2.871-.575 8.049-3.339 14.633-11.215 17.615-21.067 2.98-9.852 1.866-20.057-2.982-27.298-2.304-3.442-6.964-4.366-10.404-2.06z"/><path d="m339.821 298.319c3.276 2.538 5.495 7.844 5.653 13.518.114 4.069 3.448 7.291 7.493 7.291.071 0 .142-.001.213-.003 4.141-.116 7.403-3.566 7.288-7.707-.287-10.289-4.571-19.618-11.458-24.955-3.275-2.539-7.986-1.941-10.522 1.334-2.538 3.274-1.941 7.985 1.333 10.522z"/><path d="m367.506 446.364c-5.392 3.112-11.403 3.227-16.084.309-3.515-2.192-8.141-1.119-10.333 2.395-2.192 3.515-1.12 8.141 2.395 10.333 4.649 2.899 9.982 4.348 15.417 4.348 5.464 0 11.031-1.465 16.104-4.395 3.587-2.071 4.816-6.658 2.745-10.245-2.07-3.588-6.657-4.817-10.244-2.745z"/><path d="m297.454 308.005c1.145 0 2.306-.263 3.396-.817l8.955-4.558c3.691-1.879 5.161-6.395 3.282-10.086s-6.395-5.161-10.086-3.282l-8.955 4.558c-3.691 1.879-5.161 6.395-3.282 10.086 1.324 2.601 3.958 4.099 6.69 4.099z"/><path d="m418.107 403.769c-3.915-1.357-8.187.719-9.541 4.634l-3.917 11.316c-1.355 3.915.72 8.186 4.634 9.541.812.281 1.64.415 2.454.415 3.107 0 6.013-1.947 7.087-5.048l3.917-11.316c1.355-3.915-.72-8.187-4.634-9.542z"/><path d="m273.837 429.907h-.08c-4.142 0-7.46 3.358-7.46 7.5s3.398 7.5 7.54 7.5 7.5-3.358 7.5-7.5-3.358-7.5-7.5-7.5z"/><path d="m258.603 342.185c4.142 0 7.5-3.358 7.5-7.5s-3.358-7.5-7.5-7.5h-.08c-4.142 0-7.46 3.358-7.46 7.5s3.398 7.5 7.54 7.5z"/><path d="m390.19 312.152c4.142 0 7.5-3.358 7.5-7.5s-3.358-7.5-7.5-7.5h-.08c-4.142 0-7.46 3.358-7.46 7.5s3.398 7.5 7.54 7.5z"/></g></svg>