<svg id="Capa_1" enable-background="new 0 0 512 512" height="512" viewBox="0 0 512 512" width="512" xmlns="http://www.w3.org/2000/svg"><g><path d="m468.531 471.108-65.756-65.756c-2.931-2.931-6.827-4.545-10.972-4.545s-8.041 1.614-10.971 4.545l-.364.364-25.809-25.81c15.751-18.191 25.293-41.899 25.293-67.794 0-57.177-46.517-103.693-103.693-103.693s-103.693 46.517-103.693 103.693 46.517 103.694 103.693 103.694c25.895 0 49.603-9.542 67.794-25.293l25.809 25.809-.364.364c-6.05 6.05-6.05 15.893 0 21.943l66.474 66.474c4.442 4.448 10.352 6.897 16.642 6.897 6.888 0 13.412-3.01 17.9-8.259 7.922-9.264 7.051-23.598-1.983-32.633zm-280.966-158.995c0-48.906 39.788-88.693 88.693-88.693s88.693 39.788 88.693 88.693-39.788 88.694-88.693 88.694-88.693-39.788-88.693-88.694zm192.539 115.18 11.335-11.334c.038-.037.151-.151.364-.151.214 0 .328.114.365.151l13.077 13.077-12.064 12.064-13.077-13.077c-.201-.201-.201-.529 0-.73zm79.01 66.7c-1.658 1.939-3.967 3.007-6.5 3.007-2.28 0-4.421-.887-6.032-2.5l-42.794-42.794 12.064-12.064 42.073 42.073c3.474 3.474 4.007 8.982 1.189 12.278z"/><path d="m304.971 263.376c3.568 2.105 8.167.919 10.271-2.648 2.105-3.568.919-8.166-2.648-10.271-28.135-16.599-63.904-12.073-86.984 11.006s-27.605 58.849-11.006 86.984c1.399 2.371 3.899 3.69 6.467 3.69 1.295 0 2.607-.335 3.804-1.042 3.567-2.104 4.753-6.703 2.648-10.271-13.122-22.241-9.546-50.514 8.694-68.755 18.239-18.238 46.512-21.814 68.754-8.693z"/><path d="m337.914 275.779c-2.104-3.566-6.702-4.754-10.271-2.648-3.567 2.104-4.753 6.703-2.648 10.271 13.122 22.241 9.547 50.514-8.694 68.755s-46.514 21.816-68.755 8.694c-3.567-2.104-8.166-.92-10.271 2.648-2.105 3.567-.919 8.166 2.648 10.271 11.332 6.686 23.9 9.944 36.381 9.944 18.506 0 36.819-7.167 50.603-20.95 23.081-23.081 27.607-58.85 11.007-86.985z"/><path d="m155.799 296.597h-72.145c-9.125 0-16.548-7.423-16.548-16.548v-152.491c6.016.582 9.874 1.863 14.15 3.291 6.172 2.06 13.168 4.394 26.398 4.394 13.24 0 20.241-2.334 26.417-4.393 5.832-1.944 10.868-3.623 21.673-3.623 10.814 0 15.854 1.679 21.691 3.624 6.18 2.059 13.185 4.393 26.433 4.393s20.252-2.333 26.433-4.393c4.289-1.429 8.156-2.711 14.191-3.293v56.299c0 4.142 3.358 7.5 7.5 7.5s7.5-3.358 7.5-7.5v-120.76h.517c8.556 0 15.516-6.96 15.516-15.516v-32.065c0-8.556-6.96-15.516-15.516-15.516h-208.419c-8.556 0-15.516 6.96-15.516 15.516v32.064c0 8.556 6.96 15.516 15.516 15.516h.516v216.952c0 17.396 14.152 31.548 31.548 31.548h72.145c4.142 0 7.5-3.358 7.5-7.5s-3.358-7.499-7.5-7.499zm104.726-281.081v32.064c0 .285-.231.516-.516.516h-16.549v-33.096h16.549c.285 0 .516.231.516.516zm-49.129 32.581v-33.097h17.064v33.097zm-32.065 0v-33.097h17.064v33.097zm-32.064 0v-33.097h17.064v33.097zm-32.064 0v-33.097h17.064v33.097zm-32.065 0v-33.097h17.064v33.097zm-32.064-.516v-32.065c0-.285.231-.516.516-.516h16.548v33.097h-16.548c-.285 0-.516-.232-.516-.516zm193.419 15.516v49.414c-8.616.68-14.039 2.478-18.932 4.108-5.836 1.944-10.877 3.624-21.691 3.624s-15.855-1.679-21.691-3.624c-6.18-2.059-13.185-4.393-26.432-4.393-13.24 0-20.241 2.334-26.417 4.393-5.832 1.944-10.868 3.623-21.673 3.623-10.794 0-15.825-1.679-21.65-3.623-4.885-1.63-10.299-3.427-18.898-4.108v-49.414z"/></g></svg>