<svg id="Capa_1" enable-background="new 0 0 512 512" height="512" viewBox="0 0 512 512" width="512" xmlns="http://www.w3.org/2000/svg"><g><path d="m271.516 175.839v-16.548h26.667c4.109 9.408 15.804 16.032 29.962 16.032s25.853-6.624 29.962-16.032h2.102c21.816 0 39.565-17.749 39.565-39.565s-17.749-39.564-39.565-39.564h-16.925c-11.062 0-22.14 2.615-32.034 7.562l-21.016 10.507c-5.849 2.924-12.22 4.816-18.719 5.586v-8.139c0-21.816-17.749-39.564-39.564-39.564h-64.129c-21.816 0-39.564 17.749-39.564 39.564v8.139c-6.499-.769-12.871-2.661-18.719-5.585l-21.015-10.508c-9.894-4.947-20.971-7.562-32.034-7.562h-16.926c-4.142 0-7.5 3.358-7.5 7.5s3.358 7.5 7.5 7.5h16.926c8.746 0 17.503 2.067 25.325 5.979l21.016 10.508c7.922 3.961 16.603 6.422 25.427 7.248v25.395h-26.667c-4.109-9.408-15.804-16.032-29.962-16.032s-25.853 6.624-29.962 16.032h-2.102c-13.545-.001-24.565-11.021-24.565-24.566 0-4.32 1.135-8.565 3.282-12.276 2.074-3.585.85-8.173-2.736-10.248-3.584-2.075-8.173-.85-10.248 2.736-3.466 5.991-5.298 12.833-5.298 19.788 0 21.816 17.749 39.564 39.564 39.564h2.102c4.109 9.408 15.804 16.032 29.962 16.032s25.853-6.624 29.962-16.032h26.667v16.548c0 31.254 20.129 57.879 48.097 67.638v124.748c0 8.556 6.96 15.516 15.516 15.516h16.032c8.556 0 15.516-6.96 15.516-15.516v-124.747c27.969-9.759 48.098-36.384 48.098-67.638zm-199.887-15.516c-10.102 0-16.548-5.053-16.548-8.532s6.447-8.532 16.548-8.532 16.548 5.053 16.548 8.532-6.447 8.532-16.548 8.532zm184.887 15.516c0 28.681-21.438 52.434-49.129 56.117v-17.275c18.24-3.516 32.064-19.591 32.064-38.842v-16.032c0-4.142-3.358-7.5-7.5-7.5s-7.5 3.358-7.5 7.5v16.032c0 13.545-11.02 24.564-24.564 24.564s-24.564-11.02-24.564-24.564v-56.629h49.129v8.533c0 4.142 3.358 7.5 7.5 7.5s7.5-3.358 7.5-7.5v-8.533h17.064zm71.629-15.516c-10.102 0-16.548-5.053-16.548-8.532s6.447-8.532 16.548-8.532 16.548 5.053 16.548 8.532-6.446 8.532-16.548 8.532zm-31.202-48.676 21.016-10.508c7.822-3.911 16.579-5.979 25.325-5.979h16.925c13.545 0 24.565 11.02 24.565 24.565s-11.02 24.564-24.565 24.564h-2.102c-4.109-9.408-15.804-16.032-29.962-16.032s-25.853 6.624-29.962 16.032h-26.667v-25.395c8.824-.824 17.505-3.285 25.427-7.247zm-129.12-40.534h64.129c13.545 0 24.564 11.02 24.564 24.564v8.532h-113.258v-8.532c0-13.545 11.02-24.564 24.565-24.564zm-24.565 104.726v-56.629h17.064v56.629c0 19.251 13.824 35.327 32.064 38.842v17.275c-27.689-3.683-49.128-27.436-49.128-56.117zm65.161 192.387c0 .285-.231.516-.516.516h-16.032c-.285 0-.516-.231-.516-.516v-121.284c2.8.334 5.644.526 8.532.526s5.732-.192 8.532-.526z"/><path d="m322.842 373.529c1.464 1.465 3.384 2.197 5.303 2.197s3.839-.732 5.303-2.197l42.794-42.793 42.794 42.793c1.464 1.464 3.384 2.197 5.303 2.197s3.839-.732 5.303-2.197c2.929-2.929 2.929-7.678 0-10.606l-42.794-42.793 42.794-42.793c2.929-2.929 2.929-7.678 0-10.606-2.928-2.929-7.677-2.929-10.606 0l-42.794 42.793-42.794-42.793c-2.929-2.929-7.678-2.929-10.606 0-2.929 2.929-2.929 7.678 0 10.606l42.794 42.793-42.794 42.793c-2.929 2.928-2.929 7.677 0 10.606z"/><path d="m376.242 184.371c-30.326 0-59.083 9.891-83.161 28.604-3.271 2.542-3.861 7.253-1.319 10.524s7.254 3.861 10.524 1.319c21.421-16.648 46.995-25.448 73.956-25.448 66.586 0 120.758 54.172 120.758 120.758s-54.172 120.758-120.758 120.758-120.758-54.172-120.758-120.758c0-26.961 8.8-52.535 25.448-73.957 2.542-3.271 1.951-7.982-1.32-10.524-3.27-2.542-7.982-1.951-10.524 1.32-18.713 24.078-28.604 52.835-28.604 83.161 0 74.857 60.901 135.758 135.758 135.758s135.758-60.901 135.758-135.758c0-74.856-60.901-135.757-135.758-135.757z"/></g></svg>