<svg id="Capa_1" enable-background="new 0 0 512 512" height="512" viewBox="0 0 512 512" width="512" xmlns="http://www.w3.org/2000/svg"><g><path d="m362.5 24.048c-39.909 0-78.274 16.457-106.5 45.419-28.226-28.963-66.591-45.419-106.5-45.419-27.563 0-54.5 7.564-77.898 21.874-3.534 2.162-4.646 6.778-2.485 10.312 2.162 3.534 6.778 4.646 10.312 2.485 6.603-4.038 13.52-7.478 20.67-10.298 13.319 18.329 8.979 41.286 4.389 65.543-5.879 31.065-12.542 66.275 19.157 95.1 15.7 14.276 35.452 17.817 56.364 21.565 24.51 4.394 49.827 8.935 70.454 32.022-1.256 2.876-1.957 6.048-1.957 9.381 0 12.976 10.557 23.532 23.532 23.532h56.113c4.142 0 7.5-3.358 7.5-7.5s-3.358-7.5-7.5-7.5h-56.113c-4.705 0-8.532-3.828-8.532-8.532s3.828-8.532 8.532-8.532h72.145c4.142 0 7.5-3.358 7.5-7.5s-3.358-7.5-7.5-7.5h-72.145c-4.159 0-8.067 1.089-11.461 2.99-23.834-25.913-52.492-31.068-77.921-35.626-19.54-3.502-36.414-6.527-48.919-17.898-25.492-23.181-20.158-51.369-14.51-81.213 4.718-24.93 9.574-50.632-4.322-73.18 11.22-2.978 22.842-4.525 34.597-4.525 38.311 0 75.071 16.916 100.854 46.409 1.424 1.629 3.482 2.564 5.646 2.564s4.223-.935 5.646-2.564c25.783-29.493 62.542-46.409 100.854-46.409 74.164 0 134.5 60.336 134.5 134.5 0 39.009-12.648 78.949-37.593 118.711-20.188 32.177-48.406 64.296-83.873 95.464-52.5 46.136-105.674 76.584-119.534 84.204-13.86-7.62-67.034-38.068-119.534-84.204-35.468-31.168-63.687-63.286-83.875-95.464-24.945-39.762-37.593-79.702-37.593-118.711 0-35.791 13.899-69.476 39.137-94.849 2.921-2.937 2.909-7.686-.028-10.606-2.937-2.921-7.686-2.91-10.606.028-28.054 28.204-43.503 65.645-43.503 105.427 0 41.92 13.45 84.59 39.977 126.826 20.998 33.431 50.209 66.681 86.825 98.825 62.088 54.505 125.105 87.577 125.734 87.905 1.085.565 2.274.848 3.464.848s2.378-.283 3.464-.848c.629-.328 63.646-33.399 125.734-87.905 36.615-32.144 65.827-65.394 86.825-98.825 26.527-42.235 39.977-84.905 39.977-126.826 0-82.434-67.065-149.5-149.5-149.5z"/><path d="m133.066 296.002 58.959-19.655c11.512-3.847 24.296 1.448 29.731 12.315l14.123 28.252c1.852 3.705 6.356 5.206 10.062 3.355 3.705-1.852 5.207-6.357 3.355-10.062l-14.123-28.253c-8.755-17.506-29.347-26.032-47.896-19.835l-58.956 19.653c-12.307 4.106-18.984 17.458-14.884 29.763 4.097 12.302 17.448 18.983 29.767 14.887l52.783-17.599 11.213 22.429c12.231 24.462 36.823 39.656 64.183 39.655h.012c8.305 0 20.646-.643 31.882-6.205 75.156-37.195 120.147-98.462 120.508-164.02.028-.262.042-.527.042-.796 0-43.917-35.729-79.646-79.646-79.646s-79.645 35.729-79.645 79.646c0 9.105 1.526 18.038 4.535 26.55 1.38 3.904 5.663 5.95 9.571 4.571 3.905-1.381 5.952-5.666 4.571-9.571-2.44-6.902-3.677-14.152-3.677-21.55 0-35.646 29-64.646 64.645-64.646 35.4 0 64.245 28.604 64.642 63.912-.023.241-.036.486-.036.734 0 60.025-41.931 116.613-112.165 151.372-6.495 3.215-14.275 4.648-25.23 4.648-.004 0-.005 0-.01 0-21.641 0-41.094-12.018-50.767-31.363l-14.122-28.248c-1.669-3.339-5.542-4.941-9.081-3.761l-58.948 19.654c-4.463 1.485-9.312-.934-10.798-5.396-1.485-4.459.937-9.301 5.4-10.79z"/><path d="m329.951 211.721c-1.965 2.908-5.727 4.715-9.818 4.715s-7.853-1.807-9.818-4.715c-2.318-3.432-6.98-4.334-10.413-2.016-3.432 2.319-4.334 6.981-2.016 10.413 4.788 7.086 13.104 11.317 22.247 11.317s17.459-4.231 22.247-11.317c2.319-3.432 1.417-8.094-2.016-10.413-3.431-2.319-8.094-1.416-10.413 2.016z"/></g></svg>