<svg id="Capa_1" enable-background="new 0 0 512 512" height="512" viewBox="0 0 512 512" width="512" xmlns="http://www.w3.org/2000/svg"><g><path d="m247.984 497h-192.387c-13.545 0-24.564-11.02-24.564-24.564v-432.872c-.001-13.544 11.019-24.564 24.564-24.564h272.548c13.545 0 24.564 11.02 24.564 24.564v112.226c0 4.142 3.358 7.5 7.5 7.5s7.5-3.358 7.5-7.5v-112.226c0-21.815-17.748-39.564-39.564-39.564h-272.548c-21.816 0-39.565 17.749-39.565 39.564v432.871c0 21.816 17.749 39.564 39.564 39.564h192.387c4.142 0 7.5-3.358 7.5-7.5s-3.357-7.499-7.499-7.499z"/><path d="m480.452 208.419h-.516v-8.532c0-12.976-10.557-23.532-23.532-23.532h-160.323c-12.976 0-23.532 10.557-23.532 23.532v8.532h-.516c-8.556 0-15.516 6.96-15.516 15.516v32.065c0 8.556 6.96 15.516 15.516 15.516h.516v216.952c0 12.976 10.557 23.532 23.532 23.532h160.323c12.976 0 23.532-10.557 23.532-23.532v-216.952h.516c8.556 0 15.516-6.96 15.516-15.516v-32.064c0-8.556-6.961-15.517-15.516-15.517zm-192.904-8.532c0-4.705 3.828-8.532 8.532-8.532h160.323c4.705 0 8.532 3.828 8.532 8.532v8.532h-177.387zm144.291 56.629v-33.097h17.064v33.097zm-32.065 0v-33.097h17.064v33.097zm-32.065 0v-33.097h17.065v33.097zm-32.064 0v-33.097h17.064v33.097zm-32.064 0v-33.097h17.064v33.097zm-32.065-.516v-32.064c0-.285.231-.516.516-.516h16.548v33.097h-16.548c-.284-.001-.516-.232-.516-.517zm193.42 120.758h-40.597c-4.705 0-8.532-3.828-8.532-8.533s3.828-8.532 8.532-8.532h40.597zm0-32.065h-40.597c-12.976 0-23.532 10.557-23.532 23.532 0 12.976 10.557 23.533 23.532 23.533h40.597v17.064h-40.597c-4.142 0-7.5 3.358-7.5 7.5s3.358 7.5 7.5 7.5h40.597v25.081h-88.694c-4.705 0-8.532-3.828-8.532-8.532v-112.226c0-4.705 3.828-8.532 8.532-8.532h88.694zm0-40.08h-88.694c-12.976 0-23.532 10.557-23.532 23.532v112.226c0 12.976 10.557 23.532 23.532 23.532h88.694v24.564c0 4.705-3.828 8.532-8.532 8.532h-160.323c-4.705 0-8.532-3.828-8.532-8.532v-216.951h177.387zm16.032-48.613c0 .285-.231.516-.516.516h-16.548v-33.097h16.548c.285 0 .516.231.516.516z"/><path d="m184.371 55.597v400.807c0 4.142 3.358 7.5 7.5 7.5s7.5-3.358 7.5-7.5v-400.807c0-4.142-3.358-7.5-7.5-7.5s-7.5 3.358-7.5 7.5z"/><path d="m135.758 64.129h-48.097c-17.396 0-31.548 14.152-31.548 31.548s14.152 31.548 31.548 31.548h48.097c17.396 0 31.548-14.152 31.548-31.548s-14.152-31.548-31.548-31.548zm-64.645 31.548c0-9.125 7.423-16.548 16.548-16.548h16.548v33.097h-16.548c-9.125 0-16.548-7.424-16.548-16.549zm64.645 16.549h-16.549v-33.097h16.549c9.125 0 16.548 7.423 16.548 16.548s-7.423 16.549-16.548 16.549z"/><path d="m135.758 144.291h-48.097c-17.396 0-31.548 14.152-31.548 31.548s14.152 31.548 31.548 31.548h48.097c17.396 0 31.548-14.152 31.548-31.548s-14.152-31.548-31.548-31.548zm-64.645 31.548c0-9.125 7.423-16.548 16.548-16.548h16.548v33.097h-16.548c-9.125-.001-16.548-7.424-16.548-16.549zm64.645 16.548h-16.549v-33.097h16.549c9.125 0 16.548 7.423 16.548 16.548s-7.423 16.549-16.548 16.549z"/><path d="m135.758 224.452h-48.097c-17.396 0-31.548 14.152-31.548 31.548s14.152 31.548 31.548 31.548h48.097c17.396 0 31.548-14.152 31.548-31.548s-14.152-31.548-31.548-31.548zm-64.645 31.548c0-9.125 7.423-16.548 16.548-16.548h16.548v33.097h-16.548c-9.125-.001-16.548-7.424-16.548-16.549zm64.645 16.548h-16.549v-33.097h16.549c9.125 0 16.548 7.423 16.548 16.548s-7.423 16.549-16.548 16.549z"/><path d="m135.758 304.613h-48.097c-17.396 0-31.548 14.152-31.548 31.548s14.152 31.548 31.548 31.548h48.097c17.396 0 31.548-14.152 31.548-31.548s-14.152-31.548-31.548-31.548zm-64.645 31.548c0-9.125 7.423-16.548 16.548-16.548h16.548v33.097h-16.548c-9.125-.001-16.548-7.424-16.548-16.549zm64.645 16.548h-16.549v-33.097h16.549c9.125 0 16.548 7.423 16.548 16.548s-7.423 16.549-16.548 16.549z"/><path d="m135.758 384.774h-48.097c-17.396 0-31.548 14.152-31.548 31.548s14.152 31.548 31.548 31.548h48.097c17.396 0 31.548-14.152 31.548-31.548s-14.152-31.548-31.548-31.548zm-64.645 31.549c0-9.125 7.423-16.548 16.548-16.548h16.548v33.097h-16.548c-9.125-.001-16.548-7.424-16.548-16.549zm64.645 16.548h-16.549v-33.097h16.549c9.125 0 16.548 7.423 16.548 16.548s-7.423 16.549-16.548 16.549z"/><path d="m327.629 95.677c0-17.396-14.152-31.548-31.548-31.548h-48.097c-17.396 0-31.548 14.152-31.548 31.548s14.152 31.548 31.548 31.548h48.097c17.396.001 31.548-14.152 31.548-31.548zm-96.193 0c0-9.125 7.423-16.548 16.548-16.548h16.548v33.097h-16.548c-9.125 0-16.548-7.424-16.548-16.549zm64.645 16.549h-16.548v-33.097h16.548c9.125 0 16.548 7.423 16.548 16.548s-7.423 16.549-16.548 16.549z"/><path d="m247.984 159.291h48.097c4.142 0 7.5-3.358 7.5-7.5s-3.358-7.5-7.5-7.5h-48.097c-17.396 0-31.548 14.152-31.548 31.548 0 13.348 8.452 25.304 21.032 29.751.827.292 1.67.431 2.5.431 3.089 0 5.983-1.924 7.071-5.002 1.38-3.905-.667-8.19-4.572-9.571-6.598-2.333-11.031-8.605-11.031-15.608 0-9.126 7.423-16.549 16.548-16.549z"/><path d="m236.953 243.665c3.086-2.763 3.349-7.504.586-10.59-2.763-3.087-7.505-3.35-10.59-.586-6.681 5.98-10.513 14.55-10.513 23.512 0 13.349 8.452 25.305 21.032 29.751.827.292 1.67.431 2.5.431 3.089 0 5.983-1.924 7.071-5.002 1.38-3.905-.667-8.19-4.572-9.571-6.598-2.332-11.031-8.604-11.031-15.608 0-4.703 2.01-9.199 5.517-12.337z"/><path d="m247.984 319.613c4.142 0 7.5-3.358 7.5-7.5s-3.358-7.5-7.5-7.5c-17.396 0-31.548 14.152-31.548 31.548s14.152 31.548 31.548 31.548c4.142 0 7.5-3.358 7.5-7.5s-3.358-7.5-7.5-7.5c-9.125 0-16.548-7.423-16.548-16.548s7.423-16.548 16.548-16.548z"/><path d="m247.984 399.774c4.142 0 7.5-3.358 7.5-7.5s-3.358-7.5-7.5-7.5c-17.396 0-31.548 14.152-31.548 31.548s14.152 31.548 31.548 31.548c4.142 0 7.5-3.358 7.5-7.5s-3.358-7.5-7.5-7.5c-9.125 0-16.548-7.423-16.548-16.548s7.423-16.548 16.548-16.548z"/></g></svg>