<svg id="Capa_1" enable-background="new 0 0 512.003 512.003" height="512" viewBox="0 0 512.003 512.003" width="512" xmlns="http://www.w3.org/2000/svg"><g><path d="m382.153 280.842c-4.482-5.27-11.017-8.292-17.931-8.292h-1.062c-.161 0-.282-.071-.282-.049-23.141-55.901-57.073-94.182-89.889-131.203-35.75-40.332-69.519-78.428-85.927-135.857-1.138-3.983-5.291-6.291-9.272-5.151-3.982 1.138-6.289 5.289-5.151 9.272 17.345 60.707 52.211 100.042 89.125 141.687 21.517 24.275 43.522 49.114 62.376 79.07-3.33 4.056-6.323 8.338-8.977 12.803l-29.836-24.776c-3.187-2.646-7.915-2.208-10.562.979-2.646 3.187-2.208 7.915.979 10.562l32.559 27.037c-1.548 3.796-2.885 7.676-3.973 11.634l-67.796-20.995c-1.991-10.573-13.934-21.098-31.229-26.454-9.271-2.872-18.676-3.743-26.486-2.458-9.63 1.587-16.119 6.287-18.27 13.233-3.968 12.815 9.287 27.51 30.833 34.183 9.067 2.731 17.689 3.807 26.486 2.458 6.144-1.013 11-3.297 14.276-6.617l69.268 21.451c-.448 3.634-.703 7.303-.764 10.997l-72.641 6.73c-5.885-9.006-20.947-14.16-38.976-12.49-9.665.896-18.689 3.688-25.41 7.865-8.29 5.151-12.485 11.976-11.814 19.216.67 7.241 6.049 13.178 15.144 16.719 7.394 2.955 17.626 3.943 26.422 3.062 18.028-1.67 31.887-9.503 36.017-19.437l72.077-6.678c.491 3.798 1.211 7.553 2.115 11.26l-62.971 33.191c-8.884-6.069-24.772-5.065-40.789 3.376-3.665 1.931-5.069 6.468-3.138 10.132s6.468 5.069 10.132 3.138c14.258-7.516 24.687-5.847 25.709-3.906 1.022 1.94-3.494 11.486-17.752 19.002-6.472 3.411-13.364 5.436-18.911 5.555-4.418.086-6.493-1.069-6.798-1.648-1.931-3.664-6.466-5.069-10.132-3.138-3.664 1.931-5.069 6.467-3.138 10.132 3.292 6.247 10.216 9.66 19.551 9.66.277 0 .557-.003.838-.009 7.911-.17 16.997-2.756 25.583-7.282 16.017-8.442 25.823-20.983 25.837-31.741l60.638-31.961c3.557 8.765 8.323 17.04 14.177 24.574-31.914 42.823-74.931 65.181-126.538 65.181-17.262 0-31.984-8.27-43.757-24.581-9.188-12.73-13.07-25.785-13.163-26.101-1.141-3.978-5.29-6.281-9.27-5.144-3.982 1.138-6.289 5.289-5.151 9.272.178.624 4.486 15.445 15.137 30.355 12.911 18.075 29.633 28.597 48.704 30.769v65.074c0 4.142 3.358 7.5 7.5 7.5s7.5-3.358 7.5-7.5v-64.793c70.414-2.721 125.36-43.971 159.215-119.722.081-.18.254-.372.499-.372h.268c11.903 0 22.252-8.442 24.073-19.637 1.124-6.895-.802-13.87-5.282-19.137zm-160.344-29.988c-.193.625-2.007 2.149-6.38 2.87-5.474.9-12.621.178-19.609-1.986-15.397-4.769-21.59-13.323-20.941-15.417 5.115-5.247 18.452-3.194 25.989-.884 15.397 4.768 21.59 13.323 20.941 15.417zm-29.819 69.668c-7.283.676-14.426-.092-19.597-2.104-4.129-1.608-5.59-3.474-5.65-4.125-.061-.651 1.032-2.753 4.796-5.092 5.731-3.703 16.029-6.025 24.167-5.92 12.724 0 19.778 4.549 19.957 6.48.202 2.182-7.623 9.274-23.673 10.761zm180.642-22.951c-.642 3.95-4.713 7.044-9.267 7.044h-.268c-6.11 0-11.682 3.631-14.193 9.251-5.291 11.839-11.136 22.75-17.49 32.75-10.234-14.766-15.805-32.445-15.805-50.534 0-18.752 5.92-36.868 16.795-51.914 6.003 10.642 11.59 21.936 16.614 34.071 2.342 5.656 7.893 9.311 14.142 9.311h1.062c2.507 0 4.878 1.097 6.505 3.01 1.648 1.939 2.325 4.429 1.905 7.011z"/><path d="m216.098 201.195c9.82 7.882 19.697 12.998 30.959 13.319 6.125 0 11.146-2.093 14.512-6.146 8.57-10.321 1.948-28.97-15.404-43.38-17.353-14.409-36.9-17.493-45.472-7.172-8.57 10.319-1.947 28.969 15.405 43.379zm-3.864-33.797c1.401-1.688 11.95-1.168 24.349 9.129 12.4 10.297 14.848 20.57 13.447 22.258-.418.503-2.678 1.216-6.992.209-5.403-1.261-11.729-4.665-17.357-9.339-12.4-10.297-14.848-20.57-13.447-22.257z"/></g></svg>