<svg id="Capa_1" enable-background="new 0 0 512.002 512.002" height="512" viewBox="0 0 512.002 512.002" width="512" xmlns="http://www.w3.org/2000/svg"><g><path d="m139.776 111.195c8.614 0 16.849-4.115 22.028-11.008 2.488-3.312 1.821-8.013-1.491-10.501-3.311-2.488-8.013-1.82-10.501 1.491-2.396 3.19-6.055 5.019-10.036 5.019-6.915 0-12.54-5.625-12.54-12.54s5.625-12.541 12.54-12.541c4.142 0 7.5-3.358 7.5-7.5s-3.358-7.5-7.5-7.5c-15.186 0-27.54 12.354-27.54 27.541 0 15.185 12.354 27.539 27.54 27.539z"/><path d="m372.244 111.195c13.046 0 24.397-9.269 26.99-22.04.824-4.06-1.799-8.018-5.858-8.842-4.063-.821-8.019 1.799-8.842 5.858-1.179 5.808-6.348 10.024-12.29 10.024-6.915 0-12.54-5.625-12.54-12.54s5.625-12.541 12.54-12.541c4.142 0 7.5-3.358 7.5-7.5s-3.358-7.5-7.5-7.5c-15.186 0-27.54 12.354-27.54 27.541-.001 15.186 12.354 27.54 27.54 27.54z"/><path d="m113.867 344.849c-4.054-.835-8.022 1.778-8.857 5.835-2.23 10.841-4.742 21.485-7.401 32.755-8.572 36.327-17.437 73.89-17.437 121.062 0 4.142 3.358 7.5 7.5 7.5s7.5-3.358 7.5-7.5c0-45.426 8.661-82.125 17.036-117.617 2.685-11.378 5.221-22.125 7.495-33.179.833-4.056-1.779-8.021-5.836-8.856z"/><path d="m284.72 441.681-21.31 10.655c-4.634 2.318-10.167 2.316-14.801 0l-21.31-10.655c-3.703-1.851-8.209-.351-10.062 3.354s-.351 8.21 3.354 10.062l11.886 5.943v43.462c0 4.142 3.358 7.5 7.5 7.5s7.5-3.358 7.5-7.5v-36.612c2.785.777 5.657 1.176 8.533 1.176 2.874 0 5.747-.399 8.532-1.176v36.612c0 4.142 3.358 7.5 7.5 7.5s7.5-3.358 7.5-7.5v-43.462l11.886-5.943c3.705-1.852 5.207-6.357 3.354-10.062-1.852-3.705-6.356-5.207-10.062-3.354z"/><path d="m333.418 353.021-64.034-41.217 7.306-5.197c4.65-3.308 7.967-8.113 9.445-13.544l14.215 6.571c1.002.463 2.076.692 3.146.692 1.445 0 2.883-.417 4.128-1.238l128.85-84.921c3.458-2.279 4.414-6.931 2.135-10.39-2.279-3.458-6.931-4.416-10.39-2.135l-6.645 4.38-15.373-61.595c20.586-17.563 33.664-43.679 33.664-72.797 0-33.45-16.137-66.109-16.824-67.483-1.851-3.703-6.351-5.202-10.056-3.354-3.704 1.849-5.208 6.352-3.362 10.057.152.306 15.243 30.939 15.243 60.78 0 44.486-36.191 80.678-80.677 80.678-15.699 0-30.915-4.51-44.002-13.044-3.469-2.262-8.115-1.284-10.379 2.187-2.262 3.47-1.283 8.116 2.187 10.379 15.53 10.126 33.579 15.479 52.195 15.479 17.022 0 33.017-4.474 46.88-12.299-1.562 15.465-3.774 41.387-5.108 74.485l-83.104 54.771-18.411-8.51c-1.018-2.059-2.323-3.987-3.907-5.712-7.241-7.886-18.635-10.167-28.351-5.674l-43.04 19.896-83.087-54.76c-1.333-33.107-3.546-59.029-5.108-74.497 13.863 7.825 29.858 12.299 46.88 12.299 18.616 0 36.665-5.353 52.195-15.479 3.469-2.262 4.448-6.909 2.186-10.379s-6.909-4.448-10.379-2.186c-13.086 8.533-28.302 13.043-44.001 13.043-44.485 0-80.677-36.192-80.677-80.678 0-29.84 15.09-60.474 15.243-60.78 1.849-3.704.347-8.206-3.356-10.057-3.705-1.853-8.21-.351-10.062 3.354-.691 1.376-16.828 34.034-16.828 67.485 0 29.142 13.1 55.278 33.716 72.841l-15.436 61.556-6.653-4.385c-3.458-2.279-8.11-1.324-10.39 2.135-2.279 3.458-1.324 8.11 2.135 10.39l128.85 84.921c2.167 1.429 4.918 1.635 7.274.545l46.829-21.648c3.772-1.744 8.196-.859 11.007 2.203 1.873 2.04 2.745 4.68 2.455 7.435-.29 2.754-1.692 5.155-3.949 6.761l-16.332 11.619c-2.028 1.443-3.208 3.797-3.15 6.286.058 2.488 1.346 4.785 3.438 6.132l73.35 47.213c2.36 1.519 3.942 3.875 4.457 6.634.514 2.759-.115 5.527-1.77 7.794l-11.422 15.643c-6.704 9.181-18.582 13.36-29.556 10.399l-33.206-8.958c-16.344-4.409-31.035-13.331-42.485-25.802l-13.02-14.181c-7.787-8.481-16.863-15.571-26.979-21.072-.091-.05-.184-.098-.278-.144l-128.434-63.055c-16.05-7.88-24.979-25.043-22.219-42.709l34.613-221.525c.639-4.092-2.16-7.928-6.252-8.568-4.086-.634-7.929 2.16-8.568 6.252l-34.613 221.525c-3.78 24.193 8.448 47.698 30.429 58.49l128.292 62.984c8.605 4.699 16.329 10.743 22.961 17.966l13.02 14.181c13.375 14.567 30.535 24.989 49.627 30.14l33.205 8.958c3.626.978 7.314 1.451 10.976 1.451 13.429 0 26.479-6.362 34.602-17.486l11.422-15.644c4.057-5.556 5.661-12.622 4.401-19.385-1.259-6.764-5.299-12.778-11.084-16.502zm69.504-159.687 5.373 21.44-6.872 4.529c.451-9.371.964-18.055 1.499-25.969zm-293.828-.057c.537 7.934 1.052 16.639 1.504 26.039l-6.891-4.542z"/><path d="m506.434 227.868-34.612-221.524c-.64-4.092-4.474-6.891-8.568-6.252-4.093.64-6.892 4.476-6.252 8.568l34.613 221.524c2.761 17.666-6.168 34.83-22.219 42.709l-120.497 59.157c-3.718 1.826-5.252 6.319-3.427 10.038 1.303 2.655 3.967 4.196 6.738 4.196 1.109 0 2.236-.247 3.299-.769l32.494-15.953c2.848 19.321 7.215 37.856 11.81 57.323 8.375 35.491 17.036 72.19 17.036 117.616 0 4.142 3.358 7.5 7.5 7.5s7.5-3.358 7.5-7.5c0-47.171-8.864-84.735-17.437-121.061-4.898-20.753-9.514-40.433-12.218-60.845l73.812-36.237c21.981-10.791 34.209-34.297 30.428-58.49z"/><path d="m256.01 231.437c4.142 0 7.5-3.358 7.5-7.5v-48.097c0-4.142-3.358-7.5-7.5-7.5s-7.5 3.358-7.5 7.5v48.097c0 4.142 3.358 7.5 7.5 7.5z"/><path d="m203.753 217.697c-3.447 2.297-4.378 6.954-2.08 10.4l16.032 24.048c1.445 2.168 3.823 3.341 6.247 3.341 1.43 0 2.875-.408 4.153-1.261 3.447-2.297 4.378-6.954 2.08-10.4l-16.032-24.048c-2.298-3.446-6.954-4.378-10.4-2.08z"/><path d="m283.914 254.226c1.278.853 2.724 1.261 4.153 1.261 2.423 0 4.802-1.173 6.247-3.341l16.033-24.048c2.298-3.446 1.367-8.103-2.08-10.4-3.445-2.297-8.103-1.367-10.4 2.08l-16.033 24.048c-2.298 3.446-1.367 8.102 2.08 10.4z"/></g></svg>