<svg id="Capa_1" enable-background="new 0 0 512 512" height="512" viewBox="0 0 512 512" width="512" xmlns="http://www.w3.org/2000/svg"><g><path d="m488.468 140.282c-12.976 0-23.532 10.557-23.532 23.532v.516h-200.92c-8.556 0-15.516 6.96-15.516 15.516v.516h-20.551l-6.59-9.885c-6.137-9.205-18.047-12.906-28.32-8.796l-28.002 11.201c-3.846 1.538-5.716 5.903-4.178 9.749 1.538 3.845 5.901 5.718 9.749 4.178l28.002-11.201c3.725-1.49 8.043-.149 10.269 3.189l8.816 13.225c1.391 2.086 3.732 3.34 6.24 3.34h24.565v17.064h-95.372c.126-.474.247-.95.342-1.439 1.864-9.679-3.226-18.996-12.378-22.657l-13.388-5.355c9.3-5.494 15.555-15.616 15.555-27.178 0-17.396-14.153-31.548-31.549-31.548s-31.548 14.152-31.548 31.548c0 3.144.469 6.18 1.329 9.049-10.91-2.814-22.573-.862-32.042 5.55-.823.557-1.612 1.151-2.383 1.762v-8.344c0-12.976-10.557-23.532-23.532-23.532s-23.534 10.557-23.534 23.532v104.21c0 10.353 6.724 19.16 16.032 22.3v17.781c0 8.556 6.96 15.516 15.516 15.516h32.581v18.297c-9.308 3.139-16.032 11.946-16.032 22.3 0 12.976 10.557 23.532 23.532 23.532s23.532-10.557 23.532-23.532c0-10.353-6.724-19.16-16.032-22.3v-18.297h353.742v18.297c-9.308 3.139-16.032 11.946-16.032 22.3 0 12.976 10.557 23.532 23.532 23.532s23.532-10.557 23.532-23.532c0-10.353-6.724-19.16-16.032-22.3v-18.297h32.581c8.556 0 15.516-6.96 15.516-15.516v-17.781c9.308-3.139 16.032-11.946 16.032-22.3v-104.21c0-12.975-10.557-23.532-23.532-23.532zm-416.839 232.468c-4.705 0-8.532-3.828-8.532-8.532s3.828-8.532 8.532-8.532 8.532 3.828 8.532 8.532-3.828 8.532-8.532 8.532zm368.742 0c-4.705 0-8.532-3.828-8.532-8.532s3.828-8.532 8.532-8.532 8.532 3.828 8.532 8.532-3.827 8.532-8.532 8.532zm-176.871-192.903c0-.285.231-.516.516-.516h200.919v65.161h-200.919c-.285 0-.516-.231-.516-.516zm-151.791-40.597c9.125 0 16.549 7.423 16.549 16.548s-7.424 16.548-16.549 16.548-16.548-7.423-16.548-16.548 7.423-16.548 16.548-16.548zm-53.852 43.568c6.858-4.644 15.203-5.543 22.895-2.467l54.769 21.907c3.751 1.501 3.413 4.89 3.219 5.893-.193 1.003-1.137 4.276-5.178 4.276h-86.498v-9.269c0-8.283 3.935-15.697 10.793-20.34zm-42.857-19.004c0-4.705 3.828-8.532 8.532-8.532s8.532 3.828 8.532 8.532v112.742h-8.532c-4.705 0-8.532-3.828-8.532-8.532zm16.548 144.807c-.285 0-.516-.231-.516-.516v-16.548h33.097v17.064zm47.581 0v-17.064h313.144c4.142 0 7.5-3.358 7.5-7.5s-3.358-7.5-7.5-7.5h-345.209v-49.129h17.064v8.532c0 12.976 10.557 23.532 23.532 23.532h136.274c4.142 0 7.5-3.358 7.5-7.5s-3.358-7.5-7.5-7.5h-136.273c-4.705 0-8.532-3.828-8.532-8.532v-8.532h169.371v16.548c0 8.556 6.96 15.516 15.516 15.516h200.919v17.065h-40.597c-4.142 0-7.5 3.358-7.5 7.5s3.358 7.5 7.5 7.5h8.532v17.064zm401.323 0h-32.581v-17.064h33.097v16.548c0 .285-.232.516-.516.516zm16.548-40.597c0 4.705-3.828 8.532-8.532 8.532h-8.532v-112.742c0-4.705 3.828-8.532 8.532-8.532s8.532 3.828 8.532 8.532z"/></g></svg>