<svg id="Capa_1" enable-background="new 0 0 512 512" height="512" viewBox="0 0 512 512" width="512" xmlns="http://www.w3.org/2000/svg"><g><path d="m251.989 356.718h-220.441c-9.125 0-16.548-7.423-16.548-16.548v-224.968h385.807v128.774c0 4.142 3.358 7.5 7.5 7.5s7.5-3.358 7.5-7.5v-160.323c0-17.396-14.152-31.548-31.548-31.548h-8.533v-16.548c0-8.556-6.96-15.516-15.516-15.516h-16.032c-8.556 0-15.516 6.96-15.516 15.516v16.548h-25.081v-16.548c0-8.556-6.96-15.516-15.516-15.516h-16.032c-8.556 0-15.516 6.96-15.516 15.516v16.548h-25.081v-16.548c0-8.556-6.96-15.516-15.516-15.516h-16.032c-8.556 0-15.516 6.96-15.516 15.516v16.548h-25.081v-16.548c0-8.556-6.96-15.516-15.516-15.516h-16.033c-8.556 0-15.516 6.96-15.516 15.516v16.548h-25.081v-16.548c0-8.556-6.96-15.516-15.516-15.516h-16.032c-8.556 0-15.516 6.96-15.516 15.516v16.548h-8.532c-17.397 0-31.549 14.152-31.549 31.548v256.516c0 17.396 14.152 31.548 31.548 31.548h220.441c4.142 0 7.5-3.358 7.5-7.5s-3.358-7.499-7.5-7.499zm91.672-321.161c0-.285.231-.516.516-.516h16.032c.285 0 .516.231.516.516v16.548h-17.064zm-72.145 0c0-.285.231-.516.516-.516h16.032c.285 0 .516.231.516.516v16.548h-17.064zm-72.145 0c0-.285.231-.516.516-.516h16.032c.285 0 .516.231.516.516v16.548h-17.064zm-72.145 0c0-.285.231-.516.516-.516h16.033c.285 0 .516.231.516.516v16.548h-17.065zm-72.145 0c0-.285.231-.516.516-.516h16.032c.285 0 .516.231.516.516v16.548h-17.064zm-23.533 31.548h352.71c9.125 0 16.548 7.423 16.548 16.548v16.548h-385.806v-16.548c0-9.125 7.424-16.548 16.548-16.548z"/><path d="m322.422 380.916c-4.065-.826-8.019 1.799-8.841 5.859-.631 3.112-.952 6.311-.952 9.507 0 26.236 21.345 47.581 47.581 47.581s47.581-21.345 47.581-47.581c0-3.197-.32-6.396-.952-9.509-.824-4.059-4.782-6.679-8.842-5.858-4.06.824-6.682 4.783-5.858 8.842.433 2.132.652 4.327.652 6.524 0 17.965-14.616 32.581-32.581 32.581s-32.581-14.616-32.581-32.581c0-2.197.219-4.392.652-6.525.823-4.058-1.8-8.017-5.859-8.84z"/><path d="m442.702 374.13c-3.245-3.098-6.6-6.301-7.656-8.846-1.158-2.793-1.074-7.615-.992-12.279.147-8.377.314-17.873-6.189-24.375-5.373-5.374-12.864-6.166-19.483-6.232-4.181-.063-7.533 3.283-7.575 7.424-.042 4.142 3.283 7.533 7.424 7.575 3.117.031 7.443.256 9.026 1.839 2.001 2.001 1.894 8.113 1.799 13.506-.109 6.199-.222 12.609 2.134 18.288 2.266 5.465 6.784 9.778 11.153 13.949 4.005 3.824 8.544 8.158 8.544 11.303s-4.539 7.479-8.544 11.303c-4.369 4.171-8.887 8.484-11.153 13.949-2.354 5.679-2.242 12.089-2.134 18.288.095 5.394.202 11.506-1.799 13.508-2 2.001-8.114 1.893-13.506 1.799-6.2-.108-12.609-.221-18.288 2.133-5.465 2.266-9.778 6.784-13.95 11.153-3.824 4.005-8.158 8.544-11.303 8.544s-7.479-4.539-11.303-8.544c-4.171-4.369-8.484-8.887-13.949-11.153-5.68-2.355-12.09-2.242-18.289-2.134-5.393.095-11.506.202-13.506-1.799-2.001-2.001-1.894-8.114-1.799-13.507.109-6.199.222-12.609-2.134-18.288-2.266-5.465-6.784-9.778-11.153-13.949-4.005-3.824-8.544-8.158-8.544-11.303s4.539-7.479 8.544-11.303c4.369-4.171 8.887-8.484 11.153-13.949 2.354-5.679 2.242-12.089 2.134-18.288-.095-5.394-.202-11.506 1.799-13.508 1.583-1.582 5.909-1.807 9.025-1.838 4.142-.042 7.466-3.433 7.424-7.575-.041-4.116-3.391-7.425-7.498-7.425-.025 0-.051 0-.077 0-6.619.066-14.109.858-19.481 6.23-6.504 6.504-6.337 16-6.191 24.377.082 4.664.167 9.486-.992 12.279-1.056 2.545-4.411 5.748-7.656 8.846-6.18 5.901-13.186 12.589-13.186 22.152s7.005 16.251 13.186 22.152c3.245 3.098 6.6 6.301 7.656 8.846 1.158 2.793 1.074 7.615.992 12.279-.147 8.377-.314 17.873 6.19 24.376s15.995 6.336 24.376 6.19c4.661-.083 9.486-.167 12.279.992 2.545 1.056 5.748 4.411 8.846 7.656 5.901 6.18 12.589 13.186 22.152 13.186s16.251-7.005 22.152-13.186c3.098-3.245 6.301-6.6 8.846-7.655 2.793-1.158 7.615-1.074 12.279-.992 8.375.15 17.873.314 24.376-6.19s6.337-15.999 6.191-24.377c-.082-4.664-.167-9.486.992-12.28 1.055-2.544 4.41-5.748 7.655-8.846 6.181-5.901 13.186-12.589 13.186-22.152s-7.003-16.248-13.183-22.149z"/><path d="m504.5 212.427c-4.142 0-7.5 3.358-7.5 7.5v74.896c0 12.102-7.833 19.658-15.164 22.695-7.332 3.036-18.213 3.231-26.771-5.325l-34.815-34.815c-11.53-11.53-28.051-14.818-43.117-8.577-15.065 6.24-24.424 20.247-24.424 36.553v4.5c-9.308 3.139-16.032 11.946-16.032 22.3v16.032c0 12.976 10.557 23.532 23.532 23.532s23.532-10.557 23.532-23.532v-16.032c0-10.353-6.724-19.16-16.032-22.3v-4.5c0-12.102 7.833-19.658 15.164-22.695 7.331-3.038 18.213-3.232 26.771 5.325l34.815 34.815c7.667 7.667 17.54 11.689 27.726 11.689 5.131 0 10.344-1.021 15.392-3.112 15.065-6.24 24.424-20.247 24.424-36.553v-74.896c-.001-4.142-3.359-7.5-7.501-7.5zm-135.758 135.759c0 4.705-3.828 8.532-8.532 8.532s-8.532-3.828-8.532-8.532v-16.032c0-4.705 3.828-8.532 8.532-8.532s8.532 3.828 8.532 8.532z"/><path d="m95.677 156.314h-32.064c-4.142 0-7.5 3.358-7.5 7.5s3.358 7.5 7.5 7.5h32.064c4.142 0 7.5-3.358 7.5-7.5s-3.358-7.5-7.5-7.5z"/><path d="m95.677 204.411h-32.064c-4.142 0-7.5 3.358-7.5 7.5s3.358 7.5 7.5 7.5h32.064c4.142 0 7.5-3.358 7.5-7.5s-3.358-7.5-7.5-7.5z"/><path d="m95.677 252.508h-32.064c-4.142 0-7.5 3.358-7.5 7.5s3.358 7.5 7.5 7.5h32.064c4.142 0 7.5-3.358 7.5-7.5s-3.358-7.5-7.5-7.5z"/><path d="m95.677 300.605h-32.064c-4.142 0-7.5 3.358-7.5 7.5s3.358 7.5 7.5 7.5h32.064c4.142 0 7.5-3.358 7.5-7.5s-3.358-7.5-7.5-7.5z"/><path d="m175.839 204.411h-32.064c-4.142 0-7.5 3.358-7.5 7.5s3.358 7.5 7.5 7.5h32.064c4.142 0 7.5-3.358 7.5-7.5s-3.358-7.5-7.5-7.5z"/><path d="m175.839 156.314h-32.064c-4.142 0-7.5 3.358-7.5 7.5s3.358 7.5 7.5 7.5h32.064c4.142 0 7.5-3.358 7.5-7.5s-3.358-7.5-7.5-7.5z"/><path d="m175.839 252.508h-32.064c-4.142 0-7.5 3.358-7.5 7.5s3.358 7.5 7.5 7.5h32.064c4.142 0 7.5-3.358 7.5-7.5s-3.358-7.5-7.5-7.5z"/><path d="m175.839 300.605h-32.064c-4.142 0-7.5 3.358-7.5 7.5s3.358 7.5 7.5 7.5h32.064c4.142 0 7.5-3.358 7.5-7.5s-3.358-7.5-7.5-7.5z"/><path d="m223.936 171.314h32.064c4.142 0 7.5-3.358 7.5-7.5s-3.358-7.5-7.5-7.5h-32.064c-4.142 0-7.5 3.358-7.5 7.5s3.357 7.5 7.5 7.5z"/><path d="m223.936 219.411h32.064c4.142 0 7.5-3.358 7.5-7.5s-3.358-7.5-7.5-7.5h-32.064c-4.142 0-7.5 3.358-7.5 7.5s3.357 7.5 7.5 7.5z"/><path d="m256 300.605h-32.064c-4.142 0-7.5 3.358-7.5 7.5s3.358 7.5 7.5 7.5h32.064c4.142 0 7.5-3.358 7.5-7.5s-3.358-7.5-7.5-7.5z"/><path d="m304.097 171.314h32.064c4.142 0 7.5-3.358 7.5-7.5s-3.358-7.5-7.5-7.5h-32.064c-4.142 0-7.5 3.358-7.5 7.5s3.358 7.5 7.5 7.5z"/><path d="m304.097 219.411h32.064c4.142 0 7.5-3.358 7.5-7.5s-3.358-7.5-7.5-7.5h-32.064c-4.142 0-7.5 3.358-7.5 7.5s3.358 7.5 7.5 7.5z"/><path d="m218.632 261.476 16.032 16.032c1.464 1.464 3.384 2.197 5.303 2.197s3.839-.732 5.303-2.197l24.048-24.048c2.929-2.929 2.929-7.678 0-10.606-2.929-2.929-7.678-2.929-10.606 0l-18.745 18.745-10.729-10.729c-2.929-2.929-7.678-2.929-10.606 0-2.929 2.928-2.929 7.677 0 10.606z"/><path d="m349.48 242.854c-2.929-2.929-7.678-2.929-10.606 0l-18.745 18.745-10.729-10.729c-2.929-2.929-7.678-2.929-10.606 0-2.929 2.929-2.929 7.678 0 10.606l16.032 16.032c1.464 1.464 3.384 2.197 5.303 2.197s3.839-.732 5.303-2.197l24.048-24.048c2.93-2.929 2.93-7.678 0-10.606z"/></g></svg>