<svg id="Capa_1" enable-background="new 0 0 512.001 512.001" height="512" viewBox="0 0 512.001 512.001" width="512" xmlns="http://www.w3.org/2000/svg"><g><path d="m167.823 167.308c18.616 0 36.665-5.353 52.194-15.479 3.47-2.263 4.449-6.909 2.187-10.379-2.263-3.47-6.911-4.449-10.379-2.187-13.087 8.533-28.303 13.044-44.002 13.044-44.486 0-80.678-36.192-80.678-80.678 0-29.84 15.09-60.474 15.243-60.779 1.849-3.704.347-8.206-3.356-10.058s-8.209-.352-10.062 3.354c-.687 1.375-16.824 34.034-16.824 67.484 0 28.53 12.557 54.179 32.429 71.724 1.446 11.962 7.652 67.818 7.652 144.712 0 33.392-7.105 63.499-14.627 95.374-8.572 36.327-17.437 73.89-17.437 121.062 0 4.142 3.358 7.5 7.5 7.5s7.5-3.358 7.5-7.5c0-45.426 8.661-82.125 17.036-117.616 7.729-32.749 15.028-63.682 15.028-98.819 0-61.259-3.907-109.404-6.288-133.06 13.863 7.826 29.86 12.301 46.884 12.301z"/><path d="m139.767 111.195c8.614 0 16.849-4.115 22.028-11.009 2.488-3.312 1.821-8.013-1.491-10.501-3.311-2.488-8.013-1.82-10.501 1.491-2.396 3.189-6.054 5.019-10.036 5.019-6.915 0-12.541-5.625-12.541-12.54s5.625-12.541 12.541-12.541c4.142 0 7.5-3.358 7.5-7.5s-3.358-7.5-7.5-7.5c-15.186 0-27.541 12.355-27.541 27.541s12.355 27.54 27.541 27.54z"/><path d="m372.234 111.195c13.047 0 24.397-9.269 26.989-22.04.824-4.06-1.799-8.019-5.858-8.842-4.059-.825-8.018 1.799-8.842 5.858-1.179 5.808-6.347 10.023-12.289 10.023-6.915 0-12.541-5.625-12.541-12.54s5.625-12.541 12.541-12.541c4.142 0 7.5-3.358 7.5-7.5s-3.358-7.5-7.5-7.5c-15.186 0-27.541 12.355-27.541 27.541s12.355 27.541 27.541 27.541z"/><path d="m256.001 224.453c-57.177 0-103.693 55.507-103.693 123.734 0 53.029 28.275 100.078 70.36 117.075 5.862 2.368 9.801 8.423 9.801 15.068v24.171c0 4.142 3.358 7.5 7.5 7.5s7.5-3.358 7.5-7.5v-24.171c0-12.896-7.53-24.269-19.184-28.976-36.473-14.73-60.978-56.19-60.978-103.167 0-59.956 39.788-108.734 88.693-108.734s88.693 48.778 88.693 108.734c0 46.977-24.505 88.437-60.978 103.167-11.654 4.707-19.184 16.081-19.184 28.976v24.171c0 4.142 3.358 7.5 7.5 7.5s7.5-3.358 7.5-7.5v-24.171c0-6.645 3.939-12.7 9.801-15.068 42.085-16.997 70.36-64.046 70.36-117.075.002-68.227-46.515-123.734-103.691-123.734z"/><path d="m399.775 288.066c0-76.894 6.206-132.75 7.652-144.712 19.872-17.544 32.429-43.193 32.429-71.724 0-33.45-16.137-66.109-16.824-67.483-1.851-3.703-6.35-5.202-10.056-3.354-3.704 1.849-5.208 6.352-3.362 10.058.152.306 15.243 30.939 15.243 60.779 0 44.486-36.192 80.678-80.678 80.678-15.699 0-30.915-4.511-44.002-13.044-3.469-2.262-8.115-1.284-10.379 2.187-2.262 3.47-1.283 8.116 2.187 10.379 15.53 10.126 33.579 15.479 52.194 15.479 17.024 0 33.021-4.475 46.885-12.302-2.381 23.656-6.288 71.801-6.288 133.06 0 35.138 7.3 66.07 15.028 98.819 8.375 35.491 17.036 72.19 17.036 117.616 0 4.142 3.358 7.5 7.5 7.5s7.5-3.358 7.5-7.5c0-47.172-8.865-84.735-17.437-121.062-7.523-31.875-14.628-61.983-14.628-95.374z"/><path d="m304.702 304.706c4.446-4.444 6.895-10.354 6.895-16.641s-2.449-12.196-6.89-16.635c-4.442-4.448-10.353-6.897-16.642-6.897s-12.2 2.449-16.638 6.893l-4.042 4.04-3.098-1.549c-21.094-10.551-46.339-4.31-60.03 14.839-23.514 32.883-19.761 82.599-4.292 112.683 12.555 24.414 32.979 38.416 56.035 38.416 26.236 0 47.581-21.344 47.581-47.58 0-14.247-6.366-27.547-17.055-36.492 1.098-1.475 2.05-3.072 2.792-4.804 2.476-5.777 2.554-12.172.219-18.009-1.508-3.768-3.913-7-6.975-9.493 3.733-1.553 7.207-3.84 10.196-6.828zm-48.701 120.15c-17.239 0-32.8-11.035-42.695-30.276-13.44-26.137-16.903-69.051 3.153-97.099 9.374-13.109 26.667-17.378 41.12-10.147l7.935 3.965c2.886 1.442 6.372.877 8.655-1.404l7.868-7.864c1.608-1.61 3.75-2.497 6.029-2.497 2.28 0 4.42.887 6.034 2.502 1.611 1.61 2.499 3.752 2.499 6.03s-.887 4.42-2.5 6.032l-11.944 11.944c-5.048 5.045-12.726 6.293-19.104 3.105l-13.102-6.551c-6.783-3.395-15.212-1.329-19.607 4.811-5.243 7.333-8.729 16.94-10.189 27.973l-1.283.513c-3.846 1.539-5.716 5.903-4.178 9.749s5.901 5.717 9.749 4.179l40.086-16.035c2.112-.847 4.428-.82 6.521.077 2.095.898 3.715 2.56 4.563 4.679.847 2.116.818 4.435-.079 6.53-.897 2.094-2.557 3.714-4.675 4.56l-40.081 16.033c-3.846 1.538-5.716 5.903-4.178 9.749 1.173 2.933 3.989 4.716 6.966 4.716.927 0 1.87-.173 2.783-.539l37.095-14.838c9.389 5.959 15.139 16.316 15.139 27.523 0 17.964-14.616 32.58-32.58 32.58zm-1.504-103.214-17.716 7.086c1.386-4.906 3.337-9.205 5.76-12.593.098-.137.441-.252.697-.123z"/></g></svg>