<svg id="Capa_1" enable-background="new 0 0 512 512" height="512" viewBox="0 0 512 512" width="512" xmlns="http://www.w3.org/2000/svg"><g><path d="m440.371 0h-368.742c-21.816 0-39.565 17.749-39.565 39.564v432.871c0 21.816 17.749 39.564 39.564 39.564h368.742c21.816 0 39.564-17.749 39.564-39.564v-432.871c.002-21.815-17.747-39.564-39.563-39.564zm24.565 472.436c0 13.545-11.02 24.564-24.564 24.564h-368.743c-13.545 0-24.564-11.02-24.564-24.564v-432.872c-.001-13.544 11.019-24.564 24.564-24.564h368.742c13.545 0 24.564 11.02 24.564 24.564v432.872z"/><path d="m336.161 32.064h-112.225c-4.142 0-7.5 3.358-7.5 7.5s3.358 7.5 7.5 7.5h112.226c4.705 0 8.532 3.828 8.532 8.532v30.224c-27.266-14.225-57.668-21.691-88.694-21.691-31.027 0-61.428 7.466-88.693 21.691v-30.223c0-4.705 3.828-8.532 8.532-8.532h16.032c4.142 0 7.5-3.358 7.5-7.5s-3.358-7.5-7.5-7.5h-16.032c-12.976 0-23.532 10.557-23.532 23.532v80.162c0 12.976 10.557 23.532 23.532 23.532h160.322c12.976 0 23.532-10.557 23.532-23.532v-80.162c0-12.976-10.556-23.533-23.532-23.533zm0 112.227h-160.322c-4.705 0-8.532-3.828-8.532-8.532v-32.792c26.857-15.595 57.423-23.838 88.693-23.838s61.836 8.243 88.693 23.837v32.792c0 4.705-3.827 8.533-8.532 8.533z"/><path d="m256 96.193c-4.142 0-7.5 3.358-7.5 7.5v8.016c0 4.142 3.358 7.5 7.5 7.5s7.5-3.358 7.5-7.5v-8.016c0-4.142-3.358-7.5-7.5-7.5z"/><path d="m204.644 112.417c-1.585-3.827-5.973-5.643-9.799-4.059-3.827 1.585-5.644 5.973-4.059 9.799l3.068 7.406c1.197 2.888 3.989 4.632 6.932 4.632.957 0 1.929-.184 2.867-.573 3.827-1.585 5.644-5.973 4.059-9.799z"/><path d="m317.155 108.358c-3.827-1.585-8.215.232-9.799 4.059l-3.068 7.406c-1.585 3.827.232 8.214 4.059 9.799.938.389 1.911.573 2.867.573 2.943 0 5.736-1.744 6.932-4.632l3.068-7.406c1.585-3.826-.232-8.214-4.059-9.799z"/><path d="m256 176.355c-4.142 0-7.5 3.358-7.5 7.5v288.581c0 4.142 3.358 7.5 7.5 7.5s7.5-3.358 7.5-7.5v-288.581c0-4.142-3.358-7.5-7.5-7.5z"/></g></svg>