<svg id="Capa_1" enable-background="new 0 0 511.986 511.986" height="512" viewBox="0 0 511.986 511.986" width="512" xmlns="http://www.w3.org/2000/svg"><g><path d="m288.065 432.857h-256.516c-4.142 0-7.5 3.358-7.5 7.5v48.097c0 12.976 10.557 23.532 23.532 23.532h224.452c12.976 0 23.532-10.557 23.532-23.532v-48.097c0-4.142-3.358-7.5-7.5-7.5zm-7.5 55.596c0 4.705-3.828 8.532-8.532 8.532h-224.452c-4.705 0-8.532-3.828-8.532-8.532v-40.597h17.064v24.564c0 4.142 3.358 7.5 7.5 7.5h16.032c4.142 0 7.5-3.358 7.5-7.5s-3.358-7.5-7.5-7.5h-8.532v-17.064h177.387v17.064h-136.79c-4.142 0-7.5 3.358-7.5 7.5s3.358 7.5 7.5 7.5h144.29c4.142 0 7.5-3.358 7.5-7.5v-24.564h17.064v40.597z"/><path d="m478.712 9.226c-12.301-12.301-32.315-12.301-44.616 0l-25.021 25.021c-2.929 2.929-2.929 7.678 0 10.606 2.929 2.929 7.678 2.929 10.606 0l25.021-25.021c6.453-6.452 16.951-6.452 23.403 0s6.452 16.951 0 23.403l-57.048 57.047-23.402-23.402 7.978-7.978c2.929-2.929 2.929-7.678 0-10.606-2.929-2.929-7.678-2.929-10.606 0l-7.978 7.978-.365-.365c-9.176-9.174-24.105-9.174-33.28 0-9.174 9.175-9.174 24.104 0 33.28l.365.365-168.024 168.022c-6.014 6.014-9.988 13.962-11.19 22.381l-4.157 29.097c-.333 2.337.452 4.695 2.122 6.364 1.417 1.417 3.328 2.197 5.303 2.197.353 0 .707-.025 1.061-.075l29.097-4.157c8.419-1.203 16.368-5.177 22.381-11.19l168.023-168.023.365.365c4.445 4.445 10.354 6.893 16.64 6.893s12.195-2.448 16.64-6.893c9.175-9.175 9.175-24.104 0-33.279l-.365-.365 57.048-57.047c12.299-12.303 12.299-32.317-.001-44.618zm-268.957 292.36c-3.733 3.733-8.668 6.201-13.896 6.947l-19.197 2.743 2.743-19.198c.747-5.227 3.214-10.162 6.947-13.896l70.81-70.81h46.807zm109.213-109.213h-46.807l82.213-82.213 23.404 23.403zm92.455-58.445c-3.326 3.326-8.739 3.327-12.067 0l-45.346-45.346c-3.327-3.327-3.327-8.74 0-12.067 1.664-1.663 3.848-2.495 6.033-2.495s4.37.832 6.033 2.495l45.346 45.346c3.327 3.327 3.327 8.74.001 12.067z"/><path d="m159.807 415.792c12.976 0 23.532-10.557 23.532-23.532 0-17.79-15.522-41.586-17.292-44.241-1.391-2.086-3.732-3.34-6.24-3.34s-4.85 1.253-6.24 3.34c-1.77 2.655-17.292 26.451-17.292 44.241 0 12.976 10.556 23.532 23.532 23.532zm.004-48.803c4.203 7.98 8.528 18.082 8.528 25.271 0 4.705-3.828 8.532-8.532 8.532s-8.532-3.828-8.532-8.532c0-7.168 4.331-17.281 8.536-25.271z"/></g></svg>