<svg id="Capa_1" enable-background="new 0 0 512 512" height="512" viewBox="0 0 512 512" width="512" xmlns="http://www.w3.org/2000/svg"><g><path d="m294.317 246.114c-1.033-4.012-5.125-6.427-9.133-5.394-4.012 1.033-6.426 5.122-5.394 9.133.513 1.994.773 4.062.773 6.147 0 13.545-11.02 24.564-24.564 24.564s-24.564-11.02-24.564-24.564 11.02-24.564 24.564-24.564c2.085 0 4.153.26 6.147.773 4.01 1.035 8.1-1.382 9.133-5.394 1.033-4.011-1.382-8.1-5.394-9.133-3.214-.828-6.541-1.247-9.886-1.247-21.816 0-39.564 17.749-39.564 39.564s17.749 39.564 39.564 39.564 39.564-17.749 39.564-39.564c.001-3.345-.418-6.671-1.246-9.885z"/><path d="m256 199.371c13.196 0 23.532-13.858 23.532-31.548 0-14.126-6.594-25.8-15.969-29.934.307-7.522 2.089-15.602 5.456-24.626 1.68-4.503 2.497-9.374 2.497-14.892 0-13.739-5.206-21.115-9.388-27.042-3.712-5.26-6.644-9.415-6.644-18.394s2.932-13.133 6.644-18.393c4.183-5.927 9.389-13.304 9.389-27.042 0-4.142-3.358-7.5-7.5-7.5s-7.5 3.358-7.5 7.5c0 8.979-2.932 13.133-6.644 18.394-4.183 5.927-9.388 13.303-9.388 27.042s5.206 21.115 9.389 27.042c3.712 5.26 6.644 9.414 6.644 18.393 0 3.696-.507 6.853-1.55 9.648-4.351 11.661-6.466 22.188-6.466 32.184v3.572c0 4.142 3.358 7.5 7.5 7.5 3.479 0 8.532 6.447 8.532 16.548s-5.053 16.548-8.532 16.548-8.532-6.447-8.532-16.548c0-4.142-3.358-7.5-7.5-7.5s-7.5 3.358-7.5 7.5c-.002 17.69 10.334 31.548 23.53 31.548z"/><path d="m263.438 374.167c9.442-4.085 16.095-15.801 16.095-29.99 0-17.69-10.336-31.548-23.532-31.548s-23.532 13.858-23.532 31.548c0 14.126 6.594 25.8 15.969 29.934-.307 7.522-2.089 15.602-5.456 24.626-1.68 4.503-2.497 9.374-2.497 14.892 0 13.739 5.206 21.115 9.388 27.042 3.712 5.26 6.644 9.415 6.644 18.394s-2.932 13.133-6.644 18.393c-4.183 5.927-9.389 13.304-9.389 27.042 0 4.142 3.358 7.5 7.5 7.5s7.5-3.358 7.5-7.5c0-8.979 2.932-13.133 6.644-18.394 4.183-5.927 9.388-13.303 9.388-27.042s-5.206-21.115-9.389-27.042c-3.712-5.26-6.644-9.414-6.644-18.393 0-3.696.507-6.853 1.55-9.648 4.01-10.745 6.098-20.522 6.405-29.814zm-7.438-46.538c3.479 0 8.532 6.447 8.532 16.548s-5.053 16.548-8.532 16.548-8.532-6.447-8.532-16.548 5.053-16.548 8.532-16.548z"/><path d="m504.5 256.516c-8.979 0-13.133-2.932-18.394-6.644-5.927-4.183-13.303-9.388-27.042-9.388s-21.115 5.206-27.042 9.389c-5.26 3.712-9.414 6.644-18.393 6.644-3.696 0-6.853-.507-9.648-1.55-10.746-4.009-20.523-6.097-29.814-6.403-4.085-9.442-15.801-16.095-29.99-16.095-17.69 0-31.548 10.336-31.548 23.532s13.858 23.532 31.548 23.532c14.126 0 25.8-6.594 29.934-15.969 7.522.307 15.602 2.089 24.626 5.456 4.503 1.68 9.374 2.497 14.892 2.497 13.739 0 21.115-5.206 27.042-9.388 5.26-3.712 9.415-6.644 18.394-6.644s13.133 2.932 18.393 6.644c5.927 4.183 13.304 9.389 27.042 9.389 4.142 0 7.5-3.358 7.5-7.5s-3.358-7.502-7.5-7.502zm-160.323 8.016c-10.102 0-16.548-5.053-16.548-8.532s6.447-8.532 16.548-8.532 16.548 5.053 16.548 8.532-6.446 8.532-16.548 8.532z"/><path d="m98.37 255.484c3.696 0 6.853.507 9.648 1.55 10.746 4.009 20.523 6.097 29.814 6.403 4.085 9.442 15.801 16.095 29.99 16.095 17.69 0 31.548-10.336 31.548-23.532s-13.858-23.532-31.548-23.532c-14.126 0-25.8 6.594-29.934 15.969-7.522-.307-15.602-2.089-24.626-5.456-4.503-1.68-9.374-2.497-14.892-2.497-13.739 0-21.115 5.206-27.042 9.388-5.26 3.712-9.415 6.644-18.394 6.644s-13.133-2.932-18.393-6.644c-5.927-4.183-13.304-9.389-27.042-9.389-4.142 0-7.5 3.358-7.5 7.5s3.358 7.5 7.5 7.5c8.979 0 13.133 2.932 18.394 6.644 5.927 4.183 13.303 9.388 27.042 9.388s21.115-5.206 27.042-9.389c5.26-3.71 9.415-6.642 18.393-6.642zm69.453-8.016c10.102 0 16.548 5.053 16.548 8.532s-6.447 8.532-16.548 8.532-16.548-5.053-16.548-8.532 6.446-8.532 16.548-8.532z"/><path d="m310.52 221.582c1.719 0 3.491-.177 5.294-.538 6.789-1.358 13.6-5.177 19.177-10.755s9.397-12.388 10.755-19.177c.957-4.783.619-9.347-.893-13.269 5.538-5.108 12.516-9.565 21.285-13.568 4.372-1.996 8.394-4.863 12.295-8.765 9.715-9.714 11.25-18.611 12.483-25.76 1.095-6.344 1.959-11.355 8.308-17.704s11.36-7.213 17.704-8.308c7.148-1.233 16.045-2.769 25.76-12.483 2.929-2.929 2.929-7.678 0-10.606-2.929-2.929-7.678-2.929-10.606 0-6.349 6.349-11.36 7.213-17.704 8.308-7.148 1.233-16.045 2.768-25.76 12.483s-11.25 18.612-12.483 25.76c-1.094 6.344-1.959 11.355-8.308 17.704-2.614 2.614-5.205 4.487-7.919 5.727-10.438 4.765-18.831 10.206-25.62 16.564-3.95-1.555-8.564-1.908-13.399-.94-6.789 1.358-13.6 5.177-19.177 10.755s-9.397 12.388-10.755 19.177c-1.555 7.777.299 14.983 5.086 19.771 3.678 3.677 8.782 5.624 14.477 5.624zm-4.855-22.454c.772-3.86 3.197-8.056 6.652-11.512 3.456-3.456 7.652-5.88 11.512-6.652.553-.111 1.446-.251 2.42-.251 1.339 0 2.832.265 3.802 1.236 1.677 1.676 1.247 4.91.984 6.222-.772 3.86-3.197 8.056-6.652 11.512-3.456 3.456-7.652 5.88-11.512 6.652-1.313.263-4.547.692-6.223-.985-1.675-1.676-1.246-4.91-.983-6.222z"/><path d="m196.187 290.956c-6.789 1.358-13.6 5.177-19.177 10.755s-9.397 12.388-10.755 19.177c-.957 4.783-.619 9.347.894 13.269-5.539 5.108-12.516 9.565-21.285 13.568-4.372 1.996-8.394 4.863-12.295 8.765-9.715 9.714-11.25 18.611-12.483 25.76-1.095 6.344-1.959 11.355-8.308 17.704s-11.36 7.213-17.704 8.308c-7.148 1.233-16.045 2.769-25.76 12.483-2.929 2.929-2.929 7.678 0 10.606 1.464 1.464 3.384 2.197 5.303 2.197s3.839-.732 5.303-2.197c6.349-6.349 11.36-7.213 17.704-8.308 7.148-1.233 16.045-2.768 25.76-12.483s11.25-18.612 12.483-25.76c1.094-6.344 1.959-11.355 8.308-17.704 2.614-2.614 5.205-4.487 7.919-5.727 10.44-4.766 18.834-10.207 25.624-16.567 2.477.974 5.212 1.481 8.102 1.481 1.718 0 3.491-.177 5.294-.538 6.789-1.358 13.6-5.177 19.177-10.755s9.397-12.388 10.755-19.177c1.555-7.777-.299-14.983-5.086-19.771-4.791-4.788-11.999-6.642-19.773-5.086zm10.148 21.916c-.772 3.86-3.197 8.056-6.652 11.512-3.456 3.456-7.652 5.88-11.512 6.652-1.313.263-4.547.692-6.223-.985-1.677-1.676-1.247-4.91-.984-6.222.772-3.86 3.197-8.056 6.652-11.512 3.456-3.456 7.652-5.88 11.512-6.652 1.312-.264 4.547-.692 6.223.985 1.676 1.676 1.247 4.91.984 6.222z"/><path d="m423.043 414.377c-1.233-7.148-2.768-16.045-12.483-25.76s-18.612-11.25-25.76-12.483c-6.344-1.094-11.355-1.959-17.704-8.308-2.614-2.614-4.487-5.205-5.727-7.919-4.765-10.439-10.206-18.832-16.564-25.621 1.555-3.95 1.907-8.563.94-13.398-1.358-6.789-5.177-13.6-10.755-19.177s-12.388-9.397-19.177-10.755c-7.777-1.555-14.983.299-19.771 5.086-4.788 4.788-6.642 11.994-5.087 19.771 1.358 6.789 5.177 13.6 10.755 19.177 2.929 2.929 7.678 2.929 10.606 0 2.929-2.929 2.929-7.677 0-10.606-3.456-3.456-5.88-7.652-6.652-11.512-.263-1.312-.692-4.546.985-6.223 1.675-1.677 4.909-1.249 6.222-.984 3.86.772 8.056 3.197 11.512 6.652 3.456 3.456 5.88 7.652 6.652 11.512.263 1.312.692 4.546-.984 6.222-.541.541-.98 1.145-1.322 1.787-.925 1.742-1.116 3.77-.572 5.63.002.007.003.015.005.022.014.046.033.091.048.137.351 1.108.961 2.152 1.84 3.031l.005.005 2.521 2.521c5.78 5.78 10.735 13.288 15.147 22.953 1.996 4.372 4.863 8.394 8.765 12.295 9.714 9.715 18.611 11.25 25.76 12.483 6.344 1.095 11.355 1.959 17.704 8.308s7.213 11.36 8.308 17.704c1.233 7.148 2.769 16.045 12.483 25.76 1.464 1.464 3.384 2.197 5.303 2.197s3.839-.732 5.303-2.197c2.929-2.929 2.929-7.678 0-10.606-6.347-6.349-7.211-11.36-8.306-17.704z"/><path d="m88.957 97.623c1.233 7.148 2.768 16.045 12.483 25.76s18.612 11.25 25.76 12.483c6.344 1.094 11.355 1.959 17.704 8.308 2.614 2.614 4.487 5.205 5.727 7.919 4.765 10.439 10.206 18.832 16.564 25.621-1.555 3.95-1.907 8.563-.94 13.398 1.358 6.789 5.177 13.6 10.755 19.177s12.388 9.397 19.177 10.755c1.803.36 3.575.538 5.294.538 5.694 0 10.799-1.947 14.477-5.624 4.788-4.788 6.642-11.994 5.087-19.771-1.358-6.789-5.177-13.6-10.755-19.177s-12.388-9.397-19.177-10.755c-4.783-.956-9.347-.618-13.268.894-5.108-5.538-9.565-12.516-13.568-21.285-1.996-4.372-4.863-8.394-8.765-12.295-9.714-9.715-18.611-11.25-25.76-12.483-6.344-1.095-11.355-1.959-17.704-8.308s-7.213-11.36-8.308-17.704c-1.233-7.148-2.769-16.045-12.483-25.76-2.929-2.929-7.678-2.929-10.606 0-2.929 2.929-2.929 7.678 0 10.606 6.347 6.348 7.211 11.359 8.306 17.703zm96.793 83.089c.974 0 1.868.14 2.421.251 3.86.772 8.056 3.197 11.512 6.652 3.456 3.456 5.88 7.652 6.652 11.512.263 1.312.692 4.546-.985 6.223-1.676 1.677-4.91 1.247-6.222.984-3.86-.772-8.056-3.197-11.512-6.652-3.456-3.456-5.88-7.652-6.652-11.512-.263-1.312-.692-4.546.985-6.223.969-.97 2.461-1.235 3.801-1.235z"/></g></svg>