<svg id="Capa_1" enable-background="new 0 0 512.002 512.002" height="512" viewBox="0 0 512.002 512.002" width="512" xmlns="http://www.w3.org/2000/svg"><g><path d="m143.775 111.195c10.015 0 19.212-4.597 25.234-12.611 2.488-3.312 1.821-8.013-1.491-10.501-3.312-2.489-8.014-1.821-10.501 1.491-3.162 4.208-7.988 6.622-13.242 6.622-9.125 0-16.549-7.423-16.549-16.548s7.424-16.548 16.549-16.548c4.142 0 7.5-3.358 7.5-7.5s-3.358-7.5-7.5-7.5c-17.396 0-31.549 14.152-31.549 31.548s14.153 31.547 31.549 31.547z"/><path d="m368.227 111.195c17.396 0 31.549-14.152 31.549-31.548s-14.153-31.548-31.549-31.548c-4.142 0-7.5 3.358-7.5 7.5s3.358 7.5 7.5 7.5c9.125 0 16.549 7.423 16.549 16.548s-7.424 16.548-16.549 16.548c-5.254 0-10.081-2.414-13.242-6.622-2.489-3.312-7.19-3.979-10.501-1.491-3.312 2.488-3.979 7.19-1.491 10.501 6.021 8.016 15.219 12.612 25.234 12.612z"/><path d="m506.245 219.718-34.429-213.41c-.66-4.09-4.513-6.874-8.599-6.21-4.089.66-6.87 4.51-6.21 8.599l34.429 213.411c3.261 20.213-2.205 40.976-14.995 56.964l-118.865 148.58c-10.805 13.506-26.923 21.253-44.22 21.253h-26.375c4.816-6.061 7.891-13.558 8.472-21.738 12.483-3.009 24.593-7.448 36.074-13.244 2.495-1.259 4.082-3.801 4.12-6.595.037-2.794-1.482-5.377-3.942-6.703l-34.788-18.74c-2.507-1.351-4.263-3.617-4.944-6.382s-.179-5.587 1.414-7.947c2.324-3.446 6.566-4.979 10.558-3.815l36.909 10.767c10.731 3.13 22.275-1.79 27.45-11.698l63.956-122.483c2.863-5.483 8.484-8.889 14.669-8.889h7.679c4.142 0 7.5-3.358 7.5-7.5s-3.358-7.5-7.5-7.5h-7.679c-6.406 0-12.485 1.929-17.586 5.355l-21.492-78.805c19.632-17.534 32.014-43.025 32.014-71.356 0-33.45-16.137-66.109-16.824-67.483-1.852-3.702-6.35-5.202-10.056-3.354-3.704 1.849-5.208 6.352-3.362 10.057.152.306 15.243 30.939 15.243 60.78 0 44.486-36.191 80.678-80.677 80.678-15.699 0-30.915-4.51-44.002-13.044-3.469-2.261-8.115-1.284-10.379 2.187-2.262 3.47-1.283 8.116 2.187 10.379 15.53 10.126 33.579 15.479 52.195 15.479 18.635 0 36.04-5.361 50.762-14.613l9.484 34.775c-1.498-2.028-3.046-4.033-4.674-5.997-2.644-3.189-7.371-3.633-10.561-.989-3.189 2.643-3.632 7.371-.989 10.561 13.464 16.248 21.928 34.961 24.56 54.199l-57.763 110.623c-1.876 3.593-6.063 5.375-9.953 4.242l-36.908-10.767c-10.278-2.999-21.205.95-27.193 9.825-3.935 5.832-5.226 13.095-3.543 19.925 1.683 6.831 6.201 12.662 12.394 15.999l21.344 11.499c-7.968 3.083-16.19 5.492-24.573 7.194-9.993 2.029-20.279 3.058-30.573 3.058-19.157 0-37.649-3.439-55.162-10.244l21.359-11.507c6.193-3.336 10.711-9.168 12.394-15.999s.391-14.093-3.543-19.925c-5.988-8.875-16.916-12.827-27.192-9.825l-36.909 10.767c-3.892 1.134-8.077-.649-9.953-4.242l-57.766-110.627c2.632-19.238 11.096-37.951 24.56-54.199 2.643-3.189 2.2-7.917-.989-10.561-3.19-2.643-7.917-2.2-10.561.989-1.628 1.964-3.176 3.969-4.674 5.997l9.487-34.785c14.726 9.258 32.136 14.623 50.778 14.623 18.616 0 36.665-5.353 52.195-15.479 3.469-2.262 4.448-6.909 2.186-10.379-2.263-3.47-6.909-4.449-10.379-2.186-13.086 8.533-28.302 13.043-44.001 13.043-44.485 0-80.677-36.192-80.677-80.678 0-29.84 15.09-60.474 15.243-60.78 1.849-3.704.347-8.206-3.356-10.057-3.705-1.853-8.209-.351-10.062 3.354-.687 1.374-16.824 34.033-16.824 67.483 0 28.325 12.376 53.81 32 71.343l-21.496 78.818c-5.1-3.426-11.18-5.355-17.586-5.355h-5.468c-4.142 0-7.5 3.358-7.5 7.5s3.358 7.5 7.5 7.5h5.468c6.185 0 11.806 3.406 14.669 8.889l63.957 122.483c5.174 9.909 16.721 14.829 27.449 11.698l36.909-10.767c3.989-1.163 8.232.369 10.557 3.815 1.592 2.36 2.095 5.183 1.414 7.947s-2.437 5.031-4.944 6.381l-34.788 18.741c-2.46 1.326-3.979 3.909-3.942 6.703.038 2.794 1.625 5.336 4.12 6.595 23.553 11.889 48.963 17.917 75.526 17.917 7.995 0 15.986-.578 23.866-1.699-2.615 10.753-12.32 18.763-23.866 18.763h-57.355c-17.297 0-33.415-7.747-44.22-21.253l-118.867-148.576c-12.791-15.988-18.256-36.751-14.995-56.964l34.429-213.411c.66-4.089-2.121-7.939-6.21-8.599-4.089-.664-7.939 2.12-8.599 6.21l-34.429 213.411c-3.934 24.386 2.66 49.435 18.091 68.723l71.717 89.646c-7.215 31.373-15.394 77.688-15.394 126.414 0 4.142 3.358 7.5 7.5 7.5s7.5-3.358 7.5-7.5c0-41.618 6.167-81.53 12.438-111.359l35.103 43.879c13.667 17.084 34.054 26.883 55.933 26.883h33.832v40.597c0 4.142 3.358 7.5 7.5 7.5s7.5-3.358 7.5-7.5v-40.597h17.064v40.597c0 4.142 3.358 7.5 7.5 7.5s7.5-3.358 7.5-7.5v-40.597h33.814c21.878 0 42.265-9.798 55.933-26.883l35.11-43.888c6.272 29.83 12.44 69.746 12.44 111.367 0 4.142 3.358 7.5 7.5 7.5s7.5-3.358 7.5-7.5c0-48.729-8.181-95.049-15.396-126.423l71.71-89.638c15.433-19.286 22.027-44.334 18.093-68.721z"/><path d="m256.001 311.599c4.142 0 7.5-3.358 7.5-7.5v-8.016c0-4.142-3.358-7.5-7.5-7.5s-7.5 3.358-7.5 7.5v8.016c0 4.142 3.358 7.5 7.5 7.5z"/></g></svg>