<svg id="Capa_1" enable-background="new 0 0 511.998 511.998" height="512" viewBox="0 0 511.998 511.998" width="512" xmlns="http://www.w3.org/2000/svg"><g><path d="m344.176 464.934h-.516v-353.226c0-19.066-6.017-37.194-17.401-52.425-11-14.719-26.675-25.823-44.135-31.268-1.551-.483-2.593-1.935-2.593-3.626 0-11.903-8.441-22.252-19.633-24.072-2.584-.421-5.217-.42-7.796 0-11.194 1.821-19.635 12.17-19.635 24.089 0 1.676-1.042 3.127-2.594 3.61-17.459 5.445-33.134 16.549-44.134 31.268-11.384 15.231-17.401 33.359-17.401 52.425v353.226h-.516c-12.976 0-23.532 10.557-23.532 23.532s10.557 23.532 23.532 23.532h176.354c12.976 0 23.532-10.557 23.532-23.532s-10.556-23.533-23.532-23.533zm-109.838-422.599c7.853-2.448 13.128-9.654 13.128-17.947 0-4.554 3.094-8.625 7.046-9.268.993-.162 1.977-.163 2.975 0 3.95.643 7.043 4.713 7.043 9.283 0 8.276 5.276 15.482 13.128 17.931 30.505 9.512 51.001 37.391 51.001 69.373v321.162h-145.321v-17.064h120.758c4.142 0 7.5-3.358 7.5-7.5s-3.358-7.5-7.5-7.5h-120.758v-289.097c0-31.982 20.496-59.861 51-69.373zm109.838 454.663h-176.354c-4.705 0-8.532-3.828-8.532-8.532s3.828-8.532 8.532-8.532h112.226c4.142 0 7.5-3.358 7.5-7.5s-3.358-7.5-7.5-7.5h-96.709v-17.064h145.321v17.064h-16.548c-4.142 0-7.5 3.358-7.5 7.5s3.358 7.5 7.5 7.5h32.064c4.705 0 8.532 3.828 8.532 8.532s-3.827 8.532-8.532 8.532z"/></g></svg>