<svg id="Capa_1" enable-background="new 0 0 512 512" height="512" viewBox="0 0 512 512" width="512" xmlns="http://www.w3.org/2000/svg"><g><path d="m175.839 52.105h-13.27c-24.21 0-47.785 8.535-66.383 24.034l-45.909 38.258c-5.242-3.88-11.721-6.179-18.728-6.179-17.397 0-31.549 14.152-31.549 31.548s14.152 31.548 31.548 31.548 31.548-14.152 31.548-31.548c0-4.967-1.157-9.667-3.211-13.851l45.903-38.253c15.908-13.256 36.072-20.557 56.78-20.557h13.27c4.142 0 7.5-3.358 7.5-7.5s-3.357-7.5-7.499-7.5zm-144.291 104.209c-9.125 0-16.548-7.423-16.548-16.548s7.423-16.548 16.548-16.548 16.548 7.423 16.548 16.548-7.423 16.548-16.548 16.548z"/><path d="m480.452 108.218c-7.007 0-13.486 2.299-18.728 6.179l-45.909-38.258c-18.598-15.499-42.173-24.034-66.383-24.034h-45.334c-20.519 0-38.463 11.181-48.097 27.763-9.633-16.581-27.578-27.763-48.097-27.763-4.142 0-7.5 3.358-7.5 7.5s3.358 7.5 7.5 7.5c22.385 0 40.597 18.211 40.597 40.597v32.581h-.516c-8.556 0-15.516 6.96-15.516 15.516v251.565c-4.981 5.58-8.016 12.932-8.016 20.983 0 17.396 14.152 31.548 31.548 31.548s31.548-14.152 31.548-31.548c0-8.051-3.035-15.403-8.016-20.983v-251.566c0-8.556-6.96-15.516-15.516-15.516h-.517v-32.581c0-22.385 18.211-40.597 40.597-40.597h45.334c20.708 0 40.873 7.301 56.78 20.557l45.903 38.253c-2.053 4.184-3.211 8.884-3.211 13.851 0 17.396 14.152 31.548 31.548 31.548s31.549-14.151 31.549-31.547-14.152-31.548-31.548-31.548zm-224.452 288.58c-2.957 0-5.816.418-8.532 1.182v-18.246h17.064v18.246c-2.716-.764-5.575-1.182-8.532-1.182zm-8.532-64.129v-17.064h17.064v17.064zm17.064 15v17.064h-17.064v-17.064zm-17.064-47.064v-17.064h17.064v17.064zm0-32.064v-17.065h17.064v17.065zm0-32.065v-17.064h17.064v17.064zm17.064-32.065h-17.064v-17.064h17.064zm-8.532 240.484c-9.125 0-16.548-7.423-16.548-16.548s7.423-16.548 16.548-16.548 16.548 7.423 16.548 16.548-7.423 16.548-16.548 16.548zm8.532-289.097v16.548h-17.064v-16.548c0-.285.231-.516.516-.516h16.032c.285 0 .516.232.516.516zm215.92.516c-9.125 0-16.548-7.423-16.548-16.548s7.423-16.548 16.548-16.548 16.548 7.423 16.548 16.548-7.423 16.548-16.548 16.548z"/></g></svg>