<svg id="Capa_1" enable-background="new 0 0 512 512" height="512" viewBox="0 0 512 512" width="512" xmlns="http://www.w3.org/2000/svg"><g><path d="m349.585 256.829c-5.545-10.082-16.137-16.345-27.643-16.345h-10.346v-8.532c0-12.976-10.557-23.532-23.532-23.532h-64.129c-12.976 0-23.532 10.557-23.532 23.532v8.532h-10.346c-11.506 0-22.098 6.263-27.643 16.345l-76.363 138.842c-3.853 7.005-5.89 14.935-5.89 22.93v21.77c0 12.976 10.557 23.532 23.532 23.532h32.581v32.58c0 8.556 6.96 15.517 15.516 15.517h208.419c8.556 0 15.516-6.961 15.516-15.517v-32.58h32.581c12.976 0 23.532-10.557 23.532-23.532v-21.77c0-7.996-2.037-15.925-5.89-22.93zm-134.182-24.877c0-4.705 3.828-8.532 8.532-8.532h64.129c4.705 0 8.532 3.828 8.532 8.532v8.532h-81.193zm145.323 264.531c0 .285-.231.517-.516.517h-208.419c-.285 0-.516-.231-.516-.517v-32.58h209.451zm56.113-56.112c0 4.705-3.828 8.532-8.532 8.532h-304.614c-4.705 0-8.532-3.828-8.532-8.532v-21.77c0-.934.055-1.866.136-2.795h32.445c4.142 0 7.5-3.358 7.5-7.5s-3.358-7.5-7.5-7.5h-27.396l75.212-136.75c2.908-5.288 8.464-8.573 14.5-8.573h131.885c6.035 0 11.591 3.285 14.5 8.573l75.212 136.75h-251.848c-4.142 0-7.5 3.358-7.5 7.5s3.358 7.5 7.5 7.5h256.896c.081.929.136 1.86.136 2.795z"/><path d="m104.209 231.952c0 17.683 3.18 35.292 9.453 52.339 1.43 3.887 5.741 5.878 9.628 4.449 3.887-1.43 5.879-5.741 4.449-9.628-5.66-15.383-8.53-31.25-8.53-47.159 0-75.427 61.364-136.791 136.791-136.791s136.791 61.364 136.791 136.791c0 15.91-2.87 31.777-8.53 47.16-1.43 3.887.562 8.198 4.449 9.628.854.314 1.729.463 2.589.463 3.054 0 5.924-1.879 7.04-4.912 6.272-17.047 9.453-34.656 9.453-52.339 0-68.954-46.219-127.308-109.302-145.73 3.184-4.014 5.092-9.083 5.092-14.593 0-12.976-10.557-23.532-23.532-23.532h-48.097c-12.976 0-23.532 10.557-23.532 23.532 0 5.509 1.908 10.579 5.092 14.593-63.084 18.421-109.304 76.775-109.304 145.729zm127.743-151.791c-4.705 0-8.532-3.828-8.532-8.532s3.828-8.532 8.532-8.532h48.097c4.705 0 8.532 3.828 8.532 8.532s-3.828 8.532-8.532 8.532z"/><path d="m420.015 67.937c-43.81-43.81-102.058-67.937-164.015-67.937s-120.205 24.127-164.015 67.937-67.937 102.058-67.937 164.015c0 49.737 15.545 97.18 44.956 137.199 1.47 2 3.744 3.059 6.049 3.059 1.542 0 3.098-.474 4.436-1.457 3.338-2.453 4.055-7.147 1.602-10.485-27.504-37.426-42.042-81.797-42.042-128.316 0-57.95 22.567-112.431 63.543-153.408 40.977-40.977 95.458-63.544 153.408-63.544s112.431 22.567 153.408 63.543c40.977 40.977 63.543 95.458 63.543 153.408 0 46.519-14.538 90.89-42.042 128.316-2.453 3.338-1.736 8.032 1.602 10.485 3.338 2.455 8.032 1.736 10.485-1.602 29.41-40.02 44.956-87.462 44.956-137.199 0-61.956-24.127-120.204-67.937-164.014z"/><path d="m432.355 239.452h16.032c4.142 0 7.5-3.358 7.5-7.5s-3.358-7.5-7.5-7.5h-16.032c-4.142 0-7.5 3.358-7.5 7.5s3.358 7.5 7.5 7.5z"/><path d="m79.645 224.452h-16.032c-4.142 0-7.5 3.358-7.5 7.5s3.358 7.5 7.5 7.5h16.032c4.142 0 7.5-3.358 7.5-7.5s-3.358-7.5-7.5-7.5z"/></g></svg>