<svg id="Capa_1" enable-background="new 0 0 512.005 512.005" height="512" viewBox="0 0 512.005 512.005" width="512" xmlns="http://www.w3.org/2000/svg"><g><path d="m424.247 109.616c-10.003-22.637-24.258-42.744-42.368-59.761-37.361-35.108-86.244-52.686-137.627-49.483-89.507 5.57-163.155 77.018-171.313 166.191-4.406 48.162 9.748 95.245 39.854 132.576 28.251 35.032 67.701 58.237 111.66 65.83v35.843h-24.564c-12.976 0-23.532 10.557-23.532 23.532v16.032c0 12.976 10.557 23.532 23.532 23.532h24.564v24.564c0 12.976 10.557 23.532 23.532 23.532h16.032c12.976 0 23.532-10.557 23.532-23.532v-24.564h24.564c12.976 0 23.532-10.557 23.532-23.532v-16.032c0-12.976-10.557-23.532-23.532-23.532h-24.564v-35.845c41.127-7.126 78.755-28.18 106.539-59.75 29.514-33.536 45.768-76.634 45.768-121.357 0-25.826-5.252-50.806-15.609-74.244zm-41.419 185.692c-26.856 30.516-63.717 50.333-103.792 55.801-3.716.507-6.486 3.681-6.486 7.431v49.772c0 4.142 3.358 7.5 7.5 7.5h32.064c4.705 0 8.532 3.828 8.532 8.532v16.032c0 4.705-3.828 8.532-8.532 8.532h-32.064c-4.142 0-7.5 3.358-7.5 7.5v32.064c0 4.705-3.828 8.532-8.532 8.532h-16.032c-4.705 0-8.532-3.827-8.532-8.532v-32.064c0-4.142-3.358-7.5-7.5-7.5h-32.064c-4.705 0-8.532-3.828-8.532-8.532v-16.032c0-4.705 3.828-8.532 8.532-8.532h32.064c4.142 0 7.5-3.358 7.5-7.5v-49.772c0-3.75-2.77-6.924-6.486-7.431-42.746-5.832-81.278-27.633-108.499-61.386-27.646-34.28-40.641-77.534-36.592-121.793 7.49-81.873 75.118-147.472 157.308-152.587 47.211-2.936 92.111 13.2 126.423 45.443 34.338 32.267 53.249 75.976 53.249 123.075-.001 41.072-14.927 80.651-42.029 111.447z"/><path d="m185.621 253.287 20.044-7.796c6.73 5.534 14.148 9.847 22.146 12.879l3.255 21.155c.485 3.154 2.914 5.656 6.053 6.235 6.549 1.208 12.725 1.794 18.882 1.794s12.333-.587 18.882-1.794c3.139-.579 5.567-3.081 6.053-6.235l3.255-21.155c7.997-3.032 15.415-7.345 22.146-12.879l20.044 7.796c2.976 1.158 6.355.304 8.427-2.125 4.32-5.068 7.917-10.124 10.995-15.455 3.077-5.329 5.657-10.971 7.887-17.25 1.068-3.008.116-6.362-2.374-8.36l-16.74-13.434c.711-4.301 1.07-8.59 1.07-12.803s-.359-8.502-1.07-12.804l16.741-13.434c2.489-1.998 3.441-5.353 2.373-8.36-2.23-6.276-4.81-11.918-7.887-17.249-3.078-5.331-6.674-10.386-10.995-15.456-2.07-2.429-5.451-3.284-8.427-2.125l-20.044 7.796c-6.731-5.534-14.149-9.848-22.146-12.878l-3.255-21.155c-.485-3.155-2.914-5.657-6.053-6.235-13.103-2.414-24.661-2.414-37.764 0-3.139.579-5.568 3.081-6.053 6.235l-3.255 21.155c-7.997 3.031-15.415 7.345-22.146 12.878l-20.044-7.796c-2.975-1.159-6.356-.305-8.427 2.125-4.321 5.069-7.917 10.125-10.995 15.456-3.078 5.33-5.657 10.972-7.887 17.249-1.068 3.008-.116 6.362 2.373 8.36l16.741 13.434c-.711 4.301-1.07 8.591-1.07 12.804s.359 8.502 1.07 12.803l-16.74 13.434c-2.49 1.998-3.442 5.353-2.374 8.36 2.23 6.278 4.811 11.921 7.887 17.25 3.078 5.332 6.675 10.387 10.995 15.455 2.071 2.429 5.452 3.284 8.427 2.125zm4.723-47.758c2.232-1.792 3.25-4.697 2.625-7.489-1.07-4.778-1.613-9.549-1.613-14.18s.543-9.402 1.613-14.18c.626-2.792-.392-5.698-2.624-7.489l-16-12.84c1.449-3.48 3.05-6.729 4.845-9.837 1.795-3.109 3.809-6.121 6.098-9.116l19.163 7.454c2.67 1.039 5.696.465 7.802-1.475 7.199-6.636 15.446-11.432 24.512-14.253 2.737-.852 4.749-3.188 5.184-6.021l3.11-20.213c7.477-.971 14.408-.971 21.885 0l3.11 20.213c.436 2.833 2.447 5.169 5.184 6.021 9.066 2.821 17.313 7.617 24.512 14.253 2.105 1.94 5.133 2.514 7.802 1.475l19.163-7.454c2.289 2.995 4.303 6.007 6.098 9.116 1.794 3.108 3.396 6.357 4.845 9.837l-16 12.84c-2.232 1.792-3.25 4.697-2.624 7.489 1.07 4.778 1.613 9.549 1.613 14.18s-.543 9.401-1.613 14.18c-.626 2.792.392 5.698 2.625 7.489l16 12.839c-1.449 3.481-3.05 6.73-4.845 9.838-1.795 3.109-3.809 6.121-6.098 9.115l-19.163-7.453c-2.67-1.039-5.697-.465-7.802 1.475-7.198 6.636-15.445 11.431-24.512 14.253-2.736.852-4.748 3.188-5.184 6.021l-3.11 20.213c-7.475.97-14.41.97-21.885 0l-3.11-20.213c-.436-2.832-2.447-5.169-5.184-6.021-9.067-2.822-17.314-7.618-24.512-14.253-2.105-1.94-5.131-2.515-7.802-1.475l-19.163 7.453c-2.289-2.994-4.303-6.006-6.098-9.115-1.794-3.108-3.396-6.357-4.845-9.838z"/><path d="m256.001 215.409c17.396 0 31.548-14.152 31.548-31.548s-14.152-31.548-31.548-31.548-31.548 14.152-31.548 31.548 14.152 31.548 31.548 31.548zm0-48.097c9.125 0 16.548 7.423 16.548 16.548s-7.423 16.548-16.548 16.548-16.548-7.423-16.548-16.548 7.423-16.548 16.548-16.548z"/><path d="m135.242 183.86c0-66.586 54.172-120.758 120.758-120.758 26.961 0 52.535 8.8 73.957 25.448 3.271 2.542 7.982 1.95 10.524-1.319 2.542-3.271 1.951-7.982-1.319-10.524-24.079-18.713-52.835-28.604-83.162-28.604-74.857 0-135.758 60.901-135.758 135.758 0 30.327 9.891 59.083 28.604 83.161 1.479 1.902 3.691 2.898 5.927 2.898 1.608 0 3.229-.515 4.597-1.579 3.271-2.542 3.861-7.254 1.319-10.524-16.647-21.421-25.447-46.995-25.447-73.957z"/><path d="m363.155 100.699c-2.542-3.269-7.253-3.861-10.524-1.319s-3.861 7.254-1.319 10.524c16.648 21.421 25.448 46.995 25.448 73.957 0 66.586-54.172 120.758-120.758 120.758-26.961 0-52.535-8.8-73.958-25.448-3.27-2.541-7.982-1.95-10.524 1.32-2.542 3.271-1.951 7.982 1.32 10.524 24.079 18.713 52.836 28.604 83.162 28.604 74.857 0 135.758-60.901 135.758-135.758-.001-30.328-9.892-59.085-28.605-83.162z"/></g></svg>