<svg id="Capa_1" enable-background="new 0 0 512 512" height="512" viewBox="0 0 512 512" width="512" xmlns="http://www.w3.org/2000/svg"><g><path d="m352.193 240.484c-74.857 0-135.758 60.901-135.758 135.758s60.901 135.758 135.758 135.758 135.758-60.901 135.758-135.758c.001-74.857-60.9-135.758-135.758-135.758zm0 256.516c-66.586 0-120.758-54.172-120.758-120.758s54.172-120.758 120.758-120.758 120.758 54.172 120.758 120.758c.001 66.586-54.171 120.758-120.758 120.758z"/><path d="m413.61 314.826c-2.929-2.929-7.678-2.929-10.606 0l-112.227 112.226c-2.929 2.929-2.929 7.678 0 10.606 1.464 1.464 3.384 2.197 5.303 2.197s3.839-.732 5.303-2.197l112.227-112.226c2.929-2.929 2.929-7.678 0-10.606z"/><path d="m304.613 360.209c0 4.142 3.358 7.5 7.5 7.5s7.5-3.358 7.5-7.5v-16.548h16.548c4.142 0 7.5-3.358 7.5-7.5s-3.358-7.5-7.5-7.5h-16.548v-16.548c0-4.142-3.358-7.5-7.5-7.5s-7.5 3.358-7.5 7.5v16.548h-16.548c-4.142 0-7.5 3.358-7.5 7.5s3.358 7.5 7.5 7.5h16.548z"/><path d="m416.323 408.823h-48.097c-4.142 0-7.5 3.358-7.5 7.5s3.358 7.5 7.5 7.5h48.097c4.142 0 7.5-3.358 7.5-7.5s-3.358-7.5-7.5-7.5z"/><path d="m191.207 382.545c-8.169 1.5-15.818 2.229-23.384 2.229-71.006 0-128.774-57.768-128.774-128.774 0-60.03 36.193-122.712 66.556-164.726 25.595-35.417 51.481-62.506 62.211-73.261 22.166 22.282 109.129 114.641 125.905 207.696.735 4.076 4.633 6.784 8.711 6.05 4.077-.735 6.785-4.635 6.05-8.711-8.441-46.824-33.841-98.277-75.496-152.927-30.858-40.488-58.845-66.974-60.022-68.081-2.888-2.719-7.394-2.719-10.282-.001-1.413 1.329-34.979 33.095-69.074 80.225-46.156 63.805-69.56 122.258-69.56 173.736 0 79.277 64.497 143.774 143.774 143.774 8.486 0 17.021-.81 26.094-2.477 4.074-.748 6.77-4.657 6.021-8.731-.747-4.073-4.653-6.774-8.73-6.021z"/><path d="m165.198 218.05c0-16.147-13.689-29.283-30.516-29.283h-22.273v.001c-.009 0-.018-.001-.027-.001-4.142 0-7.5 3.358-7.5 7.5v83.817c0 4.142 3.358 7.5 7.5 7.5s7.5-3.358 7.5-7.5v-31.615l32.186 36.57c1.482 1.685 3.552 2.545 5.633 2.545 1.76 0 3.527-.616 4.952-1.87 3.109-2.736 3.412-7.476.675-10.585l-24.688-28.05c14.963-1.87 26.558-14.17 26.558-29.029zm-30.515 14.283c-2.796 0-9.671.019-14.8.041v-28.607h14.8c8.41 0 15.516 6.541 15.516 14.283s-7.106 14.283-15.516 14.283z"/><path d="m218.503 280.111c.015 4.133 3.37 7.473 7.5 7.473h.028c4.142-.015 7.488-3.385 7.473-7.527l-.101-27.474c.067-12.954-2.465-21.563-7.969-27.097-4.187-4.209-9.952-6.343-17.134-6.343-4.68 0-8.982 1.198-12.735 3.365v-22.656c0-4.142-3.358-7.5-7.5-7.5s-7.5 3.358-7.5 7.5v80.232c0 4.142 3.358 7.5 7.5 7.5s7.5-3.358 7.5-7.5v-27.541c0-10.834 5.237-18.4 12.735-18.4 4.113 0 5.679 1.097 6.5 1.922 1.674 1.683 3.658 5.901 3.604 16.506z"/></g></svg>