<svg id="Capa_1" enable-background="new 0 0 511.999 511.999" height="512" viewBox="0 0 511.999 511.999" width="512" xmlns="http://www.w3.org/2000/svg"><g><path d="m473.744 295.564c21.094 0 38.255-17.161 38.255-38.255v-195.006c0-21.094-17.161-38.255-38.255-38.255h-307.231c-21.094 0-38.255 17.161-38.255 38.255v195.006c0 21.094 17.161 38.255 38.255 38.255h130.085v17.064h-40.598c-12.976 0-23.532 10.557-23.532 23.532v32.064c0 12.976 10.557 23.532 23.532 23.532h128.258c12.976 0 23.533-10.557 23.533-23.532v-8.532h80.677c4.705 0 8.532 3.828 8.532 8.532v32.064c0 4.705-3.828 8.532-8.532 8.532h-336.679c-4.705 0-8.532-3.827-8.532-8.532v-32.064c0-4.704 3.828-8.532 8.532-8.532h56.113c4.142 0 7.5-3.357 7.5-7.5 0-4.142-3.358-7.5-7.5-7.5h-56.113c-12.976 0-23.532 10.557-23.532 23.532v32.064c0 12.976 10.557 23.532 23.532 23.532h.516v.517c0 26.805-21.808 48.613-48.613 48.613s-48.612-21.806-48.612-48.611v-105.959c9.308-3.139 16.032-11.946 16.032-22.3v-59.483c0-3.388 1.832-6.422 4.557-7.551 12.331-5.103 20.146-17.499 19.447-30.845-.876-16.746-15.312-29.863-32.865-29.863h-29.342c-17.552 0-31.988 13.117-32.865 29.863-.699 13.347 7.116 25.742 19.447 30.845 2.726 1.128 4.558 4.163 4.558 7.551v59.483c0 10.354 6.724 19.161 16.032 22.3v105.958c0 35.076 28.537 63.613 63.613 63.613s63.613-28.537 63.613-63.613v-.517h321.162c12.976 0 23.532-10.557 23.532-23.532v-32.064c0-12.976-10.557-23.532-23.532-23.532h-80.679v-8.532c0-12.976-10.557-23.532-23.533-23.532h-40.597v-17.064h130.084zm-458.721-96.578c.452-8.628 8.476-15.647 17.886-15.647h29.343c9.41 0 17.434 7.019 17.885 15.647.368 7.013-3.733 13.523-10.203 16.201-8.396 3.475-13.821 11.878-13.821 21.41v19.918h-17.065v-19.918c0-9.531-5.425-17.936-13.822-21.41-6.47-2.678-10.57-9.188-10.203-16.201zm24.025 72.53h17.064v24.564c0 4.705-3.828 8.533-8.532 8.533s-8.532-3.828-8.532-8.533zm104.209-14.207v-195.006c0-12.823 10.432-23.255 23.255-23.255h307.231c12.823 0 23.255 10.432 23.255 23.255v195.006c0 12.823-10.432 23.255-23.255 23.255h-307.23c-12.824 0-23.256-10.432-23.256-23.255zm249.533 78.852v32.064c0 4.705-3.828 8.532-8.533 8.532h-128.258c-4.705 0-8.532-3.827-8.532-8.532v-32.064c0-4.704 3.828-8.532 8.532-8.532h128.258c4.705 0 8.533 3.828 8.533 8.532zm-64.13-23.532h-17.063v-17.064h17.063z"/><path d="m479.935 256v-192.388c0-4.142-3.358-7.5-7.5-7.5h-304.613c-4.142 0-7.5 3.358-7.5 7.5v192.388c0 4.142 3.358 7.5 7.5 7.5h240.484c4.142 0 7.5-3.358 7.5-7.5s-3.358-7.5-7.5-7.5h-232.984v-177.388h289.613v177.388h-24.565c-4.142 0-7.5 3.358-7.5 7.5s3.358 7.5 7.5 7.5h32.064c4.143 0 7.501-3.358 7.501-7.5z"/><path d="m24.382 115.536c14.959-5.743 31.438-5.743 46.396 0 .884.339 1.793.5 2.687.5 3.015 0 5.858-1.832 7.003-4.814 1.484-3.867-.447-8.205-4.314-9.689-18.427-7.074-38.722-7.074-57.148 0-3.867 1.484-5.798 5.822-4.314 9.689 1.485 3.868 5.825 5.799 9.69 4.314z"/><path d="m30.525 131.479c-3.867 1.484-5.799 5.822-4.315 9.689 1.483 3.867 5.821 5.8 9.689 4.315 7.533-2.891 15.829-2.891 23.362 0 .884.339 1.792.5 2.686.5 3.015 0 5.859-1.832 7.003-4.815 1.484-3.867-.448-8.205-4.315-9.689-10.998-4.221-23.112-4.221-34.11 0z"/><path d="m328.144 344.693h-16.032c-4.142 0-7.5 3.358-7.5 7.5 0 4.143 3.358 7.5 7.5 7.5h16.032c4.142 0 7.5-3.357 7.5-7.5 0-4.142-3.358-7.5-7.5-7.5z"/><path d="m360.209 359.693h8.016c4.142 0 7.5-3.357 7.5-7.5 0-4.142-3.358-7.5-7.5-7.5h-8.016c-4.142 0-7.5 3.358-7.5 7.5 0 4.143 3.358 7.5 7.5 7.5z"/><path d="m280.048 344.693h-8.016c-4.142 0-7.5 3.358-7.5 7.5 0 4.143 3.358 7.5 7.5 7.5h8.016c4.142 0 7.5-3.357 7.5-7.5 0-4.142-3.358-7.5-7.5-7.5z"/><path d="m348.593 92.789c-1.104-1.656-2.821-2.806-4.773-3.195s-3.979.013-5.633 1.119c-5.368 3.585-11.612 5.48-18.058 5.48s-12.69-1.895-18.058-5.48c-1.654-1.106-3.681-1.508-5.633-1.119-1.952.39-3.669 1.539-4.773 3.195l-66.695 100.042c-2.296 3.444-1.368 8.097 2.074 10.397 27.625 18.453 59.813 28.207 93.085 28.207s65.461-9.754 93.085-28.207c3.442-2.3 4.371-6.953 2.074-10.397zm-28.465 123.646c-27.787 0-54.742-7.471-78.421-21.67l9.467-14.2c6.383 3.77 13.074 7.028 19.964 9.695.89.344 1.806.507 2.706.507 3.007 0 5.846-1.822 6.996-4.794 1.496-3.863-.424-8.207-4.287-9.702-5.872-2.272-11.584-5.026-17.048-8.203l27.346-41.02c10.217 5.364 21.658 8.193 33.277 8.193 4.142 0 7.5-3.358 7.5-7.5 0-4.143-3.358-7.5-7.5-7.5-8.66 0-17.191-1.982-24.901-5.757l5.081-7.622c6.19 2.848 12.925 4.33 19.819 4.33s13.63-1.482 19.82-4.33l22.964 34.446c-13.054 7.2-27.741 10.997-42.784 10.997-7.514 0-14.976-.94-22.178-2.794-4.011-1.032-8.101 1.382-9.133 5.394-1.033 4.012 1.382 8.101 5.394 9.133 8.423 2.168 17.143 3.268 25.917 3.268 18.008 0 35.588-4.653 51.131-13.477l9.482 14.224c-9.173 5.338-18.966 9.446-29.227 12.2-10.18 2.731-20.739 4.117-31.386 4.117-3.577 0-7.186-.158-10.726-.47-4.124-.362-7.766 2.688-8.128 6.814-.363 4.126 2.688 7.766 6.814 8.128 15.834 1.4 32.036.01 47.314-4.103 11.841-3.178 23.128-7.955 33.673-14.188l9.474 14.212c-23.677 14.202-50.633 21.672-78.42 21.672z"/></g></svg>