<svg id="Capa_1" enable-background="new 0 0 512 512" height="512" viewBox="0 0 512 512" width="512" xmlns="http://www.w3.org/2000/svg"><g><path d="m464.419 32.064h-25.389c-16.014 0-32.049 3.785-46.373 10.947l-26.893 13.446c-4.696 2.348-9.657 4.171-14.753 5.453-1.255-9.185-4.274-18.068-8.921-26.102-2.074-3.585-6.664-4.81-10.248-2.737-3.585 2.074-4.811 6.662-2.737 10.248 3.69 6.379 6.082 13.44 7.063 20.743-.966.039-1.932.066-2.899.066h-154.539c-.963 0-1.925-.027-2.887-.066 3.711-27.658 27.45-49.062 56.109-49.062h48.097c9.603 0 19.086 2.445 27.425 7.071 3.624 2.01 8.188.702 10.197-2.92s.702-8.188-2.92-10.197c-10.561-5.858-22.56-8.954-34.703-8.954h-48.097c-36.2 0-66.194 26.999-70.952 61.914-5.101-1.283-10.065-3.107-14.764-5.456l-26.893-13.447c-14.324-7.162-30.359-10.947-46.373-10.947h-25.388c-26.236 0-47.581 21.345-47.581 47.581s21.345 47.581 47.581 47.581h9.671c4.233 13.786 19.851 24.049 38.426 24.049s34.193-10.263 38.426-24.049h26.22v16.549c0 32.904 16.635 63.093 44.499 80.757 7.272 4.61 11.614 12.388 11.614 20.806v162.969c0 10.391 6.772 19.224 16.133 22.334-.062.564-.1 1.135-.1 1.715v32.064c0 8.556 6.96 15.516 15.516 15.516h1.238c3.516 18.24 19.591 32.064 38.842 32.064 21.816 0 39.564-17.749 39.564-39.564v-160.323c0-9.125 7.423-16.548 16.548-16.548s16.548 7.423 16.548 16.548v192.387c0 4.143 3.358 7.5 7.5 7.5s7.5-3.357 7.5-7.5v-192.387c0-17.396-14.152-31.548-31.548-31.548s-31.548 14.152-31.548 31.548v160.323c0 13.545-11.02 24.564-24.564 24.564-10.942 0-20.232-7.193-23.4-17.097 8.254-.343 14.868-7.146 14.868-15.483v-32.064c0-.58-.038-1.151-.1-1.715 9.36-3.11 16.133-11.943 16.133-22.334v-162.97c0-8.417 4.342-16.195 11.614-20.806 27.864-17.664 44.499-47.854 44.499-80.757v-16.549h26.22c4.233 13.786 19.851 24.049 38.426 24.049s34.193-10.263 38.426-24.049h9.671c26.236 0 47.581-21.345 47.581-47.581s-21.349-47.58-47.585-47.58zm-368.742 104.21c-13.315 0-24.564-7.579-24.564-16.549s11.249-16.548 24.564-16.548 24.564 7.578 24.564 16.548-11.248 16.549-24.564 16.549zm38.426-24.048c-4.233-13.786-19.851-24.048-38.426-24.048s-34.192 10.262-38.425 24.048h-9.671c-17.965 0-32.581-14.616-32.581-32.581s14.616-32.581 32.581-32.581h25.389c13.697 0 27.413 3.238 39.665 9.363l26.893 13.446c6.582 3.291 13.594 5.732 20.796 7.28v35.071h-26.221zm97.333 207.387h17.064v97.226h-.516-8.016c-4.705 0-8.532-3.828-8.532-8.532zm16.032 144.806v-32.064c0-.285.231-.516.516-.516h16.032c.285 0 .516.231.516.516v32.064c0 .285-.231.516-.516.516h-16.032c-.285.001-.516-.231-.516-.516zm24.564-47.58h-8.016-.516v-97.226h17.064v88.694c0 4.704-3.827 8.532-8.532 8.532zm64.645-273.065c0 27.737-14.03 53.191-37.53 68.088-11.636 7.377-18.583 19.891-18.583 33.475v59.275h-17.064v-98.458c9.308-3.139 16.032-11.946 16.032-22.3 0-12.976-10.557-23.532-23.532-23.532s-23.532 10.557-23.532 23.532c0 10.353 6.724 19.16 16.032 22.3v98.458h-17.064v-59.275c0-13.583-6.947-26.098-18.583-33.475-23.5-14.897-37.53-40.351-37.53-68.088v-64.721c1.135.045 2.271.076 3.407.076h154.54c1.136 0 2.272-.031 3.407-.076zm-80.677 48.613c-4.705 0-8.532-3.828-8.532-8.532s3.828-8.532 8.532-8.532 8.532 3.828 8.532 8.532-3.827 8.532-8.532 8.532zm160.323-56.113c-13.315 0-24.564-7.579-24.564-16.549s11.249-16.548 24.564-16.548 24.564 7.578 24.564 16.548-11.249 16.549-24.564 16.549zm48.096-24.048h-9.671c-4.233-13.786-19.851-24.048-38.426-24.048s-34.193 10.262-38.426 24.048h-26.22v-35.072c7.202-1.549 14.214-3.989 20.796-7.28l26.893-13.446c12.252-6.126 25.968-9.364 39.665-9.364h25.389c17.965 0 32.581 14.616 32.581 32.581s-14.616 32.581-32.581 32.581z"/><path d="m216.687 144.542c-2.929 2.929-2.929 7.677 0 10.606s7.678 2.929 10.606 0c15.829-15.828 41.584-15.828 57.413 0 1.464 1.464 3.384 2.197 5.303 2.197s3.839-.732 5.303-2.197c2.929-2.929 2.929-7.678 0-10.606-21.676-21.677-56.948-21.677-78.625 0z"/><path d="m194.014 121.869c-2.929 2.929-2.929 7.678 0 10.606 2.929 2.929 7.678 2.929 10.606 0 28.331-28.33 74.428-28.33 102.759 0 1.464 1.464 3.384 2.197 5.303 2.197s3.839-.732 5.303-2.197c2.929-2.929 2.929-7.678 0-10.606-34.178-34.18-89.792-34.18-123.971 0z"/></g></svg>