<svg id="Capa_1" enable-background="new 0 0 512 512" height="512" viewBox="0 0 512 512" width="512" xmlns="http://www.w3.org/2000/svg"><g><path d="m336.161 104.21c-4.142 0-7.5 3.357-7.5 7.5v339.761c0 .282-.175.497-.302.544-45.987 17.028-98.734 17.028-144.717-.001-.127-.047-.303-.262-.303-.543v-19.117c0-4.142-3.358-7.5-7.5-7.5s-7.5 3.358-7.5 7.5v19.117c0 6.506 4.059 12.378 10.097 14.611 24.648 9.128 51.101 13.691 77.563 13.69 26.456-.001 52.922-4.564 77.568-13.69 6.038-2.235 10.094-8.107 10.094-14.611v-339.761c0-4.143-3.358-7.5-7.5-7.5z"/><path d="m333.563 45.917c-24.83-9.192-50.926-13.853-77.563-13.853-26.635 0-52.733 4.661-77.574 13.854-6.033 2.237-10.087 8.108-10.087 14.61v339.762c0 4.143 3.358 7.5 7.5 7.5s7.5-3.357 7.5-7.5v-339.762c0-.283.175-.498.297-.544 23.165-8.573 47.512-12.92 72.364-12.92 24.854 0 49.199 4.347 72.358 12.921.127.047.303.262.303.543v19.117c0 4.142 3.358 7.5 7.5 7.5s7.5-3.358 7.5-7.5v-19.117c0-6.506-4.059-12.378-10.098-14.611z"/><path d="m406.383 186.532-21.509-10.755c-5.643-2.821-9.148-8.493-9.148-14.801v-100.449c0-19.852-12.467-37.806-31.022-44.677-28.402-10.517-58.246-15.85-88.704-15.85s-60.302 5.333-88.704 15.851c-18.555 6.871-31.022 24.825-31.022 44.677v100.449c0 6.308-3.505 11.98-9.148 14.801l-21.509 10.755c-10.757 5.378-17.44 16.191-17.44 28.218v82.5c0 12.027 6.683 22.839 17.44 28.218l21.509 10.755c5.643 2.821 9.148 8.493 9.148 14.801v100.448c0 19.852 12.467 37.806 31.022 44.677 28.403 10.517 58.247 15.85 88.704 15.85s60.301-5.333 88.703-15.85c18.556-6.871 31.022-24.826 31.022-44.677v-100.449c0-6.308 3.505-11.98 9.148-14.801l21.509-10.755c10.757-5.378 17.44-16.191 17.44-28.218v-82.5c.001-12.027-6.682-22.839-17.439-28.218zm2.44 110.718c0 6.309-3.505 11.98-9.148 14.802l-21.509 10.754c-10.757 5.378-17.44 16.191-17.44 28.218v100.448c0 13.607-8.532 25.908-21.231 30.611-26.73 9.898-54.822 14.917-83.495 14.917s-56.765-5.019-83.494-14.917c-12.699-4.703-21.231-17.004-21.231-30.611v-100.448c0-12.027-6.683-22.839-17.44-28.218l-21.509-10.754c-5.643-2.821-9.148-8.493-9.148-14.802v-82.5c0-6.309 3.505-11.98 9.148-14.802l21.509-10.754c10.757-5.378 17.44-16.191 17.44-28.218v-100.449c0-13.606 8.532-25.908 21.231-30.61 26.728-9.898 54.82-14.917 83.494-14.917s56.766 5.019 83.495 14.917c12.699 4.702 21.231 17.004 21.231 30.61v100.449c0 12.027 6.683 22.839 17.44 28.218l21.509 10.754c5.643 2.821 9.148 8.493 9.148 14.802z"/><path d="m209.829 383.029c4.489 5.547 11.161 8.729 18.303 8.729h55.737c7.142 0 13.813-3.182 18.303-8.729 4.461-5.512 6.172-12.645 4.696-19.57-7.5-35.175-11.303-71.329-11.303-107.459s3.803-72.284 11.303-107.459c1.477-6.925-.235-14.058-4.696-19.57-4.489-5.547-11.161-8.729-18.303-8.729h-55.737c-7.142 0-13.813 3.182-18.303 8.729-4.461 5.512-6.172 12.645-4.696 19.57 7.5 35.175 11.303 71.329 11.303 107.459s-3.803 72.284-11.303 107.459c-1.477 6.925.235 14.058 4.696 19.57zm9.974-237.616c-.723-3.39.746-5.845 1.686-7.006 1.628-2.012 4.049-3.165 6.643-3.165h55.737c2.594 0 5.015 1.153 6.643 3.165.94 1.161 2.409 3.616 1.686 7.006-7.719 36.201-11.633 73.408-11.633 110.587s3.914 74.386 11.633 110.587c.723 3.39-.746 5.845-1.686 7.006-1.628 2.012-4.049 3.165-6.643 3.165h-55.737c-2.594 0-5.015-1.153-6.643-3.165-.94-1.161-2.409-3.616-1.686-7.006 7.719-36.201 11.633-73.408 11.633-110.587s-3.914-74.386-11.633-110.587z"/></g></svg>