<svg id="Capa_1" enable-background="new 0 0 511.981 511.981" height="512" viewBox="0 0 511.981 511.981" width="512" xmlns="http://www.w3.org/2000/svg"><g><path d="m488.449 140.273h-96.193c-12.976 0-23.533 10.557-23.533 23.532s10.557 23.532 23.533 23.532h40.695v8.532c0 4.705-3.828 8.532-8.532 8.532h-88.276c-6.295 0-12.21 2.454-16.657 6.91s-6.888 10.376-6.875 16.671l.017 8.484h-52.327c-1.925-4.529-4.72-8.772-8.408-12.46l-184.371-184.371c-7.472-7.473-17.408-11.588-27.976-11.588s-20.503 4.115-27.976 11.588c-15.426 15.426-15.426 40.526 0 55.953l116.67 116.67v96.354h-8.533c-12.976 0-23.532 10.557-23.532 23.532v104.726h-56.008c-13.318 0-24.153 10.835-24.153 24.153v15.411c0 4.142 3.358 7.5 7.5 7.5h328.661c4.142 0 7.5-3.358 7.5-7.5v-15.411c0-13.318-10.835-24.153-24.153-24.153h-112.121v-104.726c0-10.354-6.724-19.161-16.032-22.3v-21.909c5.123 2.361 10.739 3.612 16.548 3.612 3.799 0 7.514-.54 11.064-1.569 5.691 15.083 20.304 25.617 37.032 25.617h80.161c21.816 0 39.565-17.748 39.565-39.564 0-21.815-17.749-39.564-39.565-39.564h-24.547l-.017-8.515c-.005-2.282.881-4.429 2.493-6.044 1.612-1.616 3.757-2.505 6.04-2.505h88.276c12.976 0 23.532-10.556 23.532-23.532v-8.532h40.498c12.976 0 23.532-10.557 23.532-23.532s-10.556-23.534-23.532-23.534zm-175.791 111.193.035 17.064h-52.84c2.478-5.395 3.672-11.236 3.597-17.064zm-169.418-24.208 34.159 34.16c-9.855 2.808-17.095 11.886-17.095 22.63v24.564h-17.064zm49.129 81.354h-17.064v-24.564c0-4.705 3.828-8.532 8.532-8.532s8.532 3.827 8.532 8.532zm152.306 152.411v7.911h-313.661v-7.911c0-5.047 4.106-9.153 9.153-9.153h295.355c5.047 0 9.153 4.106 9.153 9.153zm-136.274-104.315h-56.629c-4.142 0-7.5 3.358-7.5 7.5s3.358 7.5 7.5 7.5h56.629v65.161h-97.226v-65.161h8.532c4.142 0 7.5-3.358 7.5-7.5s-3.358-7.5-7.5-7.5h-8.532v-24.564c0-4.705 3.828-8.532 8.532-8.532h80.162c4.705 0 8.532 3.827 8.532 8.532zm-1.854-87.356-184.371-184.371c-4.64-4.64-7.195-10.808-7.195-17.37 0-3.977.944-7.807 2.717-11.242l176.867 176.868c1.464 1.464 3.384 2.196 5.303 2.196s3.839-.732 5.303-2.196c2.929-2.929 2.929-7.678 0-10.606l-176.867-176.868c3.435-1.772 7.265-2.716 11.241-2.716 6.562 0 12.73 2.555 17.37 7.194l184.371 184.371c4.64 4.64 7.195 10.809 7.195 17.37 0 3.977-.944 7.806-2.717 11.241l-16.545-16.545c-2.929-2.929-7.678-2.929-10.606 0-2.929 2.929-2.929 7.678 0 10.606l16.545 16.545c-3.435 1.772-7.265 2.717-11.241 2.717-6.562.001-12.73-2.554-17.37-7.194zm145.628 31.243h-80.161c-10.814 0-20.201-7.086-23.396-17.064h126.947c-3.179 9.887-12.461 17.064-23.39 17.064zm0-49.129c10.93 0 20.212 7.177 23.39 17.064h-47.871l-.035-17.064zm136.274-79.129h-96.193c-4.705 0-8.533-3.828-8.533-8.532s3.828-8.532 8.533-8.532h96.193c4.705 0 8.532 3.828 8.532 8.532s-3.827 8.532-8.532 8.532z"/></g></svg>