<svg id="Capa_1" enable-background="new 0 0 512 512" height="512" viewBox="0 0 512 512" width="512" xmlns="http://www.w3.org/2000/svg"><g><path d="m372.234 112.226h-32.581v-97.226h16.548c4.142 0 7.5-3.358 7.5-7.5s-3.358-7.5-7.5-7.5h-80.161c-4.142 0-7.5 3.358-7.5 7.5s3.358 7.5 7.5 7.5h16.548v97.226h-32.581c-4.142 0-7.5 3.358-7.5 7.5 0 4.143 3.358 7.5 7.5 7.5h16.548v241c0 10.354 6.724 19.161 16.032 22.3v41.829c0 10.354 6.724 19.161 16.032 22.3v49.845c0 4.142 3.358 7.5 7.5 7.5s7.5-3.358 7.5-7.5v-49.845c9.308-3.139 16.032-11.946 16.032-22.3v-41.829c9.308-3.139 16.032-11.946 16.032-22.3v-192.387c0-4.143-3.358-7.5-7.5-7.5s-7.5 3.357-7.5 7.5v112.742h-17.064v-161.355h17.064v16.549c0 4.142 3.358 7.5 7.5 7.5s7.5-3.358 7.5-7.5v-16.549h16.548c4.142 0 7.5-3.357 7.5-7.5.003-4.142-3.355-7.5-7.497-7.5zm-64.645-97.226h17.064v97.226h-17.064zm8.532 425.887c-4.705 0-8.532-3.828-8.532-8.533v-40.597h17.064v40.597c0 4.706-3.827 8.533-8.532 8.533zm24.565-72.661c0 4.705-3.828 8.532-8.532 8.532h-32.064c-4.705 0-8.532-3.827-8.532-8.532v-64.645h49.129v64.645zm-32.065-79.645h-17.064v-161.355h17.064z"/><path d="m219.927 287.548c12.976 0 23.532-10.556 23.532-23.532s-10.557-23.532-23.532-23.532h-64.129c-12.976 0-23.532 10.556-23.532 23.532s10.557 23.532 23.532 23.532h.516v17.064h-1.145c-12.629 0-22.903 10.274-22.903 22.903v8.645c0 4.143 3.358 7.5 7.5 7.5s7.5-3.357 7.5-7.5v-8.645c0-4.358 3.545-7.903 7.903-7.903h1.145v.516c0 17.396 14.152 31.549 31.548 31.549s31.548-14.153 31.548-31.549v-.516h1.145c4.358 0 7.903 3.545 7.903 7.903v50.218c-3.857 1.079-6.536 2.854-8.692 4.291-2.662 1.773-4.128 2.75-7.876 2.75s-5.215-.977-7.877-2.75c-3.336-2.223-7.906-5.267-16.192-5.267-8.28 0-12.845 3.046-16.178 5.27-2.655 1.771-4.117 2.747-7.853 2.747-3.733 0-5.195-.976-7.849-2.747-2.152-1.436-4.826-3.211-8.675-4.291v-9.511c0-4.142-3.358-7.5-7.5-7.5s-7.5 3.358-7.5 7.5v120.871c0 12.629 10.274 22.903 22.903 22.903h65.387c12.629 0 22.903-10.274 22.903-22.903v-161.58c0-12.629-10.274-22.903-22.903-22.903h-1.145v-17.064h.516zm.629 209.452h-65.387c-4.358 0-7.903-3.545-7.903-7.903v-94.823c.118.078.227.149.349.231 3.333 2.224 7.896 5.27 16.175 5.27 8.28 0 12.844-3.046 16.177-5.27 2.655-1.771 4.118-2.747 7.854-2.747 3.748 0 5.215.977 7.877 2.75 3.336 2.223 7.906 5.267 16.192 5.267s12.855-3.044 16.192-5.267c.132-.088.25-.165.377-.249v94.838c0 4.358-3.545 7.903-7.903 7.903zm-73.29-232.984c0-4.705 3.828-8.532 8.532-8.532h64.129c4.705 0 8.532 3.828 8.532 8.532s-3.828 8.532-8.532 8.532h-64.129c-4.704 0-8.532-3.827-8.532-8.532zm57.145 56.113c0 9.125-7.423 16.549-16.548 16.549s-16.548-7.424-16.548-16.549v-.516h33.097v.516zm0-15.516h-33.097v-17.064h33.097z"/></g></svg>