<svg id="Capa_1" enable-background="new 0 0 512 512" height="512" viewBox="0 0 512 512" width="512" xmlns="http://www.w3.org/2000/svg"><g><path d="m504.5 168.339h-240.484c-4.142 0-7.5 3.357-7.5 7.5 0 4.142 3.358 7.5 7.5 7.5h232.29c-3.528 18.814-20.079 33.097-39.902 33.097h-218.56c1.034-2.647 1.608-5.523 1.608-8.532v-64.129c0-13.545 11.02-24.564 24.564-24.564h240.484c4.142 0 7.5-3.358 7.5-7.5 0-21.816-17.749-39.564-39.564-39.564h-280.565c-17.396 0-31.548 14.152-31.548 31.548v126.53l-18.124 18.124c-8.99 8.985-13.94 20.935-13.94 33.647v30.635h-16.549c-8.556 0-15.516 6.961-15.516 15.517v8.532h-50.362c-3.139-9.309-11.946-16.032-22.3-16.032-12.975-.002-23.532 10.554-23.532 23.53s10.557 23.532 23.532 23.532c10.354 0 19.16-6.724 22.3-16.032h50.362v8.532c0 8.556 6.96 15.516 15.516 15.516h16.549v40.597c0 12.976 10.557 23.532 23.532 23.532s23.532-10.556 23.532-23.532v-64.645h73.177v64.645c0 12.976 10.557 23.532 23.532 23.532s23.532-10.557 23.532-23.532v-184.887h160.839c30.656 0 55.597-24.94 55.597-55.597 0-4.143-3.358-7.5-7.5-7.5zm-480.968 184.371c-4.705 0-8.532-3.828-8.532-8.532 0-4.705 3.828-8.532 8.532-8.532s8.532 3.827 8.532 8.532c0 4.704-3.827 8.532-8.532 8.532zm151.791-249.017c0-9.125 7.423-16.548 16.548-16.548h280.564c10.931 0 20.217 7.175 23.394 17.064h-231.813c-21.816 0-39.564 17.748-39.564 39.564v64.129c0 4.705-3.828 8.532-8.532 8.532h-8.016c-8.556 0-15.516 6.96-15.516 15.516v8.016c0 2.507-1.097 4.878-3.01 6.505-1.939 1.648-4.427 2.325-7.01 1.905-3.95-.643-7.044-4.714-7.044-9.27v-135.413zm-63.614 257.033c-.285 0-.516-.231-.516-.516v-32.064c0-.285.231-.517.516-.517h16.549v33.097zm48.614 55.596c0 4.705-3.828 8.532-8.532 8.532s-8.532-3.827-8.532-8.532v-134.328c0-8.705 3.39-16.886 9.545-23.039l9.684-9.684c2.4 5.413 6.643 9.812 11.918 12.21l-9.538 9.538c-2.931 2.931-4.544 6.829-4.544 10.975v134.328zm15-79.644v-54.684c0-.154.044-.261.151-.369l25.019-25.019-.005-.005c4.401-4.399 6.899-10.358 6.899-16.634v-8.016c0-.285.231-.516.516-.516h40.597v105.242h-73.177zm105.241 79.644c0 4.705-3.828 8.532-8.532 8.532s-8.532-3.827-8.532-8.532v-184.886h17.064z"/></g></svg>