<svg xmlns="http://www.w3.org/2000/svg" id="Layer_2" data-name="Layer 2" viewBox="0 0 124.33 90.63" width="124.33" height="90.63"><metadata><rdf:RDF xmlns:rdf="http://www.w3.org/1999/02/22-rdf-syntax-ns#" xmlns:dc="http://purl.org/dc/elements/1.1/"><rdf:Description><dc:creator>RealFaviconGenerator</dc:creator><dc:source>https://realfavicongenerator.net</dc:source></rdf:Description></rdf:RDF></metadata><defs>
    <style>
      .cls-1 {
        fill: #1e76ba;
      }

      .cls-2 {
        fill: #93c840;
      }

      .cls-3 {
        fill: #009848;
      }
    </style>
  </defs><g id="Layer_1-2" data-name="Layer 1">
    <path class="cls-2" d="M116.01,8.32c-11.09-11.09-29.07-11.09-40.17,0l-13.67,13.67,20.14,20.14c10.6,10.59,11.07,27.47,1.43,38.63l32.27-32.27c11.09-11.09,11.09-29.08,0-40.17Z"></path>
    <path class="cls-1" d="M42.02,42.14l20.14-20.14-13.67-13.67c-11.09-11.09-29.08-11.09-40.17,0-11.09,11.09-11.09,29.08,0,40.17l32.29,32.28c-9.65-11.16-9.19-28.04,1.42-38.64Z"></path>
    <path class="cls-3" d="M82.31,42.14l-20.14-20.14-20.14,20.14c-10.6,10.6-11.07,27.48-1.42,38.64l1.54,1.54c5.53,5.53,12.77,8.3,20.02,8.32,7.25-.02,14.49-2.79,20.02-8.32l1.55-1.55c9.64-11.16,9.17-28.04-1.43-38.63Z"></path>
  </g></svg>