<?xml version="1.0" encoding="UTF-8"?>
<svg id="Layer_2" data-name="Layer 2" xmlns="http://www.w3.org/2000/svg" viewBox="0 0 405.52 75.92">
  <defs>
    <style>
      .cls-1 {
        opacity: .5;
      }

      .cls-1, .cls-2, .cls-3 {
        fill: #fff;
      }

      .cls-2 {
        opacity: .7;
      }
    </style>
  </defs>
  <g id="Layer_1-2" data-name="Layer 1">
    <g>
      <g>
        <path class="cls-2" d="M7.32,43.76l12.42,12.42,12.42,12.42c4.88,4.88,11.27,7.32,17.67,7.32s12.79-2.44,17.67-7.32h0s0,0,0,0c4.88-4.88,7.32-11.27,7.32-17.67s-2.44-12.79-7.32-17.67l-12.42-12.42-12.42-12.42C37.78,3.54,31.38,1.1,24.99,1.1S12.2,3.54,7.32,8.42h0s0,0,0,0C2.44,13.3,0,19.69,0,26.09s2.44,12.79,7.32,17.67Z"/>
        <path class="cls-1" d="M92.4,43.76l-12.42,12.42-12.42,12.42c-4.88,4.88-11.27,7.32-17.67,7.32s-12.79-2.44-17.67-7.32h0c-4.88-4.88-7.32-11.27-7.32-17.67s2.44-12.79,7.32-17.67l12.42-12.42,12.42-12.42c4.88-4.88,11.27-7.32,17.67-7.32s12.79,2.44,17.67,7.32h0c4.88,4.88,7.32,11.27,7.32,17.67s-2.44,12.79-7.32,17.67Z"/>
        <path class="cls-3" d="M67.5,33.27l-8.82-8.82-8.82-8.82-8.82,8.82-8.82,8.82c-4.88,4.88-7.32,11.27-7.32,17.67s2.44,12.79,7.32,17.67h0s0,0,0,0c2.44,2.44,5.25,4.26,8.25,5.48,3,1.22,6.2,1.83,9.39,1.83,3.19,0,6.39-.61,9.39-1.83,3-1.22,5.82-3.05,8.25-5.48h0s0,0,0,0c4.88-4.88,7.32-11.27,7.32-17.67s-2.44-12.79-7.32-17.67Z"/>
      </g>
      <path class="cls-3" d="M132.84,1.47v30.88h34.42V1.47h12.65v74.08h-12.65v-30.88h-34.42v30.88h-12.65V1.47h12.65Z"/>
      <path class="cls-3" d="M196.04,75.55V1.47h12.42l-.11,74.08h-12.31Z"/>
      <rect class="cls-3" x="222.65" y="1.47" width="1.15" height="74.15"/>
      <g>
        <path class="cls-3" d="M240.16,24.62l2.67-1.56c1.11,3.74,4.05,6.14,8.95,6.14s7.34-2.27,7.34-5.61c0-3.61-3.07-4.76-7.66-6.28-5.07-1.69-9.97-3.03-9.97-8.77s4.41-8.55,9.57-8.55,8.68,3.03,10.28,6.72l-2.63,1.47c-1.16-2.8-3.56-5.16-7.66-5.16-3.74,0-6.45,1.96-6.45,5.39s2.67,4.45,6.9,5.83c5.65,1.87,10.73,3.47,10.73,9.26,0,5.34-4.27,8.73-10.51,8.73-5.74,0-9.97-2.89-11.57-7.61Z"/>
        <path class="cls-3" d="M286.85,31.69l-14.6-15.09v15.09h-3.12V.53h3.12v14.24l14.16-14.24h4.1l-14.96,15.14,15.4,16.03h-4.1Z"/>
        <path class="cls-3" d="M299.85.53v31.16h-3.12V.53h3.12Z"/>
        <path class="cls-3" d="M331.9.53v31.16h-2.67l-17.36-25.37v25.37h-3.12V.53h2.67l17.36,25.37V.53h3.12Z"/>
        <path class="cls-3" d="M375.52,32.23l-3.29-3.52c-2.14,2.14-5.12,3.52-9.17,3.52-6.05,0-10.24-3.34-10.24-8.81,0-3.78,1.96-7.17,6.01-9.04-1.34-1.51-2.31-3.29-2.31-5.88,0-5.39,4.41-8.5,8.9-8.5,3.92,0,7.57,2.31,8.99,6.19l-2.63,1.51c-.89-2.94-3.43-4.67-6.32-4.67-3.12,0-5.83,2.05-5.83,5.3,0,2.27,1.29,3.87,2.89,5.56l9.39,10.02c.85-1.65,1.42-3.61,1.69-5.92l2.76,1.6c-.36,2.36-1.07,4.67-2.27,6.63l4.18,4.45-2.76,1.56ZM370.09,26.44l-9.17-9.75c-3.74,1.38-4.99,4.18-4.99,6.63,0,3.65,2.72,5.88,7.03,5.88,2.98,0,5.34-.93,7.12-2.76Z"/>
        <path class="cls-3" d="M264.19,66.43c0,4.81-3.87,8.68-8.68,8.68h-13.58v-31.16h12.55c4.63,0,8.37,3.78,8.37,8.37,0,2.89-1.42,5.25-3.65,6.63,2.94,1.25,4.99,4.01,4.99,7.48ZM245.05,46.89v10.86h9.44c2.89,0,5.25-2.4,5.25-5.43s-2.36-5.43-5.25-5.43h-9.44ZM261.08,66.43c0-3.16-2.49-5.74-5.56-5.74h-10.46v11.48h10.46c3.07,0,5.56-2.54,5.56-5.74Z"/>
        <path class="cls-3" d="M289.57,72.17v2.94h-18.25v-31.16h18.03v2.94h-14.91v11.04h13.8v2.94h-13.8v11.31h15.14Z"/>
        <path class="cls-3" d="M314.98,67.46h-14.78l-2.89,7.66h-3.29l11.97-31.16h3.2l11.97,31.16h-3.29l-2.89-7.66ZM313.87,64.52l-6.28-16.69-6.28,16.69h12.55Z"/>
        <path class="cls-3" d="M325.62,64.52v-20.57h3.12v20.57c0,4.94,3.07,8.1,8.46,8.1s8.46-3.16,8.46-8.1v-20.57h3.12v20.57c0,6.81-4.76,11.13-11.57,11.13s-11.57-4.32-11.57-11.13Z"/>
        <path class="cls-3" d="M376.81,46.89h-9.57v28.22h-3.12v-28.22h-9.57v-2.94h22.26v2.94Z"/>
        <path class="cls-3" d="M394.26,62.34v12.78h-3.12v-12.86l-11.22-18.3h3.52l9.3,15.27,9.26-15.27h3.52l-11.26,18.38Z"/>
      </g>
    </g>
  </g>
</svg>