<?xml version="1.0" encoding="UTF-8"?>
<svg id="Layer_2" data-name="Layer 2" xmlns="http://www.w3.org/2000/svg" viewBox="0 0 375.32 74.86">
  <defs>
    <style>
      .cls-1 {
        opacity: .5;
      }

      .cls-1, .cls-2, .cls-3 {
        fill: #fff;
      }

      .cls-2 {
        opacity: .7;
      }
    </style>
  </defs>
  <g id="Layer_1-2" data-name="Layer 1">
    <g>
      <g>
        <path class="cls-3" d="M271.19.44v3.46h-16.7v10.92h15.78v3.46h-15.78v13.43h-3.61V.44h20.31Z"/>
        <path class="cls-3" d="M280.72.44h20.26v3.37h-16.65v10.63h15.64v3.37h-15.64v10.54h16.65v3.37h-20.26V.44Z"/>
        <path class="cls-3" d="M314.45.44l11.02,21.94L336.49.44h3.85v31.28h-3.61V7.42l-10.01,20.45h-2.5l-10.01-20.45v24.3h-3.61V.44h3.85Z"/>
        <path class="cls-3" d="M250.4,58.83c0-4.68,1.45-8.52,4.35-11.52,2.9-3,6.67-4.5,11.28-4.5,5.52,0,9.74,2.1,12.66,6.3l-2.94,2.12c-1.03-1.44-2.38-2.6-4.07-3.46-1.68-.87-3.57-1.3-5.65-1.3-3.56,0-6.46,1.16-8.69,3.49-2.23,2.33-3.34,5.29-3.34,8.88s1.11,6.55,3.34,8.88c2.23,2.33,5.12,3.49,8.69,3.49,2.05,0,3.93-.44,5.63-1.32,1.7-.88,3.06-2.06,4.09-3.54l2.94,2.21c-2.92,4.2-7.14,6.3-12.66,6.3-4.62,0-8.38-1.5-11.28-4.5-2.9-3-4.35-6.84-4.35-11.52Z"/>
        <path class="cls-3" d="M285.72,74.47l12.85-31.28h2.79l12.85,31.28h-3.85l-3.13-7.7h-14.53l-3.13,7.7h-3.85ZM305.84,63.41l-5.92-14.58-5.87,14.58h11.79Z"/>
        <path class="cls-3" d="M336.63,43.19c2.44,0,4.54.89,6.3,2.67,1.76,1.78,2.65,4.07,2.65,6.86,0,2.6-.76,4.76-2.29,6.47-1.52,1.72-3.39,2.72-5.61,3.01l8.47,12.27h-4.28l-8.42-12.22h-7.65v12.22h-3.61v-31.28h14.44ZM325.81,58.74h10.3c1.7,0,3.1-.58,4.19-1.73,1.09-1.15,1.64-2.58,1.64-4.28s-.55-3.08-1.64-4.23c-1.09-1.15-2.49-1.73-4.19-1.73h-10.3v11.98Z"/>
        <path class="cls-3" d="M355.06,43.19h20.26v3.37h-16.65v10.63h15.64v3.37h-15.64v10.54h16.65v3.37h-20.26v-31.28Z"/>
      </g>
      <path class="cls-2" d="M7.32,42.67l12.43,12.43,12.43,12.43c4.88,4.88,11.28,7.32,17.68,7.32s12.8-2.44,17.68-7.32h0s0,0,0,0c4.88-4.88,7.32-11.28,7.32-17.68s-2.44-12.8-7.32-17.68l-12.43-12.43-12.43-12.43C37.79,2.44,31.4,0,25,0S12.2,2.44,7.32,7.32h0s0,0,0,0C2.44,12.2,0,18.6,0,25s2.44,12.8,7.32,17.68Z"/>
      <path class="cls-1" d="M92.44,42.67l-12.43,12.43-12.43,12.43c-4.88,4.88-11.28,7.32-17.68,7.32s-12.8-2.44-17.68-7.32h0c-4.88-4.88-7.32-11.28-7.32-17.68s2.44-12.8,7.32-17.68l12.43-12.43,12.43-12.43c4.88-4.88,11.28-7.32,17.68-7.32s12.8,2.44,17.68,7.32h0c4.88,4.88,7.32,11.28,7.32,17.68s-2.44,12.8-7.32,17.68Z"/>
      <path class="cls-3" d="M67.53,32.18l-8.83-8.83-8.83-8.83-8.83,8.83-8.83,8.83c-4.88,4.88-7.32,11.28-7.32,17.68s2.44,12.8,7.32,17.68h0s0,0,0,0c2.44,2.44,5.25,4.27,8.26,5.49,3,1.22,6.2,1.83,9.39,1.83,3.19,0,6.39-.61,9.39-1.83,3-1.22,5.82-3.05,8.26-5.49h0s0,0,0,0c4.88-4.88,7.32-11.28,7.32-17.68s-2.44-12.8-7.32-17.68Z"/>
      <path class="cls-3" d="M132.9.37v30.9h34.43V.37h12.66v74.11h-12.66v-30.9h-34.43v30.9h-12.66V.37h12.66Z"/>
      <path class="cls-3" d="M196.13,74.48V.37h12.43l-.11,74.11h-12.31Z"/>
      <rect class="cls-3" x="228.89" y=".37" width="1.15" height="74.19"/>
    </g>
  </g>
</svg>