<?xml version="1.0" encoding="UTF-8"?>
<svg id="Layer_2" data-name="Layer 2" xmlns="http://www.w3.org/2000/svg" viewBox="0 0 326.13 61.06">
  <defs>
    <style>
      .cls-1 {
        opacity: .5;
      }

      .cls-1, .cls-2, .cls-3 {
        fill: #a87c4f;
      }

      .cls-2 {
        opacity: .7;
      }
    </style>
  </defs>
  <g id="Layer_1-2" data-name="Layer 1">
    <g>
      <g>
        <path class="cls-2" d="M5.89,35.19l9.99,9.99,9.99,9.99c3.92,3.92,9.07,5.89,14.21,5.89s10.29-1.96,14.21-5.89h0s0,0,0,0c3.92-3.92,5.89-9.07,5.89-14.21s-1.96-10.29-5.89-14.21l-9.99-9.99-9.99-9.99C30.38,2.85,25.24.89,20.09.89s-10.29,1.96-14.21,5.89h0s0,0,0,0C1.96,10.69,0,15.84,0,20.98s1.96,10.29,5.89,14.21Z"/>
        <path class="cls-1" d="M74.31,35.19l-9.99,9.99-9.99,9.99c-3.92,3.92-9.07,5.89-14.21,5.89s-10.29-1.96-14.21-5.89h0c-3.92-3.92-5.89-9.07-5.89-14.21s1.96-10.29,5.89-14.21l9.99-9.99,9.99-9.99c3.92-3.92,9.07-5.89,14.21-5.89s10.29,1.96,14.21,5.89h0c3.92,3.92,5.89,9.07,5.89,14.21s-1.96,10.29-5.89,14.21Z"/>
        <path class="cls-3" d="M54.29,26.75l-7.09-7.09-7.09-7.09-7.09,7.09-7.09,7.09c-3.92,3.92-5.89,9.07-5.89,14.21s1.96,10.29,5.89,14.21h0s0,0,0,0c1.96,1.96,4.22,3.43,6.64,4.41,2.42.98,4.98,1.47,7.55,1.47,2.57,0,5.14-.49,7.55-1.47,2.42-.98,4.68-2.45,6.64-4.41h0s0,0,0,0c3.92-3.92,5.89-9.07,5.89-14.21s-1.96-10.29-5.89-14.21Z"/>
      </g>
      <path class="cls-3" d="M106.83,1.18v24.84h27.68V1.18h10.17v59.57h-10.17v-24.84h-27.68v24.84h-10.17V1.18h10.17Z"/>
      <path class="cls-3" d="M157.66,60.76V1.18h9.99l-.09,59.57h-9.9Z"/>
      <rect class="cls-3" x="179.06" y="1.18" width=".92" height="59.64"/>
      <g>
        <path class="cls-3" d="M193.14,19.8l2.15-1.25c.9,3.01,3.26,4.94,7.2,4.94s5.91-1.83,5.91-4.51c0-2.9-2.47-3.83-6.16-5.05-4.08-1.36-8.02-2.43-8.02-7.05s3.54-6.87,7.7-6.87,6.98,2.43,8.27,5.41l-2.11,1.18c-.93-2.26-2.86-4.15-6.16-4.15-3.01,0-5.19,1.57-5.19,4.33s2.15,3.58,5.55,4.69c4.55,1.5,8.63,2.79,8.63,7.45,0,4.3-3.44,7.02-8.45,7.02-4.62,0-8.02-2.33-9.31-6.12Z"/>
        <path class="cls-3" d="M230.69,25.49l-11.74-12.14v12.14h-2.51V.43h2.51v11.46L230.33.43h3.29l-12.03,12.17,12.39,12.89h-3.29Z"/>
        <path class="cls-3" d="M241.14.43v25.06h-2.51V.43h2.51Z"/>
        <path class="cls-3" d="M266.92.43v25.06h-2.15l-13.96-20.41v20.41h-2.51V.43h2.15l13.96,20.41V.43h2.51Z"/>
        <path class="cls-3" d="M302,25.92l-2.65-2.83c-1.72,1.72-4.12,2.83-7.37,2.83-4.87,0-8.23-2.69-8.23-7.09,0-3.04,1.58-5.76,4.83-7.27-1.07-1.22-1.86-2.65-1.86-4.73,0-4.33,3.54-6.84,7.16-6.84,3.15,0,6.09,1.86,7.23,4.98l-2.11,1.22c-.72-2.36-2.76-3.76-5.08-3.76-2.51,0-4.69,1.65-4.69,4.26,0,1.83,1.04,3.11,2.33,4.48l7.55,8.06c.68-1.32,1.15-2.9,1.36-4.76l2.22,1.29c-.29,1.9-.86,3.76-1.83,5.33l3.37,3.58-2.22,1.25ZM297.63,21.26l-7.37-7.84c-3.01,1.11-4.01,3.37-4.01,5.33,0,2.94,2.18,4.73,5.66,4.73,2.4,0,4.3-.75,5.73-2.22Z"/>
        <path class="cls-3" d="M212.47,53.43c0,3.87-3.11,6.98-6.98,6.98h-10.92v-25.06h10.1c3.72,0,6.73,3.04,6.73,6.73,0,2.33-1.15,4.22-2.94,5.33,2.36,1,4.01,3.22,4.01,6.01ZM197.08,37.71v8.74h7.59c2.33,0,4.22-1.93,4.22-4.37s-1.9-4.37-4.22-4.37h-7.59ZM209.96,53.43c0-2.54-2-4.62-4.47-4.62h-8.41v9.24h8.41c2.47,0,4.47-2.04,4.47-4.62Z"/>
        <path class="cls-3" d="M232.87,58.04v2.36h-14.68v-25.06h14.5v2.36h-11.99v8.88h11.1v2.36h-11.1v9.09h12.17Z"/>
        <path class="cls-3" d="M253.31,54.25h-11.89l-2.33,6.16h-2.65l9.63-25.06h2.58l9.63,25.06h-2.65l-2.33-6.16ZM252.42,51.89l-5.05-13.43-5.05,13.43h10.1Z"/>
        <path class="cls-3" d="M261.87,51.89v-16.54h2.51v16.54c0,3.97,2.47,6.52,6.8,6.52s6.8-2.54,6.8-6.52v-16.54h2.51v16.54c0,5.48-3.83,8.95-9.31,8.95s-9.31-3.47-9.31-8.95Z"/>
        <path class="cls-3" d="M303.04,37.71h-7.7v22.7h-2.51v-22.7h-7.7v-2.36h17.9v2.36Z"/>
        <path class="cls-3" d="M317.07,50.13v10.27h-2.51v-10.35l-9.02-14.71h2.83l7.48,12.28,7.45-12.28h2.83l-9.06,14.79Z"/>
      </g>
    </g>
  </g>
</svg>