<?xml version="1.0" encoding="UTF-8"?>
<svg id="Layer_2" data-name="Layer 2" xmlns="http://www.w3.org/2000/svg" viewBox="0 0 300.26 59.89">
  <defs>
    <style>
      .cls-1, .cls-2, .cls-3 {
        fill: #c18b89;
      }

      .cls-2 {
        opacity: .5;
      }

      .cls-3 {
        opacity: .7;
      }
    </style>
  </defs>
  <g id="Layer_1-2" data-name="Layer 1">
    <g>
      <g>
        <path class="cls-1" d="M216.95.35v2.77h-13.36v8.74h12.63v2.77h-12.63v10.74h-2.89V.35h16.25Z"/>
        <path class="cls-1" d="M224.57.35h16.21v2.69h-13.32v8.51h12.51v2.69h-12.51v8.43h13.32v2.69h-16.21V.35Z"/>
        <path class="cls-1" d="M251.56.35l8.82,17.55L269.19.35h3.08v25.02h-2.89V5.93l-8.01,16.36h-2l-8.01-16.36v19.44h-2.89V.35h3.08Z"/>
        <path class="cls-1" d="M200.32,47.07c0-3.75,1.16-6.82,3.48-9.22,2.32-2.4,5.33-3.6,9.03-3.6,4.41,0,7.79,1.68,10.12,5.04l-2.35,1.69c-.82-1.16-1.91-2.08-3.25-2.77-1.35-.69-2.86-1.04-4.52-1.04-2.85,0-5.17.93-6.95,2.79-1.78,1.86-2.68,4.23-2.68,7.1s.89,5.24,2.68,7.1c1.78,1.86,4.1,2.79,6.95,2.79,1.64,0,3.14-.35,4.5-1.06,1.36-.71,2.45-1.65,3.27-2.83l2.35,1.77c-2.34,3.36-5.71,5.04-10.12,5.04-3.7,0-6.7-1.2-9.03-3.6-2.32-2.4-3.48-5.47-3.48-9.22Z"/>
        <path class="cls-1" d="M228.58,59.58l10.28-25.02h2.23l10.28,25.02h-3.08l-2.5-6.16h-11.63l-2.5,6.16h-3.08ZM244.67,50.72l-4.74-11.66-4.7,11.66h9.43Z"/>
        <path class="cls-1" d="M269.31,34.56c1.95,0,3.63.71,5.04,2.14,1.41,1.42,2.12,3.25,2.12,5.49,0,2.08-.61,3.81-1.83,5.18-1.22,1.37-2.71,2.18-4.48,2.41l6.78,9.82h-3.43l-6.74-9.78h-6.12v9.78h-2.89v-25.02h11.55ZM260.65,46.99h8.24c1.36,0,2.48-.46,3.35-1.39.87-.92,1.31-2.07,1.31-3.43s-.44-2.46-1.31-3.39c-.87-.92-1.99-1.39-3.35-1.39h-8.24v9.59Z"/>
        <path class="cls-1" d="M284.05,34.56h16.21v2.69h-13.32v8.51h12.51v2.69h-12.51v8.43h13.32v2.69h-16.21v-25.02Z"/>
      </g>
      <path class="cls-3" d="M5.86,34.14l9.94,9.94,9.94,9.94c3.9,3.91,9.02,5.86,14.14,5.86s10.24-1.95,14.14-5.86h0s0,0,0,0c3.9-3.9,5.86-9.02,5.86-14.14s-1.95-10.24-5.86-14.14l-9.94-9.94-9.94-9.94C30.23,1.95,25.12,0,20,0S9.76,1.95,5.86,5.86h0s0,0,0,0C1.95,9.76,0,14.88,0,20s1.95,10.24,5.86,14.14Z"/>
      <path class="cls-2" d="M73.95,34.14l-9.94,9.94-9.94,9.94c-3.9,3.91-9.02,5.86-14.14,5.86s-10.24-1.95-14.14-5.86h0c-3.91-3.91-5.86-9.02-5.86-14.14s1.95-10.24,5.86-14.14l9.94-9.94,9.94-9.94c3.91-3.9,9.02-5.86,14.14-5.86s10.24,1.95,14.14,5.86h0c3.9,3.91,5.86,9.02,5.86,14.14s-1.95,10.24-5.86,14.14Z"/>
      <path class="cls-1" d="M54.03,25.74l-7.06-7.06-7.06-7.06-7.06,7.06-7.06,7.06c-3.9,3.91-5.86,9.02-5.86,14.14s1.95,10.24,5.86,14.14h0s0,0,0,0c1.95,1.95,4.2,3.41,6.61,4.39,2.4.98,4.96,1.47,7.51,1.47,2.56,0,5.11-.49,7.51-1.47,2.4-.98,4.66-2.44,6.61-4.39h0s0,0,0,0c3.9-3.9,5.86-9.02,5.86-14.14s-1.95-10.24-5.86-14.14Z"/>
      <path class="cls-1" d="M106.32.3v24.72h27.55V.3h10.12v59.29h-10.12v-24.72h-27.55v24.72h-10.12V.3h10.12Z"/>
      <path class="cls-1" d="M156.9,59.59V.3h9.94l-.09,59.29h-9.85Z"/>
      <rect class="cls-1" x="183.12" y=".3" width=".92" height="59.35"/>
    </g>
  </g>
</svg>