<?xml version="1.0" encoding="UTF-8"?>
<svg id="Layer_2" data-name="Layer 2" xmlns="http://www.w3.org/2000/svg" viewBox="0 0 281.22 48.01">
  <defs>
    <style>
      .cls-1 { fill: #171717; }
      .cls-2 { fill: #1d75b8; }
      .cls-3 { fill: #009748; }
      .cls-4 { fill: #93c840; }
    </style>
  </defs>
  <g id="Layer_1-2" data-name="Layer 1">
    <g>
      <polygon class="cls-1" points="72.58 .09 83.06 .09 83.06 18.94 102.39 18.94 102.39 .09 112.87 .09 112.87 47.73 102.39 47.73 102.39 28.6 83.06 28.6 83.06 47.73 72.58 47.73 72.58 .09"/>
      <rect class="cls-1" x="122.05" y=".09" width="10.48" height="47.63"/>
      <path class="cls-4" d="M60.77,4.61c-5.81-5.81-15.23-5.81-21.04,0l-7.16,7.16,10.55,10.55c5.55,5.55,5.8,14.39.75,20.23l16.9-16.9c5.81-5.81,5.81-15.23,0-21.04"/>
      <path class="cls-2" d="M22.01,22.32l10.55-10.55-7.16-7.16C19.59-1.2,10.17-1.2,4.36,4.61c-5.81,5.81-5.81,15.23,0,21.04l16.91,16.91c-5.06-5.85-4.81-14.69.74-20.24"/>
      <path class="cls-3" d="M43.12,22.32l-10.55-10.55-10.55,10.55c-5.55,5.55-5.8,14.39-.74,20.24l.8.8c2.9,2.9,6.69,4.35,10.49,4.36,3.8,0,7.59-1.46,10.49-4.36l.81-.81c5.05-5.85,4.8-14.68-.75-20.23"/>
      <polygon class="cls-1" points="146.23 .08 148.12 .08 148.12 4.56 153.27 4.56 153.27 .08 155.16 .08 155.16 10.86 153.27 10.86 153.27 6.31 148.12 6.31 148.12 10.86 146.23 10.86 146.23 .08"/>
      <polygon class="cls-1" points="158.24 .08 166.23 .08 166.23 1.77 160.14 1.77 160.14 4.57 165.54 4.57 165.54 6.27 160.14 6.27 160.14 9.16 166.31 9.16 166.31 10.86 158.24 10.86 158.24 .08"/>
      <path class="cls-1" d="M172.69,0h1.76l4.74,10.86h-2l-1.09-2.6h-5.1l-1.11,2.6h-1.94l4.74-10.86ZM175.4,6.58l-1.86-4.31-1.85,4.31h3.71Z"/>
      <polygon class="cls-1" points="181.35 .08 183.24 .08 183.24 9.13 188.91 9.13 188.91 10.86 181.35 10.86 181.35 .08"/>
      <polygon class="cls-1" points="192.3 1.83 188.88 1.83 188.88 .08 197.63 .08 197.63 1.83 194.21 1.83 194.21 10.86 192.3 10.86 192.3 1.83"/>
      <polygon class="cls-1" points="199.94 .08 201.83 .08 201.83 4.56 206.97 4.56 206.97 .08 208.87 .08 208.87 10.86 206.97 10.86 206.97 6.31 201.83 6.31 201.83 10.86 199.94 10.86 199.94 .08"/>
      <rect class="cls-1" x="146.34" y="18.56" width="1.89" height="10.78"/>
      <polygon class="cls-1" points="151.42 18.56 153.17 18.56 158.95 26.01 158.95 18.56 160.81 18.56 160.81 29.34 159.23 29.34 153.28 21.67 153.28 29.34 151.42 29.34 151.42 18.56"/>
      <path class="cls-1" d="M163.17,27.77l1.14-1.35c1.03.89,2.06,1.4,3.4,1.4,1.17,0,1.91-.54,1.91-1.36v-.03c0-.77-.43-1.19-2.43-1.65-2.29-.55-3.59-1.23-3.59-3.22v-.03c0-1.85,1.54-3.13,3.68-3.13,1.57,0,2.82.48,3.91,1.36l-1.02,1.43c-.97-.72-1.94-1.11-2.93-1.11-1.11,0-1.76.57-1.76,1.28v.03c0,.83.49,1.2,2.56,1.69,2.28.55,3.46,1.37,3.46,3.16v.03c0,2.02-1.59,3.22-3.85,3.22-1.65,0-3.2-.57-4.5-1.73"/>
      <polygon class="cls-1" points="176.48 20.32 173.06 20.32 173.06 18.56 181.81 18.56 181.81 20.32 178.39 20.32 178.39 29.34 176.48 29.34 176.48 20.32"/>
      <rect class="cls-1" x="184.23" y="18.56" width="1.89" height="10.78"/>
      <polygon class="cls-1" points="191.96 20.32 188.54 20.32 188.54 18.56 197.29 18.56 197.29 20.32 193.87 20.32 193.87 29.34 191.96 29.34 191.96 20.32"/>
      <path class="cls-1" d="M199.43,24.77v-6.21h1.89v6.13c0,2,1.03,3.08,2.73,3.08s2.71-1.02,2.71-3v-6.21h1.89v6.11c0,3.22-1.82,4.84-4.64,4.84s-4.59-1.62-4.59-4.74"/>
      <polygon class="cls-1" points="214.21 20.32 210.8 20.32 210.8 18.56 219.54 18.56 219.54 20.32 216.12 20.32 216.12 29.34 214.21 29.34 214.21 20.32"/>
      <polygon class="cls-1" points="221.85 18.56 229.85 18.56 229.85 20.25 223.75 20.25 223.75 23.06 229.15 23.06 229.15 24.75 223.75 24.75 223.75 27.65 229.92 27.65 229.92 29.34 221.85 29.34 221.85 18.56"/>
      <rect class="cls-1" x="146.34" y="37.04" width="1.89" height="10.78"/>
      <polygon class="cls-1" points="151.42 37.04 153.17 37.04 158.95 44.5 158.95 37.04 160.81 37.04 160.81 47.82 159.23 47.82 153.28 40.15 153.28 47.82 151.42 47.82 151.42 37.04"/>
      <polygon class="cls-1" points="166.54 38.8 163.13 38.8 163.13 37.04 171.87 37.04 171.87 38.8 168.45 38.8 168.45 47.82 166.54 47.82 166.54 38.8"/>
      <polygon class="cls-1" points="174.18 37.04 182.18 37.04 182.18 38.74 176.08 38.74 176.08 41.54 181.48 41.54 181.48 43.23 176.08 43.23 176.08 46.13 182.25 46.13 182.25 47.82 174.18 47.82 174.18 37.04"/>
      <path class="cls-1" d="M184.81,37.04h4.81c1.35,0,2.42.4,3.11,1.08.57.59.89,1.39.89,2.33v.03c0,1.77-1.06,2.83-2.57,3.26l2.91,4.08h-2.23l-2.65-3.76h-2.37v3.76h-1.89v-10.78ZM189.48,42.39c1.36,0,2.22-.71,2.22-1.8v-.03c0-1.16-.83-1.79-2.23-1.79h-2.76v3.62h2.77Z"/>
      <polygon class="cls-1" points="196.26 37.04 198.01 37.04 203.79 44.5 203.79 37.04 205.65 37.04 205.65 47.82 204.06 47.82 198.12 40.15 198.12 47.82 196.26 47.82 196.26 37.04"/>
      <path class="cls-1" d="M212.55,36.97h1.76l4.74,10.86h-2l-1.09-2.6h-5.1l-1.11,2.6h-1.94l4.74-10.86ZM215.26,43.54l-1.86-4.31-1.85,4.31h3.71Z"/>
      <polygon class="cls-1" points="222.47 38.8 219.05 38.8 219.05 37.04 227.8 37.04 227.8 38.8 224.38 38.8 224.38 47.82 222.47 47.82 222.47 38.8"/>
      <rect class="cls-1" x="230.22" y="37.04" width="1.89" height="10.78"/>
      <path class="cls-1" d="M234.82,42.46v-.03c0-3.03,2.34-5.57,5.65-5.57s5.62,2.51,5.62,5.54v.03c0,3.03-2.34,5.58-5.65,5.58s-5.62-2.51-5.62-5.54M244.11,42.46v-.03c0-2.09-1.52-3.83-3.67-3.83s-3.64,1.71-3.64,3.8v.03c0,2.1,1.53,3.84,3.67,3.84s3.64-1.71,3.64-3.8"/>
      <polygon class="cls-1" points="248.7 37.04 250.46 37.04 256.23 44.5 256.23 37.04 258.1 37.04 258.1 47.82 256.51 47.82 250.57 40.15 250.57 47.82 248.7 47.82 248.7 37.04"/>
      <path class="cls-1" d="M265,36.97h1.76l4.74,10.86h-2l-1.09-2.6h-5.1l-1.11,2.6h-1.94l4.74-10.86ZM267.71,43.54l-1.86-4.31-1.85,4.31h3.71Z"/>
      <polygon class="cls-1" points="273.65 37.04 275.55 37.04 275.55 46.1 281.22 46.1 281.22 47.82 273.65 47.82 273.65 37.04"/>
    </g>
  </g>
</svg>
