<svg id="Capa_1" enable-background="new 0 0 510.039 510.039" height="512" viewBox="0 0 510.039 510.039" width="512" xmlns="http://www.w3.org/2000/svg"><g><path d="m394.03 255.423c-27.747-4.045-53.747 22.146-59.193 59.602-4.332 29.786 5.837 56.423 24.132 68.118-4.574 19.866-14.212 28.774-22.319 41.539-27.466 39.471-20.636 76.9-21.649 85.338h30c.998-8.957-4.953-37.697 16.273-68.201 7.362-11.903 21.1-25.243 27.235-53.33 9.446-2.053 18.53-7.512 26.109-15.939 33.574-37.334 23.948-110.65-20.588-117.127zm10.078 69.675c-1.573 10.82-5.873 20.804-11.797 27.39-17.868 19.859-31.569-7.145-27.787-33.145 2.954-20.311 14.748-34.321 23.943-34.321.421 0 .837.029 1.245.089 9.344 1.358 17.485 18.748 14.396 39.987z"/><path d="m173.977 283.392c-2.115 10.574-1.26 20.633 2.274 29.163-9.853 11.388-33.767 27.407-45.974 64.023l-5.531 16.594c-9.88 29.641-33.875 51.861-64.187 59.439-21.253 5.312-40.675 16.31-56.166 31.801l21.213 21.213c11.647-11.647 26.25-19.915 42.229-23.909 40.315-10.08 72.231-39.634 85.371-79.058 4.145-9.957 6.975-31.606 27.49-52.124l16.764-16.764c5.43 2.249 11.475 3.419 17.883 3.419 52.734 0 99.765-72.391 64.821-107.337-31.826-31.819-96.339 4.306-106.187 53.54zm72.601 8.334c-18.543 18.543-48.43 23.736-43.184-2.45 4.187-20.935 27.824-41.354 46.211-41.354 3.98 0 7.258 1.056 9.346 3.145 6.676 6.676 2.803 25.482-12.373 40.659z"/><path d="m108.705 206.08c7.77-9.561 14.162-22.527 31.817-34.738 29.674 24.461 86.811 6.03 107.413-30.524 17.357-30.802 1.364-62.228-33.696-66.398-42.555-5.061-91.574 31.496-87.872 70.305-24.895 16.183-34.514 34.789-41.77 43.501-21.916 29.589-37.581 38.475-64.474 36.566l-20.123-.038v30h18.549c41.377 2.755 65.812-15.809 90.156-48.674zm50.622-75.802c18.315-32.502 80.383-35.974 62.473-4.19-4.349 7.717-12.436 14.981-22.186 19.93-19.137 9.713-38.217 7.556-42.491-.864-2.643-5.207.661-12.138 2.204-14.876z"/><path d="m443.279 11.328c-55.916-26.164-121.624-5.52-146.396 47.425-33.189 70.931 25.892 154.12 107.703 154.12 39.803 0 78.291-20.722 96.09-58.763 24.89-53.194-1.742-116.743-57.397-142.782zm30.225 130.067c-17.188 36.731-64.439 52.653-106.51 32.968-41.203-19.279-60.466-65.439-42.939-102.896 17.344-37.066 64.73-52.516 106.51-32.968 40.576 18.986 60.765 64.801 42.939 102.896z"/><path d="m351.228 84.183c-14.492 30.971 15.229 68.736 53.685 68.736 34.682 0 55.026-31.316 40.327-61.103-18.745-37.98-77.216-43.529-94.012-7.633zm67.931 31.783c-1.924 4.112-6.387 5.734-8.876 6.336-17.611 4.271-37.422-13.566-31.884-25.406 5.465-11.679 31.81-8.272 39.936 8.196 1.135 2.297 2.748 6.763.824 10.874z"/></g></svg>