<?xml version="1.0" encoding="UTF-8"?>
<svg id="Layer_2" data-name="Layer 2" xmlns="http://www.w3.org/2000/svg" viewBox="0 0 79.81 59.88">
  <defs>
    <style>
      .cls-1 {
        opacity: .5;
      }

      .cls-1, .cls-2 {
        isolation: isolate;
      }

      .cls-1, .cls-2, .cls-3 {
        fill: #c18b89;
      }

      .cls-2 {
        opacity: .7;
      }
    </style>
  </defs>
  <g id="Layer_2-2" data-name="Layer 2">
    <path class="cls-2" d="M5.86,34.14l9.94,9.94,9.94,9.94c3.9,3.91,9.02,5.86,14.14,5.86s10.24-1.95,14.14-5.86h0c3.9-3.9,5.86-9.02,5.86-14.14s-1.95-10.24-5.86-14.14l-9.94-9.94-9.94-9.94C30.23,1.95,25.12,0,20,0S9.76,1.95,5.86,5.86h0C1.95,9.76,0,14.88,0,20s1.95,10.24,5.86,14.14Z"/>
    <path class="cls-1" d="M73.95,34.14l-9.94,9.94-9.94,9.94c-3.9,3.91-9.02,5.86-14.14,5.86s-10.24-1.95-14.14-5.86h0c-3.91-3.91-5.86-9.02-5.86-14.14s1.95-10.24,5.86-14.14l9.94-9.94,9.94-9.94c3.91-3.9,9.02-5.86,14.14-5.86s10.24,1.95,14.14,5.86h0c3.9,3.91,5.86,9.02,5.86,14.14s-1.95,10.24-5.86,14.14Z"/>
    <path class="cls-3" d="M54.03,25.74l-7.06-7.06-7.06-7.06-7.06,7.06-7.06,7.06c-3.9,3.91-5.86,9.02-5.86,14.14s1.95,10.24,5.86,14.14h0c1.95,1.95,4.2,3.41,6.61,4.39,2.4.98,4.96,1.47,7.51,1.47s5.11-.49,7.51-1.47,4.66-2.44,6.61-4.39h0c3.9-3.9,5.86-9.02,5.86-14.14s-1.95-10.24-5.86-14.14Z"/>
  </g>
</svg>