<?xml version="1.0" encoding="UTF-8"?>
<svg id="Layer_2" data-name="Layer 2" xmlns="http://www.w3.org/2000/svg" viewBox="0 0 80.2 60.18">
  <defs>
    <style>
      .cls-1, .cls-2, .cls-3 {
        fill: #a87c4f;
      }

      .cls-2 {
        opacity: .7;
      }

      .cls-2, .cls-3 {
        isolation: isolate;
      }

      .cls-3 {
        opacity: .5;
      }
    </style>
  </defs>
  <g id="Layer_2-2" data-name="Layer 2">
    <g>
      <path class="cls-2" d="M5.89,34.31l9.99,9.99,9.99,9.99c3.92,3.92,9.07,5.89,14.21,5.89s10.29-1.96,14.21-5.89h0c3.92-3.92,5.89-9.07,5.89-14.21s-1.96-10.29-5.89-14.21l-9.99-9.99-9.99-9.99C30.38,1.97,25.24,0,20.09,0S9.8,1.97,5.88,5.9h0C1.96,9.81,0,14.96,0,20.1s1.96,10.29,5.89,14.21Z"/>
      <path class="cls-3" d="M74.31,34.31l-9.99,9.99-9.99,9.99c-3.92,3.92-9.07,5.89-14.21,5.89s-10.29-1.96-14.21-5.89h0c-3.92-3.92-5.89-9.07-5.89-14.21s1.96-10.29,5.89-14.21l9.99-9.99,9.99-9.99c3.92-3.92,9.07-5.89,14.21-5.89s10.29,1.96,14.21,5.89h0c3.92,3.92,5.89,9.07,5.89,14.21s-1.96,10.29-5.89,14.21Z"/>
      <path class="cls-1" d="M54.29,25.87l-7.09-7.09-7.09-7.09-7.09,7.09-7.09,7.09c-3.92,3.92-5.89,9.07-5.89,14.21s1.96,10.29,5.89,14.21h0c1.96,1.96,4.22,3.43,6.64,4.41,2.42.98,4.98,1.47,7.55,1.47s5.14-.49,7.55-1.47c2.42-.98,4.68-2.45,6.64-4.41h0c3.92-3.92,5.89-9.07,5.89-14.21s-1.96-10.29-5.89-14.21h-.02Z"/>
    </g>
  </g>
</svg>