<?xml version="1.0" encoding="UTF-8"?>
<svg id="Layer_2" data-name="Layer 2" xmlns="http://www.w3.org/2000/svg" viewBox="0 0 91.33 74.72">
  <defs>
    <style>
      .cls-1 {
        fill: #fff;
      }
    </style>
  </defs>
  <g id="Layer_1-2" data-name="Layer 1">
    <g>
      <path class="cls-1" d="M91.03,19.87c-.26-1.97-.7-3.78-1.38-5.63-2.02-5.44-6.06-9.77-11.35-12.2-4.93-2.27-10.6-2.66-15.81-1.1-2.82.84-5.38,2.17-7.47,4.22l-7.14,6.98-5.92-5.88c-2.15-2.13-4.54-3.81-7.39-4.88C27.64-1.18,19.82-.12,13.83,4.21c-4.82,3.48-8.02,8.72-9.04,14.59-1.83,10.63,2.03,20.98,9,29.02-2.16,5.84-5.85,10.89-10.82,14.55l-1.86,1.52c-1.05,1.07-1.42,2.6-.86,4.05.48,1.23,1.69,2.23,3.17,2.36,1.16.1,2.28.04,3.5-.06,8.24-.69,16.32-2.25,24.3-4.5,3.36,3.07,6.86,6.34,11.05,7.94,3.82,1.46,7.9,1.38,11.67-.19,2.04-.85,3.87-1.96,5.55-3.49l7-6.4,10.57-10.58,5.2-5.59c6.7-7.67,10.13-17.36,8.76-27.55ZM82.33,33.74c-1.9,4.82-4.95,8.76-8.47,12.51-3.74,3.99-7.53,7.85-11.47,11.65l-7.01,6.43c-2.74,2.51-6.39,3.92-10,2.78-1.53-.48-2.81-1.29-4-2.33l-5.49-4.78c-2.36-2.05-4.55-1.98-7.42-1.19-4.05,1.12-8.07,2.1-12.24,2.71-.28.04-.66-.18-.76-.36-.12-.22-.05-.59.11-.82,2.36-3.44,5.09-8.19,5.62-12.29.18-1.4-.13-2.72-1.03-3.79-1.18-1.41-2.28-2.77-3.33-4.29-3.77-5.46-5.79-11.62-5.22-18.29.22-2.65,1-5.16,2.38-7.39,3.91-6.32,11.89-8.83,18.72-5.88,2.02.87,3.73,2.2,5.31,3.77l8.77,8.71c.62.61,1.63.57,2.22.01l1.54-1.46,8.23-8.06c2.69-2.63,6.09-4.08,9.85-4.21,8-.28,14.36,5.58,15.4,13.38.6,4.49-.04,8.99-1.69,13.19Z"/>
      <circle class="cls-1" cx="34.46" cy="38.03" r="4.41"/>
      <circle class="cls-1" cx="61.21" cy="38.04" r="4.41"/>
      <circle class="cls-1" cx="47.76" cy="38.04" r="4.4"/>
    </g>
  </g>
</svg>