<?xml version="1.0" encoding="UTF-8"?>
<svg id="Layer_2" data-name="Layer 2" xmlns="http://www.w3.org/2000/svg" viewBox="0 0 434.17 74.12">
  <defs>
    <style>
      .cls-1 {
        fill: #1e76ba;
      }

      .cls-2 {
        fill: #93c840;
      }

      .cls-3 {
        fill: #fff;
      }

      .cls-4 {
        fill: #009848;
      }
    </style>
  </defs>
  <g id="Layer_1-2" data-name="Layer 1">
    <g>
      <g>
        <path class="cls-3" d="M112.06.14h16.18v29.1s29.84,0,29.84,0V.14h16.18v73.54h-16.18v-29.52s-29.84,0-29.84,0v29.52h-16.18V.14Z"/>
        <path class="cls-3" d="M188.44.14h16.18v73.54h-16.18V.14Z"/>
      </g>
      <path class="cls-2" d="M93.82,7.12c-8.97-8.97-23.51-8.97-32.49,0l-11.06,11.06,16.29,16.29c8.57,8.57,8.95,22.21,1.15,31.24l26.1-26.1c8.97-8.97,8.97-23.52,0-32.49Z"/>
      <path class="cls-1" d="M33.99,34.47l16.29-16.29-11.06-11.06c-8.97-8.97-23.52-8.97-32.49,0-8.97,8.97-8.97,23.52,0,32.49l26.11,26.11c-7.81-9.02-7.43-22.68,1.15-31.25Z"/>
      <path class="cls-4" d="M66.57,34.47l-16.29-16.29-16.29,16.29c-8.58,8.57-8.95,22.22-1.15,31.25l1.24,1.24c4.47,4.47,10.33,6.72,16.19,6.73,5.86-.01,11.72-2.25,16.19-6.73l1.25-1.25c7.8-9.03,7.42-22.67-1.15-31.24Z"/>
      <g>
        <path class="cls-3" d="M225.76.12h2.93v6.92s7.94,0,7.94,0V.12h2.93v16.64h-2.93v-7.01s-7.94,0-7.94,0v7.01h-2.93V.12Z"/>
        <path class="cls-3" d="M244.31.12h12.34v2.62h-9.42s0,4.33,0,4.33h8.35v2.62h-8.35s0,4.47,0,4.47h9.53v2.62h-12.46V.12Z"/>
        <path class="cls-3" d="M266.62,0h2.71s7.32,16.76,7.32,16.76h-3.09s-1.69-4.02-1.69-4.02h-7.87s-1.71,4.02-1.71,4.02h-3s7.32-16.76,7.32-16.76ZM270.8,10.15l-2.88-6.66-2.85,6.66h5.73Z"/>
        <path class="cls-3" d="M279.98.12h2.93v13.98s8.75,0,8.75,0v2.66h-11.67V.12Z"/>
        <path class="cls-3" d="M296.89,2.83h-5.28V.12h13.51v2.71h-5.28s0,13.93,0,13.93h-2.95V2.83Z"/>
        <path class="cls-3" d="M308.68.12h2.93v6.92s7.94,0,7.94,0V.12h2.93v16.64h-2.93v-7.01s-7.94,0-7.94,0v7.01h-2.93V.12Z"/>
        <path class="cls-3" d="M225.93,28.66h2.93v16.64h-2.93v-16.64Z"/>
        <path class="cls-3" d="M233.78,28.66h2.71s8.92,11.51,8.92,11.51v-11.51h2.88v16.64h-2.45s-9.18-11.84-9.18-11.84v11.84h-2.88v-16.64Z"/>
        <path class="cls-3" d="M251.92,42.87l1.76-2.09c1.59,1.38,3.19,2.16,5.25,2.16,1.81,0,2.95-.83,2.95-2.09v-.05c0-1.19-.66-1.83-3.76-2.54-3.54-.86-5.54-1.9-5.54-4.97v-.05c0-2.85,2.38-4.83,5.68-4.83,2.43,0,4.35.74,6.04,2.09l-1.57,2.21c-1.5-1.12-3-1.71-4.52-1.71-1.71,0-2.71.88-2.71,1.97v.05c0,1.28.76,1.85,3.95,2.62,3.52.86,5.35,2.12,5.35,4.87v.05c0,3.11-2.45,4.97-5.94,4.97-2.54,0-4.95-.88-6.94-2.66Z"/>
        <path class="cls-3" d="M272.47,31.37h-5.28v-2.71h13.5v2.71h-5.28s0,13.93,0,13.93h-2.95v-13.93Z"/>
        <path class="cls-3" d="M284.43,28.66h2.93v16.64h-2.93v-16.64Z"/>
        <path class="cls-3" d="M296.37,31.37h-5.28v-2.71h13.51v2.71h-5.28s0,13.93,0,13.93h-2.95v-13.93Z"/>
        <path class="cls-3" d="M307.9,38.24v-9.58h2.93v9.46c0,3.09,1.59,4.76,4.21,4.76s4.18-1.57,4.18-4.64v-9.58h2.93v9.44c0,4.97-2.81,7.47-7.16,7.47-4.33,0-7.09-2.5-7.09-7.32Z"/>
        <path class="cls-3" d="M330.73,31.37h-5.28v-2.71h13.5v2.71h-5.28s0,13.93,0,13.93h-2.95v-13.93Z"/>
        <path class="cls-3" d="M342.52,28.66h12.34v2.62h-9.42s0,4.33,0,4.33h8.35v2.62h-8.35s0,4.47,0,4.47h9.53v2.62h-12.46v-16.64Z"/>
        <path class="cls-3" d="M225.93,57.19h2.93v16.64h-2.93v-16.64Z"/>
        <path class="cls-3" d="M233.78,57.19h2.71s8.92,11.51,8.92,11.51v-11.51h2.88v16.64h-2.45s-9.18-11.84-9.18-11.84v11.84h-2.88v-16.64Z"/>
        <path class="cls-3" d="M257.13,59.9h-5.28v-2.71h13.51v2.71h-5.28s0,13.93,0,13.93h-2.95v-13.93Z"/>
        <path class="cls-3" d="M268.92,57.19h12.34v2.62h-9.42s0,4.33,0,4.33h8.35v2.62h-8.35s0,4.47,0,4.47h9.53v2.62h-12.46v-16.64Z"/>
        <path class="cls-3" d="M285.33,57.19h7.42c2.09,0,3.73.62,4.8,1.66.88.9,1.38,2.14,1.38,3.59v.05c0,2.73-1.64,4.38-3.97,5.04l4.49,6.3h-3.45s-4.09-5.8-4.09-5.8h-3.66s0,5.8,0,5.8h-2.93v-16.64ZM292.54,65.44c2.09,0,3.42-1.09,3.42-2.78v-.05c0-1.78-1.28-2.76-3.45-2.76h-4.26s0,5.59,0,5.59h4.28Z"/>
        <path class="cls-3" d="M303,57.19h2.71s8.92,11.51,8.92,11.51v-11.51h2.88v16.64h-2.45s-9.18-11.84-9.18-11.84v11.84h-2.88v-16.64Z"/>
        <path class="cls-3" d="M328.16,57.07h2.71s7.32,16.76,7.32,16.76h-3.09s-1.69-4.02-1.69-4.02h-7.87s-1.71,4.02-1.71,4.02h-3s7.32-16.76,7.32-16.76ZM332.34,67.23l-2.88-6.66-2.85,6.66h5.73Z"/>
        <path class="cls-3" d="M343.47,59.9h-5.28v-2.71h13.5v2.71h-5.28s0,13.93,0,13.93h-2.95v-13.93Z"/>
        <path class="cls-3" d="M355.44,57.19h2.93v16.64h-2.93v-16.64Z"/>
        <path class="cls-3" d="M362.55,65.56v-.05c0-4.68,3.61-8.61,8.73-8.61,5.11,0,8.68,3.88,8.68,8.56v.05c0,4.68-3.61,8.61-8.73,8.61-5.11,0-8.68-3.88-8.68-8.56ZM376.89,65.56v-.05c0-3.23-2.35-5.92-5.66-5.92-3.31,0-5.61,2.64-5.61,5.87v.05c0,3.23,2.35,5.92,5.66,5.92,3.31,0,5.61-2.64,5.61-5.87Z"/>
        <path class="cls-3" d="M383.97,57.19h2.71s8.92,11.51,8.92,11.51v-11.51h2.88v16.64h-2.45s-9.18-11.84-9.18-11.84v11.84h-2.88v-16.64Z"/>
        <path class="cls-3" d="M409.13,57.07h2.71s7.32,16.76,7.32,16.76h-3.09s-1.69-4.02-1.69-4.02h-7.87s-1.71,4.02-1.71,4.02h-3s7.32-16.76,7.32-16.76ZM413.32,67.23l-2.88-6.66-2.85,6.66h5.73Z"/>
        <path class="cls-3" d="M422.5,57.19h2.93v13.98s8.75,0,8.75,0v2.66h-11.67v-16.64Z"/>
      </g>
    </g>
  </g>
</svg>