<?xml version="1.0" encoding="UTF-8"?>
<svg id="Layer_2" data-name="Layer 2" xmlns="http://www.w3.org/2000/svg" viewBox="0 0 169.81 85.26">
  <defs>
    <style>
      .cls-1 {
        fill: #676490;
      }

      .cls-2 {
        fill: #67658f;
      }

      .cls-3 {
        fill: #808184;
      }
    </style>
  </defs>
  <g id="Layer_1-2" data-name="Layer 1">
    <g>
      <path class="cls-3" d="M6.85,75.84H1.5v3.4h4.89v1.44H1.5v4.43H0v-10.68h6.85v1.42Z"/>
      <path class="cls-3" d="M18.24,75.84h-5.85v3.12h5.29v1.44h-5.29v3.28h5.85v1.42h-7.38v-10.68h7.38v1.42Z"/>
      <path class="cls-3" d="M30.31,77.86c0,.49-.08.94-.25,1.35-.17.41-.4.76-.71,1.06-.31.3-.68.53-1.11.71-.43.18-.91.28-1.44.31.19.73.58,1.3,1.16,1.71s1.3.61,2.16.61h.51v1.48h-.56c-.72,0-1.38-.12-1.98-.36-.6-.24-1.11-.57-1.54-1-.43-.42-.77-.93-1-1.52s-.36-1.24-.36-1.95v-.4h1.29c.33,0,.63-.05.92-.14s.52-.23.73-.41c.2-.18.36-.39.47-.64.11-.25.17-.52.17-.82,0-.61-.21-1.09-.63-1.47s-.97-.56-1.65-.56h-2.57v9.26h-1.53v-10.68h4.1c.57,0,1.1.08,1.57.25.47.17.88.4,1.21.7.33.3.59.66.77,1.08.18.42.27.89.27,1.41Z"/>
      <path class="cls-3" d="M42.1,75.84h-3.43v9.26h-1.55v-9.26h-3.43v-1.42h8.4v1.42Z"/>
      <path class="cls-3" d="M47.35,74.42v10.68h-1.53v-10.68h1.53Z"/>
      <path class="cls-3" d="M53.25,74.42v9.26h5.48v1.42h-7.01v-10.68h1.53Z"/>
      <path class="cls-3" d="M64.04,74.42v10.68h-1.53v-10.68h1.53Z"/>
      <path class="cls-3" d="M76.17,75.84h-3.43v9.26h-1.55v-9.26h-3.43v-1.42h8.4v1.42Z"/>
      <path class="cls-3" d="M84.25,81v4.1h-1.55v-4.1l-3.7-6.58h1.75l2.73,4.94,2.71-4.94h1.75l-3.7,6.58Z"/>
      <path class="cls-3" d="M99.19,79.76c0-.81.14-1.55.41-2.22.28-.67.66-1.25,1.16-1.74.49-.48,1.08-.86,1.76-1.13s1.43-.41,2.25-.41c.64,0,1.24.08,1.79.25.56.17,1.07.4,1.52.72.46.31.85.69,1.19,1.13.33.44.6.94.79,1.49h-1.67c-.33-.68-.81-1.21-1.44-1.59-.63-.38-1.36-.57-2.18-.57-.58,0-1.12.1-1.62.3-.49.2-.92.48-1.28.84-.36.36-.64.79-.84,1.29-.2.5-.29,1.05-.29,1.64s.1,1.14.29,1.64c.2.5.48.93.84,1.29s.79.64,1.28.84c.49.2,1.03.3,1.62.3.82,0,1.54-.19,2.18-.57.63-.38,1.11-.91,1.44-1.59h1.67c-.19.55-.45,1.05-.79,1.49-.33.44-.73.82-1.19,1.13-.46.31-.96.55-1.52.72-.56.17-1.16.25-1.79.25-.82,0-1.57-.14-2.25-.41s-1.27-.65-1.76-1.14-.88-1.07-1.16-1.74c-.28-.67-.41-1.41-.41-2.22Z"/>
      <path class="cls-3" d="M121.35,75.84h-5.85v3.12h5.29v1.44h-5.29v3.28h5.85v1.42h-7.38v-10.68h7.38v1.42Z"/>
      <path class="cls-3" d="M134.2,74.42v10.68h-1.64l-5.53-8.24v8.24h-1.53v-10.68h1.64l5.52,8.24v-8.24h1.55Z"/>
      <path class="cls-3" d="M146.33,75.84h-3.43v9.26h-1.55v-9.26h-3.43v-1.42h8.4v1.42Z"/>
      <path class="cls-3" d="M157.42,75.84h-5.85v3.12h5.29v1.44h-5.29v3.28h5.85v1.42h-7.38v-10.68h7.38v1.42Z"/>
      <path class="cls-3" d="M169.49,77.86c0,.49-.08.94-.25,1.35-.17.41-.4.76-.71,1.06-.31.3-.68.53-1.11.71-.43.18-.91.28-1.44.31.19.73.58,1.3,1.16,1.71s1.3.61,2.16.61h.51v1.48h-.56c-.72,0-1.38-.12-1.98-.36-.6-.24-1.11-.57-1.54-1-.43-.42-.77-.93-1-1.52s-.36-1.24-.36-1.95v-.4h1.29c.33,0,.63-.05.92-.14s.52-.23.73-.41c.2-.18.36-.39.47-.64.11-.25.17-.52.17-.82,0-.61-.21-1.09-.63-1.47s-.97-.56-1.65-.56h-2.57v9.26h-1.53v-10.68h4.1c.57,0,1.1.08,1.57.25.47.17.88.4,1.21.7.33.3.59.66.77,1.08.18.42.27.89.27,1.41Z"/>
    </g>
    <rect class="cls-2" x=".23" y="17.7" width="9.07" height="45.27"/>
    <path class="cls-2" d="M49.11,62.97v-26.69c0-1.23-.24-2.51-.7-3.83-.47-1.32-1.19-2.52-2.16-3.61-.97-1.09-2.17-1.98-3.61-2.69-1.44-.7-3.13-1.06-5.06-1.06-1.7,0-3.27.32-4.71.97-1.44.65-2.67,1.47-3.7,2.47-1.03,1-1.82,2.14-2.38,3.44-.56,1.29-.84,2.55-.84,3.79v27.22h-9.07V17.7h8.19l.88,4.76c1.88-1.88,4.07-3.29,6.56-4.23,2.5-.94,5.06-1.41,7.71-1.41,2.29,0,4.52.38,6.69,1.15,2.17.76,4.1,1.94,5.77,3.52s3.01,3.61,4.01,6.08c1,2.47,1.5,5.37,1.5,8.72v26.69h-9.07Z"/>
    <rect class="cls-2" x="64.97" y="17.7" width="9.07" height="45.27"/>
    <path class="cls-2" d="M107.86,63.59c-.24.06-.62.1-1.15.13-.53.03-1.09.06-1.67.09-.59.03-1.15.04-1.67.04h-1.23c-5.11,0-8.75-1.31-10.92-3.92-2.17-2.61-3.26-6.62-3.26-12.02v-22.55h-8.98v-5.46c1.47,0,2.94-.19,4.4-.57,1.47-.38,2.77-1.06,3.92-2.03s2.07-2.3,2.77-4.01c.7-1.7,1.06-3.85,1.06-6.43h5.9v10.83h11.19v7.66h-11.19v22.37c0,2.88.56,4.8,1.67,5.77,1.11.97,2.88,1.45,5.28,1.45h4.93l-1.06,8.63Z"/>
    <rect class="cls-2" x="113.94" y="17.7" width="9.07" height="45.27"/>
    <path class="cls-2" d="M159.47,58.22c-1.64,1.65-3.67,2.99-6.08,4.05-2.41,1.06-5.23,1.59-8.46,1.59-2.29,0-4.43-.34-6.43-1.01-2-.67-3.73-1.6-5.2-2.77-1.47-1.17-2.61-2.61-3.44-4.32-.82-1.7-1.23-3.55-1.23-5.55,0-2.29.47-4.32,1.41-6.08.94-1.76,2.2-3.24,3.79-4.45,1.59-1.2,3.44-2.11,5.55-2.73,2.11-.62,4.34-.92,6.69-.92h4.49c.82,0,1.77-.1,2.86-.31,1.09-.21,2.14-.53,3.17-.97,1.03-.44,1.89-1.03,2.6-1.76.7-.73,1.06-1.6,1.06-2.6,0-.88-.26-1.64-.79-2.29-.53-.65-1.22-1.19-2.07-1.63-.85-.44-1.84-.78-2.95-1.01-1.12-.23-2.29-.35-3.52-.35-1.41,0-2.79.15-4.14.44-1.35.29-2.57.75-3.66,1.36-1.09.62-1.97,1.4-2.64,2.33-.68.94-1.01,2.03-1.01,3.26h-9.07c0-2.64.59-4.95,1.76-6.91,1.17-1.97,2.7-3.6,4.58-4.89,1.88-1.29,4.02-2.26,6.43-2.91,2.41-.65,4.87-.97,7.4-.97s4.74.29,7,.88c2.26.59,4.29,1.47,6.08,2.64,1.79,1.18,3.23,2.63,4.32,4.36,1.09,1.73,1.63,3.77,1.63,6.12s-.59,4.23-1.76,5.81c-1.18,1.59-2.66,2.85-4.45,3.79-1.79.94-3.73,1.62-5.81,2.03-2.08.41-4.04.62-5.86.62h-5.99c-.88,0-1.78.13-2.69.4-.91.26-1.76.65-2.55,1.15-.79.5-1.44,1.13-1.94,1.89-.5.76-.75,1.67-.75,2.73,0,1.18.32,2.17.97,2.99.65.82,1.44,1.5,2.38,2.03.94.53,1.95.91,3.04,1.15,1.09.24,2.07.35,2.95.35,1.29,0,2.72-.22,4.27-.66,1.56-.44,3.04-1.07,4.45-1.89,1.41-.82,2.61-1.86,3.61-3.13,1-1.26,1.59-2.69,1.76-4.27h7.13v17.17h-8.01l-.88-4.76Z"/>
    <circle class="cls-1" cx="4.79" cy="4.65" r="4.65"/>
    <circle class="cls-1" cx="69.3" cy="4.65" r="4.65"/>
    <circle class="cls-1" cx="118.48" cy="4.65" r="4.65"/>
  </g>
</svg>