<?xml version="1.0" encoding="UTF-8"?>
<svg id="Layer_2" data-name="Layer 2" xmlns="http://www.w3.org/2000/svg" viewBox="0 0 183.13 91.95">
  <defs>
    <style>
      .cls-1 {
        fill: #fff;
      }
    </style>
  </defs>
  <g id="Layer_1-2" data-name="Layer 1">
    <g>
      <path class="cls-1" d="M7.39,81.79H1.62v3.66h5.28v1.55H1.62v4.78H0v-11.52h7.39v1.53Z"/>
      <path class="cls-1" d="M19.67,81.79h-6.31v3.37h5.71v1.55h-5.71v3.54h6.31v1.53h-7.96v-11.52h7.96v1.53Z"/>
      <path class="cls-1" d="M32.68,83.97c0,.53-.09,1.01-.27,1.45-.18.44-.43.82-.77,1.14-.33.32-.73.58-1.19.76-.46.19-.98.3-1.56.33.21.79.62,1.41,1.25,1.85.62.44,1.4.66,2.33.66h.55v1.6h-.6c-.78,0-1.49-.13-2.13-.39-.64-.26-1.19-.62-1.66-1.07-.46-.46-.83-1.01-1.08-1.64-.26-.64-.39-1.34-.39-2.11v-.43h1.39c.35,0,.68-.05.99-.16.3-.1.56-.25.78-.44.22-.19.39-.42.51-.69.12-.27.18-.56.18-.89,0-.65-.23-1.18-.68-1.58s-1.05-.6-1.78-.6h-2.77v9.99h-1.65v-11.52h4.42c.62,0,1.18.09,1.69.27.51.18.95.43,1.31.76.36.33.64.72.83,1.17.19.45.29.96.29,1.52Z"/>
      <path class="cls-1" d="M45.4,81.79h-3.7v9.99h-1.67v-9.99h-3.7v-1.53h9.06v1.53Z"/>
      <path class="cls-1" d="M51.06,80.26v11.52h-1.65v-11.52h1.65Z"/>
      <path class="cls-1" d="M57.42,80.26v9.99h5.91v1.53h-7.56v-11.52h1.65Z"/>
      <path class="cls-1" d="M69.06,80.26v11.52h-1.65v-11.52h1.65Z"/>
      <path class="cls-1" d="M82.14,81.79h-3.7v9.99h-1.67v-9.99h-3.7v-1.53h9.06v1.53Z"/>
      <path class="cls-1" d="M90.86,87.36v4.42h-1.67v-4.42l-3.99-7.1h1.89l2.94,5.33,2.92-5.33h1.89l-3.99,7.1Z"/>
      <path class="cls-1" d="M106.97,86.01c0-.87.15-1.67.45-2.4.3-.73.71-1.35,1.25-1.87.53-.52,1.17-.93,1.9-1.22.73-.29,1.54-.44,2.42-.44.69,0,1.33.09,1.93.27.6.18,1.15.44,1.64.77s.92.75,1.28,1.22c.36.48.65,1.01.85,1.61h-1.81c-.36-.73-.87-1.31-1.56-1.72-.68-.41-1.46-.62-2.35-.62-.63,0-1.21.11-1.74.33-.53.22-.99.52-1.38.91s-.69.85-.9,1.39c-.21.54-.32,1.13-.32,1.77s.11,1.23.32,1.77c.21.54.51,1,.9,1.39s.85.69,1.38.91c.53.22,1.11.33,1.74.33.88,0,1.67-.21,2.35-.62.68-.41,1.2-.99,1.56-1.72h1.81c-.21.6-.49,1.13-.85,1.61-.36.48-.79.88-1.28,1.22s-1.04.6-1.64.77c-.6.18-1.25.27-1.93.27-.88,0-1.69-.15-2.42-.44-.73-.29-1.37-.7-1.9-1.23-.53-.53-.95-1.15-1.25-1.87-.3-.72-.45-1.52-.45-2.39Z"/>
      <path class="cls-1" d="M130.87,81.79h-6.31v3.37h5.71v1.55h-5.71v3.54h6.31v1.53h-7.96v-11.52h7.96v1.53Z"/>
      <path class="cls-1" d="M144.72,80.26v11.52h-1.77l-5.97-8.89v8.89h-1.65v-11.52h1.77l5.95,8.89v-8.89h1.67Z"/>
      <path class="cls-1" d="M157.81,81.79h-3.7v9.99h-1.67v-9.99h-3.7v-1.53h9.06v1.53Z"/>
      <path class="cls-1" d="M169.77,81.79h-6.31v3.37h5.71v1.55h-5.71v3.54h6.31v1.53h-7.96v-11.52h7.96v1.53Z"/>
      <path class="cls-1" d="M182.79,83.97c0,.53-.09,1.01-.27,1.45-.18.44-.43.82-.77,1.14-.33.32-.73.58-1.19.76-.46.19-.98.3-1.56.33.21.79.62,1.41,1.25,1.85.62.44,1.4.66,2.33.66h.55v1.6h-.6c-.78,0-1.49-.13-2.13-.39-.64-.26-1.19-.62-1.66-1.07-.46-.46-.83-1.01-1.08-1.64-.26-.64-.39-1.34-.39-2.11v-.43h1.39c.35,0,.68-.05.99-.16.3-.1.56-.25.78-.44.22-.19.39-.42.51-.69.12-.27.18-.56.18-.89,0-.65-.23-1.18-.68-1.58s-1.05-.6-1.78-.6h-2.77v9.99h-1.65v-11.52h4.42c.62,0,1.18.09,1.69.27.51.18.95.43,1.31.76.36.33.64.72.83,1.17.19.45.29.96.29,1.52Z"/>
    </g>
    <g>
      <path class="cls-1" d="M10.03,0v10.07H.16V0h9.88ZM10.03,19.09v48.82H.25V19.09h9.78Z"/>
      <path class="cls-1" d="M52.97,67.91v-28.78c0-1.33-.25-2.71-.76-4.13-.51-1.42-1.28-2.72-2.33-3.89-1.04-1.17-2.34-2.14-3.89-2.9-1.55-.76-3.37-1.14-5.46-1.14-1.84,0-3.53.35-5.08,1.04-1.55.7-2.88,1.58-3.99,2.66-1.11,1.08-1.96,2.31-2.56,3.71-.6,1.39-.9,2.75-.9,4.08v29.35h-9.78V19.09h8.83l.95,5.13c2.03-2.03,4.38-3.55,7.08-4.56,2.69-1.01,5.46-1.52,8.31-1.52,2.47,0,4.88.41,7.22,1.24,2.34.82,4.42,2.09,6.22,3.8s3.24,3.89,4.32,6.55c1.08,2.66,1.61,5.79,1.61,9.4v28.78h-9.78Z"/>
      <path class="cls-1" d="M79.85,0v10.07h-9.88V0h9.88ZM79.85,19.09v48.82h-9.78V19.09h9.78Z"/>
      <path class="cls-1" d="M116.32,68.58c-.25.06-.67.11-1.23.14-.57.03-1.17.06-1.8.09-.63.03-1.23.05-1.8.05h-1.33c-5.51,0-9.44-1.41-11.78-4.23-2.34-2.82-3.51-7.14-3.51-12.96v-24.32h-9.69v-5.89c1.58,0,3.17-.2,4.75-.62,1.58-.41,2.99-1.14,4.23-2.18s2.23-2.48,2.99-4.32c.76-1.84,1.14-4.15,1.14-6.93h6.36v11.68h12.06v8.26h-12.06v24.13c0,3.1.6,5.18,1.8,6.22,1.2,1.04,3.1,1.57,5.7,1.57h5.32l-1.14,9.31Z"/>
      <path class="cls-1" d="M132.66,0v10.07h-9.88V0h9.88ZM132.66,19.09v48.82h-9.78V19.09h9.78Z"/>
      <path class="cls-1" d="M171.98,62.79c-1.77,1.77-3.96,3.23-6.55,4.37-2.6,1.14-5.64,1.71-9.12,1.71-2.47,0-4.78-.37-6.93-1.09-2.15-.73-4.02-1.72-5.6-2.99-1.58-1.27-2.82-2.82-3.7-4.65-.89-1.84-1.33-3.83-1.33-5.98,0-2.47.51-4.65,1.52-6.55,1.01-1.9,2.37-3.5,4.08-4.8,1.71-1.3,3.7-2.28,5.98-2.94s4.69-1,7.22-1h4.84c.89,0,1.91-.11,3.09-.33,1.17-.22,2.31-.57,3.42-1.04,1.11-.48,2.04-1.11,2.8-1.9.76-.79,1.14-1.72,1.14-2.8,0-.95-.28-1.77-.85-2.47-.57-.7-1.31-1.28-2.23-1.76-.92-.48-1.98-.84-3.18-1.09-1.2-.25-2.47-.38-3.8-.38-1.52,0-3.01.16-4.46.47-1.46.32-2.77.81-3.94,1.47-1.17.67-2.12,1.5-2.85,2.52-.73,1.01-1.09,2.18-1.09,3.51h-9.78c0-2.85.63-5.33,1.9-7.46,1.27-2.12,2.91-3.88,4.94-5.27,2.03-1.39,4.34-2.44,6.93-3.13,2.6-.7,5.26-1.04,7.98-1.04s5.11.32,7.55.95c2.44.63,4.62,1.58,6.55,2.85,1.93,1.27,3.48,2.83,4.65,4.7,1.17,1.87,1.76,4.07,1.76,6.6s-.63,4.56-1.9,6.27c-1.27,1.71-2.87,3.07-4.8,4.08-1.93,1.01-4.02,1.74-6.27,2.18-2.25.44-4.35.67-6.32.67h-6.46c-.95,0-1.92.14-2.9.43-.98.29-1.9.7-2.75,1.23-.85.54-1.55,1.22-2.09,2.04-.54.82-.81,1.8-.81,2.95,0,1.27.35,2.34,1.04,3.23.7.89,1.55,1.61,2.56,2.18,1.01.57,2.1.98,3.28,1.23,1.17.25,2.23.38,3.18.38,1.39,0,2.93-.24,4.61-.71,1.68-.48,3.28-1.16,4.8-2.04,1.52-.89,2.82-2.01,3.89-3.37,1.08-1.36,1.71-2.9,1.9-4.61h7.69v18.52h-8.64l-.95-5.13Z"/>
    </g>
  </g>
</svg>