<?xml version="1.0" encoding="UTF-8"?>
<svg id="Layer_2" data-name="Layer 2" xmlns="http://www.w3.org/2000/svg" viewBox="0 0 65.12 47.47">
  <defs>
    <style>
      .cls-1 {
        fill: #1d75b8;
      }

      .cls-2 {
        fill: #009748;
      }

      .cls-3 {
        fill: #93c840;
      }
    </style>
  </defs>
  <g id="Layer_2-2" data-name="Layer 2">
    <g>
      <path class="cls-3" d="M60.77,4.36c-5.81-5.81-15.23-5.81-21.04,0l-7.16,7.16,10.55,10.55c5.55,5.55,5.8,14.39.75,20.23l16.9-16.9c5.81-5.81,5.81-15.23,0-21.04"/>
      <path class="cls-1" d="M22.01,22.07l10.55-10.55-7.16-7.16c-5.81-5.81-15.23-5.81-21.04,0-5.81,5.81-5.81,15.23,0,21.04l16.91,16.91c-5.06-5.85-4.81-14.69.74-20.24"/>
      <path class="cls-2" d="M43.12,22.07l-10.55-10.55-10.55,10.55c-5.55,5.55-5.8,14.39-.74,20.24l.8.8c2.9,2.9,6.69,4.35,10.49,4.36,3.8,0,7.59-1.46,10.49-4.36l.81-.81c5.05-5.85,4.8-14.68-.75-20.23"/>
    </g>
  </g>
</svg>